<svg width="58" height="66" fill="none" xmlns="http://www.w3.org/2000/svg"><g filter="url(#filter0_d)"><path fill-rule="evenodd" clip-rule="evenodd" d="M38.19 15.44H19.702c-2.333 0-4.231 1.916-4.231 4.271V46.15c0 2.355 1.898 4.271 4.231 4.271H38.19c2.333 0 4.231-1.916 4.231-4.271V19.71c0-2.355-1.898-4.271-4.23-4.271zm0 32.657c1.063 0 1.929-.874 1.929-1.948V19.71a1.941 1.941 0 00-1.93-1.948H19.703c-1.064 0-1.93.874-1.93 1.948V46.15c0 1.074.866 1.948 1.93 1.948H38.19z" fill="#000"/><path fill-rule="evenodd" clip-rule="evenodd" d="M38.19 15.44H19.702c-2.333 0-4.231 1.916-4.231 4.271V46.15c0 2.355 1.898 4.271 4.231 4.271H38.19c2.333 0 4.231-1.916 4.231-4.271V19.71c0-2.355-1.898-4.271-4.23-4.271zm0 32.657c1.063 0 1.929-.874 1.929-1.948V19.71a1.941 1.941 0 00-1.93-1.948H19.703c-1.064 0-1.93.874-1.93 1.948V46.15c0 1.074.866 1.948 1.93 1.948H38.19z" fill="url(#paint0_linear)"/><path d="M32.84 29.864a1.17 1.17 0 00.25-1.266 1.15 1.15 0 00-1.063-.717h-3.384l4.198-4.238a1.17 1.17 0 000-1.643 1.143 1.143 0 00-1.628 0l-6.161 6.22a1.17 1.17 0 00-.25 1.267 1.15 1.15 0 001.063.717h3.384l-4.197 4.238c-.45.453-.45 1.189 0 1.642a1.141 1.141 0 001.627 0l6.162-6.22z" fill="#000"/><path d="M32.84 29.864a1.17 1.17 0 00.25-1.266 1.15 1.15 0 00-1.063-.717h-3.384l4.198-4.238a1.17 1.17 0 000-1.643 1.143 1.143 0 00-1.628 0l-6.161 6.22a1.17 1.17 0 00-.25 1.267 1.15 1.15 0 001.063.717h3.384l-4.197 4.238c-.45.453-.45 1.189 0 1.642a1.141 1.141 0 001.627 0l6.162-6.22z" fill="url(#paint1_linear)"/><path d="M28.946 40.01c-1.654 0-3 1.359-3 3.028 0 1.67 1.346 3.028 3 3.028s3-1.358 3-3.028-1.346-3.027-3-3.027zm0 3.733a.702.702 0 01-.698-.705c0-.388.313-.704.698-.704.385 0 .698.316.698.704a.703.703 0 01-.698.705z" fill="#000"/><path d="M28.946 40.01c-1.654 0-3 1.359-3 3.028 0 1.67 1.346 3.028 3 3.028s3-1.358 3-3.028-1.346-3.027-3-3.027zm0 3.733a.702.702 0 01-.698-.705c0-.388.313-.704.698-.704.385 0 .698.316.698.704a.703.703 0 01-.698.705z" fill="url(#paint2_linear)"/><path d="M22.784 40.01c-1.654 0-2.999 1.359-2.999 3.028 0 1.67 1.345 3.028 3 3.028 1.653 0 2.998-1.358 2.998-3.028s-1.345-3.027-2.999-3.027zm0 3.733a.702.702 0 01-.698-.705c0-.388.313-.704.698-.704.385 0 .698.316.698.704a.702.702 0 01-.698.705z" fill="#000"/><path d="M22.784 40.01c-1.654 0-2.999 1.359-2.999 3.028 0 1.67 1.345 3.028 3 3.028 1.653 0 2.998-1.358 2.998-3.028s-1.345-3.027-2.999-3.027zm0 3.733a.702.702 0 01-.698-.705c0-.388.313-.704.698-.704.385 0 .698.316.698.704a.702.702 0 01-.698.705z" fill="url(#paint3_linear)"/><path d="M35.108 40.01c-1.654 0-3 1.359-3 3.028 0 1.67 1.346 3.028 3 3.028s3-1.358 3-3.028-1.346-3.027-3-3.027zm0 3.733a.702.702 0 01-.698-.705c0-.388.313-.704.698-.704.385 0 .698.316.698.704a.702.702 0 01-.698.705z" fill="#000"/><path d="M35.108 40.01c-1.654 0-3 1.359-3 3.028 0 1.67 1.346 3.028 3 3.028s3-1.358 3-3.028-1.346-3.027-3-3.027zm0 3.733a.702.702 0 01-.698-.705c0-.388.313-.704.698-.704.385 0 .698.316.698.704a.702.702 0 01-.698.705z" fill="url(#paint4_linear)"/></g><defs><linearGradient id="paint0_linear" x1="28.946" y1="15.44" x2="28.946" y2="50.42" gradientUnits="userSpaceOnUse"><stop stop-color="#FF9FC8"/><stop offset="1" stop-color="#FF579E"/></linearGradient><linearGradient id="paint1_linear" x1="28.946" y1="15.44" x2="28.946" y2="50.42" gradientUnits="userSpaceOnUse"><stop stop-color="#FF9FC8"/><stop offset="1" stop-color="#FF579E"/></linearGradient><linearGradient id="paint2_linear" x1="28.946" y1="15.44" x2="28.946" y2="50.42" gradientUnits="userSpaceOnUse"><stop stop-color="#FF9FC8"/><stop offset="1" stop-color="#FF579E"/></linearGradient><linearGradient id="paint3_linear" x1="28.946" y1="15.44" x2="28.946" y2="50.42" gradientUnits="userSpaceOnUse"><stop stop-color="#FF9FC8"/><stop offset="1" stop-color="#FF579E"/></linearGradient><linearGradient id="paint4_linear" x1="28.946" y1="15.44" x2="28.946" y2="50.42" gradientUnits="userSpaceOnUse"><stop stop-color="#FF9FC8"/><stop offset="1" stop-color="#FF579E"/></linearGradient><filter id="filter0_d" x=".42" y=".42" width="57" height="65" filterUnits="userSpaceOnUse" color-interpolation-filters="sRGB"><feFlood flood-opacity="0" result="BackgroundImageFix"/><feColorMatrix in="SourceAlpha" values="0 0 0 0 0 0 0 0 0 0 0 0 0 0 0 0 0 0 127 0"/><feOffset/><feGaussianBlur stdDeviation="7.5"/><feColorMatrix values="0 0 0 0 1 0 0 0 0 0.341176 0 0 0 0 0.619608 0 0 0 1 0"/><feBlend in2="BackgroundImageFix" result="effect1_dropShadow"/><feBlend in="SourceGraphic" in2="effect1_dropShadow" result="shape"/></filter></defs></svg>