<svg width="56" height="54" fill="none" xmlns="http://www.w3.org/2000/svg"><path d="M21.812 37.19c-8.732.427-17.5-13.242-12.708-21.342 7.814-13.206 24.608-7.233 18.504 5.93-2.952 6.366 2.936 14.983-5.796 15.411z" stroke="#FF57C6" stroke-width="2"/><path d="M17.285 18.238c-1.17-8.781 10.279-7.879 15.714-7.878 5.435 0 12.5-1 14.438 3.54 1.477 3.46.685 5.938-9.007 11.749-9.692 5.81-19.684 3.565-21.145-7.411z" stroke="#10E6D9" stroke-width="2"/><path d="M48.097 20.566c10.498 3.411 2.632 16.765-5.212 19.329-7.844 2.563-15.705-.086-16.39-8.748-.686-8.661 11.103-13.992 21.602-10.58z" stroke="#ED534B" stroke-width="2"/><path d="M44.446 46.395c-4.565 4.568-9.842 1.935-11.91.047-3.838-3.223-10.762-6.66-10.233-14.252.661-9.49 9.753-14.003 17.124-9.185 7.37 4.817 10.726 17.68 5.02 23.39z" stroke="#9F72FF" stroke-width="2"/><path d="M39.462 34.098c1.74 4.236-.2 10.181-10.32 14.307-10.626 4.331-16.955-1.856-17.7-8.68-.412-3.777-.628-7.507 4.676-10.331 7.2-3.835 21.604.467 23.344 4.704z" stroke="#FFA800" stroke-width="2"/></svg>