<svg width="230" height="230" viewBox="0 0 28 36" fill="none" xmlns="http://www.w3.org/2000/svg">
<path fill-rule="evenodd" clip-rule="evenodd" d="M23.1891 0.439758L4.70331 0.439758C2.36982 0.439758 0.47168 2.35594 0.47168 4.71131L0.47168 31.1488C0.47168 33.5042 2.36982 35.4204 4.70331 35.4204L23.1891 35.4204C25.522 35.4204 27.4201 33.5042 27.4201 31.1488L27.4201 4.71131C27.4201 2.35594 25.522 0.439758 23.1891 0.439758ZM23.1891 33.0974C24.2534 33.0974 25.119 32.2232 25.119 31.1488L25.119 4.71131C25.119 3.63692 24.2534 2.76277 23.1891 2.76277L4.70331 2.76277C3.63874 2.76277 2.77282 3.63692 2.77282 4.71131L2.77282 31.1488C2.77282 32.2232 3.63874 33.0974 4.70331 33.0974L23.1891 33.0974Z" fill="url(#paint0_linear)"/>
<path d="M17.8408 14.8639C18.1698 14.5315 18.268 14.0321 18.0901 13.598C17.9121 13.164 17.4926 12.8812 17.0273 12.8812L13.6427 12.8809L17.8408 8.64318C18.2902 8.18947 18.2902 7.45416 17.8408 7.00044C17.3913 6.54703 16.6629 6.54703 16.2135 7.00044L10.0517 13.2208C9.72267 13.5533 9.62409 14.0526 9.80207 14.4867C9.98035 14.9208 10.3998 15.2039 10.8651 15.2039L14.2494 15.2039L10.0517 19.4418C9.60222 19.8953 9.60222 20.6309 10.0517 21.0843C10.2764 21.3111 10.5706 21.4246 10.8651 21.4246C11.1597 21.4246 11.4542 21.3111 11.6786 21.0843L17.8408 14.8639Z" fill="url(#paint1_linear)"/>
<path d="M13.9462 25.0107C12.2923 25.0107 10.9469 26.3688 10.9469 28.0382C10.9469 29.7079 12.2923 31.066 13.9462 31.066C15.5999 31.066 16.9455 29.7079 16.9455 28.0382C16.9452 26.3688 15.5999 25.0107 13.9462 25.0107ZM13.9462 28.743C13.5612 28.743 13.2481 28.4269 13.2481 28.0382C13.2481 27.6498 13.5612 27.3337 13.9462 27.3337C14.3309 27.3337 14.6443 27.6498 14.6443 28.0382C14.644 28.4269 14.3309 28.743 13.9462 28.743Z" fill="url(#paint2_linear)"/>
<path d="M7.78438 25.0107C6.13044 25.0107 4.78511 26.3688 4.78511 28.0382C4.78511 29.7079 6.13044 31.066 7.78438 31.066C9.43802 31.066 10.7833 29.7079 10.7833 28.0382C10.7833 26.3688 9.43802 25.0107 7.78438 25.0107ZM7.78438 28.743C7.39936 28.743 7.08625 28.4269 7.08625 28.0382C7.08625 27.6498 7.39936 27.3337 7.78438 27.3337C8.1691 27.3337 8.48221 27.6498 8.48221 28.0382C8.48221 28.4269 8.1691 28.743 7.78438 28.743Z" fill="url(#paint3_linear)"/>
<path d="M20.108 25.0107C18.4544 25.0107 17.1088 26.3688 17.1088 28.0382C17.1088 29.7079 18.4544 31.066 20.108 31.066C21.7617 31.066 23.1073 29.7079 23.1073 28.0382C23.1073 26.3688 21.7617 25.0107 20.108 25.0107ZM20.108 28.743C19.723 28.743 19.4099 28.4269 19.4099 28.0382C19.4099 27.6498 19.723 27.3337 20.108 27.3337C20.4931 27.3337 20.8062 27.6498 20.8062 28.0382C20.8062 28.4269 20.4928 28.743 20.108 28.743Z" fill="url(#paint4_linear)"/>
<defs>
<linearGradient id="paint0_linear" x1="13.9459" y1="0.439758" x2="13.9459" y2="35.4204" gradientUnits="userSpaceOnUse">
<stop stop-color="#FF9FC8"/>
<stop offset="1" stop-color="#FF579E"/>
</linearGradient>
<linearGradient id="paint1_linear" x1="13.9459" y1="0.439758" x2="13.9459" y2="35.4204" gradientUnits="userSpaceOnUse">
<stop stop-color="#FF9FC8"/>
<stop offset="1" stop-color="#FF579E"/>
</linearGradient>
<linearGradient id="paint2_linear" x1="13.9459" y1="0.439758" x2="13.9459" y2="35.4204" gradientUnits="userSpaceOnUse">
<stop stop-color="#FF9FC8"/>
<stop offset="1" stop-color="#FF579E"/>
</linearGradient>
<linearGradient id="paint3_linear" x1="13.9459" y1="0.439758" x2="13.9459" y2="35.4204" gradientUnits="userSpaceOnUse">
<stop stop-color="#FF9FC8"/>
<stop offset="1" stop-color="#FF579E"/>
</linearGradient>
<linearGradient id="paint4_linear" x1="13.9459" y1="0.439758" x2="13.9459" y2="35.4204" gradientUnits="userSpaceOnUse">
<stop stop-color="#FF9FC8"/>
<stop offset="1" stop-color="#FF579E"/>
</linearGradient>
</defs>
</svg>
