<svg width="230" height="230" viewBox="0 0 30 35" fill="none" xmlns="http://www.w3.org/2000/svg">
<path d="M29.8269 26.198C29.8227 26.082 29.2347 10.0792 29.2303 10.0346C28.87 6.30388 25.7359 3.47202 22.0063 3.47202L21.9736 3.47202L21.9736 2.04195C21.9736 0.93924 21.0763 0.041977 19.9736 0.041977L10.0884 0.041977C8.9857 0.041977 8.08844 0.93924 8.08844 2.04195L8.08844 3.47202L8.05576 3.47202C4.31548 3.47202 1.18971 6.31607 0.831741 10.0346C0.827331 10.0792 0.239273 26.082 0.235122 26.198C0.202438 27.0781 0.636932 27.8688 1.32693 28.3266L1.2403 30.4633C1.19464 31.6851 2.17102 32.6892 3.38371 32.6892L5.40573 32.6892L5.40573 33.042C5.40573 33.594 5.85294 34.042 6.40572 34.042L23.6563 34.042C24.2091 34.042 24.6563 33.594 24.6563 33.042L24.6563 32.6892L26.6783 32.6892C27.8887 32.6892 28.8674 31.6884 28.8217 30.4607L28.7351 28.3266C29.4238 27.8696 29.8596 27.0802 29.8269 26.198V26.198ZM22.6563 32.042L7.4057 32.042C7.4057 31.6091 7.4057 31.2885 7.4057 30.7027L22.6563 30.7027L22.6563 32.042ZM2.82574 10.1988C3.09967 7.50204 5.34296 5.47198 8.05576 5.47198L8.08844 5.47198L12.3198 5.47198L12.3198 28.7028L6.931 28.7028C6.64151 28.7028 6.41791 28.4615 6.42491 28.1899C6.4314 27.984 6.94267 11.309 6.9489 11.1012C6.9489 11.0914 6.94968 11.0812 6.94968 11.0714C6.94968 10.5326 6.52245 10.0885 5.97978 10.0714C5.4283 10.0574 4.96709 10.488 4.94971 11.0408C4.9261 11.8065 4.49161 25.976 4.46826 26.7334L2.67841 26.7334C2.4286 26.7334 2.22446 26.5261 2.23379 26.2714C2.29475 24.6058 2.75986 11.9824 2.82574 10.1988V10.1988ZM10.0884 2.04195L19.9736 2.04195L19.9736 3.47202C19.5505 3.47202 10.5325 3.47202 10.0884 3.47202L10.0884 2.04195ZM27.8282 26.2714C27.8376 26.5251 27.6344 26.7334 27.3836 26.7334L25.5937 26.7334C25.5704 25.9804 25.1385 11.8898 25.1123 11.0408C25.0949 10.488 24.6329 10.0545 24.0822 10.0714C23.5396 10.0885 23.1123 10.5326 23.1123 11.0714C23.1123 11.0812 23.1131 11.0914 23.1131 11.1012C23.1378 11.9085 23.6117 27.3658 23.6371 28.184C23.6441 28.4677 23.4164 28.7028 23.131 28.7028L17.7422 28.7028C17.7422 27.9713 17.7422 6.10414 17.7422 5.47198L21.9736 5.47198L22.0063 5.47198C24.7191 5.47198 26.9623 7.50204 27.2363 10.1988C27.3019 11.9793 27.7673 24.6084 27.8282 26.2714V26.2714ZM14.3197 5.47198L15.7423 5.47198L15.7423 28.7028L14.3197 28.7028C14.3197 27.4831 14.3197 6.55135 14.3197 5.47198ZM3.23845 30.5414L3.3116 28.7334L4.48227 28.7334C4.60937 29.3217 4.94452 29.8314 5.40573 30.1852L5.40573 30.6892L3.38371 30.6892C3.3033 30.6892 3.23611 30.6221 3.23845 30.5414V30.5414ZM24.6563 30.1852C25.1203 29.8291 25.4524 29.3196 25.5797 28.7334L26.7504 28.7334L26.823 30.5385C26.8264 30.6244 26.7572 30.6892 26.6783 30.6892L24.6563 30.6892L24.6563 30.1852Z" fill="url(#paint0_linear)"/>
<defs>
<linearGradient id="paint0_linear" x1="15.031" y1="0.041977" x2="15.031" y2="34.042" gradientUnits="userSpaceOnUse">
<stop stop-color="#FF9FC8"/>
<stop offset="1" stop-color="#FF579E"/>
</linearGradient>
</defs>
</svg>
