<svg width="195" height="230" fill="none" xmlns="http://www.w3.org/2000/svg"><g filter="url(#filter0_d)"><path d="M148.531 35.525c.151-.508.308-1.046.429-1.584 1.334-5.899.888-10.177-1.426-13.12-1.154-1.49-3.402-3.293-7.302-3.286-.526 0-1.087.035-1.648.098l-82.814.148a15.095 15.095 0 00-1.648-.093c-3.9.007-6.141 1.818-7.29 3.312-2.304 2.952-2.735 7.232-1.38 13.125.124.538.283 1.075.436 1.583C29.435 40.745 17.46 56.266 17.493 74.62l.189 105.428 23.944-.042.058 32.456 111.681-.199-.058-32.457 23.945-.042-.188-105.428c-.033-18.353-12.062-33.832-28.533-38.81zm-9.5-9.777h.251v-.034c.31-.062.655-.063.965-.064.409 0 .906.061 1.064.221.03.063.967 1.33-.117 6.244-2.007 8.785-12.006 13.938-20.081 16.71-4.171 1.434-8.285 2.392-11.557 3.03 7.114-12.912 21.994-24.858 29.475-26.107zm-17.023.03a81.154 81.154 0 00-4.857 4.065c-7.902 7.211-14.031 15.653-17.133 23.518l-5.554.01c-3.13-7.854-9.289-16.274-17.217-23.457a81.019 81.019 0 00-4.871-4.047l49.632-.089zm-68.935.25c.157-.16.625-.223 1.063-.224v.095l1.216-.002C62.838 27.12 77.76 39.013 84.921 51.9c-3.24-.627-7.299-1.541-11.446-2.96-8.113-2.744-18.224-7.86-20.262-16.668-1.132-4.91-.17-6.18-.14-6.243zm116.185 145.636l-15.966.029-.159-89.2-7.979.014.217 121.656-95.722.171-.217-121.656-7.98.014.16 89.2-15.965.028-.174-97.315c-.015-8.653 3.308-16.805 9.313-22.964 4.172-4.256 9.311-7.18 14.92-8.585 1.565 2.09 3.498 4.018 5.84 5.79 4.027 3.066 9.211 5.72 15.417 7.8 3.65 1.23 7.236 2.145 10.323 2.805l.056 31.286c.004 2.25 1.82 4.053 4 4.049 2.216-.004 3.99-1.814 3.986-4.064l-.052-29.226 15.959-.028.052 29.226c.004 2.25 1.785 4.053 4 4.049 2.181-.004 3.99-1.814 3.986-4.063l-.056-31.286c3.085-.671 6.667-1.599 10.313-2.841 6.199-2.103 11.374-4.775 15.39-7.855 2.335-1.781 4.261-3.716 5.818-5.811 5.615 1.384 10.764 4.29 14.952 8.532 6.026 6.137 9.379 14.276 9.394 22.93l.174 97.315z" fill="url(#paint0_linear)"/><path fill-rule="evenodd" clip-rule="evenodd" d="M44.873 19.431c1.548-2.008 4.472-4.269 9.244-4.277.58-.001 1.182.03 1.78.092l82.551-.148a17.474 17.474 0 011.78-.098c4.773-.008 7.705 2.242 9.259 4.245 2.912 3.71 3.277 8.72 2.044 14.616 16.311 5.98 27.993 21.825 28.026 40.47l.193 107.962-23.945.043.058 32.456L39.196 215l-.058-32.456-23.945.042L15 74.624c-.033-18.644 11.592-34.53 27.881-40.57-1.254-5.892-.906-10.903 1.992-14.623zm9.253.792c-3.02.006-4.578 1.36-5.33 2.338l-.01.015c-1.6 2.048-2.196 5.362-.906 10.972.103.446.239.91.392 1.42l.733 2.434-2.398.734c-15.43 4.723-26.651 19.279-26.62 36.479l.183 102.893 23.945-.043.058 32.456 106.694-.19-.058-32.456 23.945-.043-.184-102.893c-.03-17.2-11.304-31.716-26.75-36.384l-2.4-.725.724-2.438c.151-.51.286-.974.386-1.42 1.27-5.614.662-8.927-.944-10.969l-.011-.014c-.755-.976-2.318-2.325-5.338-2.32-.428.001-.898.03-1.377.083l-.136.015-83.085.149-.135-.015c-.48-.052-.95-.078-1.378-.078zm85.094 8.065c-1.428.283-3.38 1.086-5.706 2.447-2.407 1.41-5.07 3.331-7.75 5.63-3.879 3.329-7.708 7.373-10.808 11.669a74.878 74.878 0 005.359-1.61c3.917-1.345 8.182-3.23 11.664-5.761 3.488-2.536 5.968-5.551 6.784-9.113.33-1.498.439-2.552.457-3.262zm.973-5.172h.049c.31-.001.69.02 1.068.089.188.034.432.09.691.187.22.083.664.273 1.07.684l.305.308.185.394c-.213-.452.131.242.232.517.155.42.284.944.355 1.6.142 1.296.061 3.135-.522 5.775l-.004.019c-1.192 5.22-4.715 9.17-8.743 12.098-4.038 2.934-8.811 5.012-12.968 6.44-4.314 1.482-8.546 2.466-11.885 3.118l-5.266 1.028 2.62-4.756c3.739-6.785 9.457-13.226 15.168-18.126 2.865-2.458 5.769-4.564 8.478-6.15 1.981-1.159 3.942-2.09 5.759-2.65v-.054l.646-.131c.407-.108.806-.195 1.196-.26l.198-.033h.05c.53-.097 1.052-.097 1.318-.097zm-83.567.454v-.305l-2.494.004c-.317 0-.703.023-1.087.095a3.887 3.887 0 00-.698.197 2.963 2.963 0 00-1.04.679l-.304.31-.184.394c.262-.563-.15.29-.226.494a6.65 6.65 0 00-.363 1.614c-.144 1.308-.054 3.155.555 5.798 1.212 5.237 4.779 9.186 8.844 12.101 4.073 2.922 8.882 4.981 13.055 6.392 4.297 1.47 8.477 2.409 11.77 3.047l5.282 1.022-2.644-4.759c-3.763-6.772-9.504-13.192-15.233-18.072-2.873-2.447-5.785-4.543-8.5-6.119-2.34-1.36-4.653-2.4-6.733-2.892zm-1.466 4.866c.02.705.134 1.757.48 3.256.826 3.57 3.335 6.586 6.863 9.117 3.518 2.523 7.82 4.393 11.759 5.725l.008.003a71.063 71.063 0 005.236 1.559c-3.115-4.285-6.958-8.315-10.849-11.629-2.688-2.29-5.358-4.202-7.77-5.602-2.338-1.358-4.297-2.154-5.727-2.43zm9.739-5.09l64.577-.116-5.968 4.572a78.67 78.67 0 00-4.699 3.934c-7.686 7.016-13.55 15.148-16.477 22.569l-.626 1.588-8.92.016-.633-1.586c-2.953-7.41-8.847-15.522-16.558-22.51a78.504 78.504 0 00-4.713-3.917l-5.983-4.55zm14.41 5.043c7.436 6.826 13.398 14.77 16.798 22.445l2.258-.004c3.373-7.688 9.307-15.652 16.719-22.505l-35.776.064zm-28.61 11.809l.991 1.323c1.411 1.884 3.172 3.648 5.345 5.293l.005.004c3.766 2.866 8.695 5.406 14.704 7.421 3.542 1.194 7.037 2.086 10.055 2.732l1.977.422.06 33.34c.001.833.683 1.52 1.502 1.518.84-.002 1.498-.676 1.497-1.524l-.057-31.761 20.946-.038.056 31.761c.002.849.663 1.52 1.503 1.52.819-.002 1.498-.691 1.497-1.525l-.06-33.339 1.975-.43c3.016-.655 6.504-1.56 10.042-2.766 6.003-2.036 10.926-4.595 14.682-7.475l.005-.004c2.166-1.652 3.921-3.423 5.325-5.312l.986-1.326 1.59.391c6.057 1.493 11.613 4.63 16.125 9.2l.004.005c6.487 6.606 10.107 15.386 10.123 24.716l.179 99.851-20.952.037-.159-89.2-2.993.005.217 121.657-100.708.179-.217-121.656-2.993.005.159 89.2-20.952.038-.178-99.85c-.017-9.331 3.571-18.123 10.035-24.753l.004-.005c4.496-4.587 10.04-7.743 16.092-9.257l1.588-.397zm-1.904 5.74c-4.58 1.413-8.77 3.95-12.24 7.49-5.545 5.688-8.603 13.198-8.589 21.173l.17 94.78 10.978-.019-.16-89.2 12.967-.023.217 121.656 90.735-.162-.217-121.656 12.966-.023.159 89.199 10.979-.019-.169-94.78c-.014-7.975-3.099-15.473-8.662-21.141-3.484-3.529-7.684-6.051-12.269-7.447-1.493 1.778-3.236 3.428-5.24 4.957-4.277 3.28-9.706 6.065-16.101 8.234a94.914 94.914 0 01-8.605 2.466l.052 29.252c.007 3.665-2.932 6.597-6.474 6.603-3.592.006-6.492-2.929-6.498-6.58l-.048-26.691-10.972.02.047 26.69c.007 3.652-2.883 6.597-6.474 6.603-3.542.007-6.491-2.914-6.498-6.579l-.052-29.252a94.909 94.909 0 01-8.615-2.436c-6.402-2.146-11.84-4.912-16.128-8.175-2.01-1.522-3.76-3.167-5.259-4.94z" fill="url(#paint1_linear)"/></g><defs><linearGradient id="paint0_linear" x1="97.175" y1="15.077" x2="97.532" y2="214.896" gradientUnits="userSpaceOnUse"><stop stop-color="#FF9FC8"/><stop offset="1" stop-color="#FF579E"/></linearGradient><linearGradient id="paint1_linear" x1="97.175" y1="15.077" x2="97.532" y2="214.896" gradientUnits="userSpaceOnUse"><stop stop-color="#FF9FC8"/><stop offset="1" stop-color="#FF579E"/></linearGradient><filter id="filter0_d" x="0" y="0" width="194.75" height="230" filterUnits="userSpaceOnUse" color-interpolation-filters="sRGB"><feFlood flood-opacity="0" result="BackgroundImageFix"/><feColorMatrix in="SourceAlpha" values="0 0 0 0 0 0 0 0 0 0 0 0 0 0 0 0 0 0 127 0"/><feOffset/><feGaussianBlur stdDeviation="7.5"/><feColorMatrix values="0 0 0 0 1 0 0 0 0 0.341176 0 0 0 0 0.619608 0 0 0 1 0"/><feBlend in2="BackgroundImageFix" result="effect1_dropShadow"/><feBlend in="SourceGraphic" in2="effect1_dropShadow" result="shape"/></filter></defs></svg>