<svg width="230" height="230" viewBox="0 0 32 40" fill="none" xmlns="http://www.w3.org/2000/svg">
<path d="M26.2141 0.000122191L20.6842 0.000122165C20.037 0.000122162 19.5123 0.52481 19.5123 1.172L19.5123 13.4487L14.9217 13.4487C15.1834 12.9136 15.3307 12.3128 15.3307 11.6781C15.3307 9.94129 13.0312 5.35731 12.3265 3.99372C12.1253 3.6045 11.7237 3.35997 11.2855 3.35997C10.8473 3.35997 10.4456 3.6045 10.2445 3.99379C9.53969 5.35731 7.24023 9.94129 7.24023 11.6781C7.24023 12.3128 7.38758 12.9136 7.64922 13.4487L6.17719 13.4487C5.53 13.4487 5.00531 13.9734 5.00531 14.6206L5.00531 18.7977L1.88672 18.7977C1.23953 18.7977 0.714844 19.3224 0.714844 19.9696L0.714844 34.9289C0.714844 37.7252 2.98984 40.0002 5.78617 40.0002L16.7848 40.0002C19.5811 40.0002 21.8561 37.7252 21.8561 34.9289L21.8561 21.1414L26.2141 21.1414C29.0105 21.1414 31.2855 18.8664 31.2855 16.07L31.2855 5.07145C31.2855 2.27512 29.0105 0.000122204 26.2141 0.000122191V0.000122191ZM11.2855 7.18559C12.2173 9.1727 12.987 11.0874 12.987 11.6781C12.987 12.6163 12.2237 13.3795 11.2855 13.3795C10.3473 13.3795 9.58398 12.6162 9.58398 11.6781C9.58398 11.0874 10.3537 9.17262 11.2855 7.18559ZM7.34906 15.7925L15.2219 15.7925L15.2219 18.7977L7.34906 18.7977L7.34906 15.7925ZM19.5123 34.9288C19.5123 36.4328 18.2887 37.6564 16.7848 37.6564L5.78617 37.6564C4.28219 37.6564 3.05859 36.4328 3.05859 34.9288L3.05859 21.1414L19.5123 21.1414L19.5123 34.9288ZM19.5123 18.7976L17.5656 18.7976L17.5656 15.7924L19.5123 15.7924L19.5123 18.7976ZM28.9417 16.07C28.9417 17.574 27.7181 18.7976 26.2141 18.7976L21.8561 18.7976L21.8561 2.34387L26.2141 2.34387C27.7181 2.34387 28.9417 3.56747 28.9417 5.07145L28.9417 16.07Z" fill="url(#paint0_linear)"/>
<path d="M7.74219 25.8817L14.8278 25.8817C15.475 25.8817 15.9997 25.357 15.9997 24.7098C15.9997 24.0627 15.475 23.538 14.8278 23.538L7.74219 23.538C7.095 23.538 6.57031 24.0627 6.57031 24.7098C6.57031 25.357 7.095 25.8817 7.74219 25.8817Z" fill="url(#paint1_linear)"/>
<defs>
<linearGradient id="paint0_linear" x1="16.0002" y1="0.000122143" x2="16.0002" y2="40.0002" gradientUnits="userSpaceOnUse">
<stop stop-color="#FF9FC8"/>
<stop offset="1" stop-color="#FF579E"/>
</linearGradient>
<linearGradient id="paint1_linear" x1="11.285" y1="23.538" x2="11.285" y2="25.8817" gradientUnits="userSpaceOnUse">
<stop stop-color="#FF9FC8"/>
<stop offset="1" stop-color="#FF579E"/>
</linearGradient>
</defs>
</svg>
