<svg width="230" height="230" viewBox="0 0 38 38" fill="none" xmlns="http://www.w3.org/2000/svg">
<path d="M25.7355 15.1042L22.0879 14.8398L20.7114 11.4566C20.4236 10.7567 19.7547 10.3056 19.0003 10.3056C18.2459 10.3056 17.5771 10.7567 17.2893 11.4566L15.9127 14.8398L12.2652 15.1042C11.5108 15.1586 10.8808 15.6564 10.6475 16.3719C10.4142 17.0874 10.6397 17.8651 11.2152 18.3551L14.0073 20.7116L13.1362 24.2581C12.9962 24.8103 13.1207 25.3858 13.4707 25.8291C13.8206 26.2802 14.3651 26.5446 14.925 26.5446C15.2672 26.5446 15.6016 26.4513 15.8972 26.2646L19.0003 24.3359L22.1035 26.2646C22.399 26.4513 22.7335 26.5446 23.0757 26.5446C23.6356 26.5446 24.18 26.2802 24.53 25.8291C24.88 25.3858 25.0044 24.8103 24.8644 24.2581L23.9934 20.7116L26.7854 18.3551C27.361 17.8729 27.5865 17.0952 27.3532 16.3719C27.1199 15.6564 26.4821 15.1586 25.7355 15.1042ZM22.3135 19.6384C22.0335 19.8717 21.9168 20.245 22.0024 20.595L22.9823 24.5692L19.5059 22.4071C19.1948 22.2127 18.8059 22.2127 18.5026 22.4071L15.0184 24.5847L16.0061 20.5872C16.0916 20.2372 15.975 19.8639 15.695 19.6306L12.5607 16.9863L16.6438 16.6908C17.0016 16.6674 17.3204 16.4341 17.4604 16.0997L19.0003 12.3121L20.548 16.1075C20.688 16.4419 20.9991 16.6752 21.3646 16.6985L25.4477 16.9941L22.3135 19.6384Z" fill="white"/>
<path d="M25.7355 15.1042L22.0879 14.8398L20.7114 11.4566C20.4236 10.7567 19.7547 10.3056 19.0003 10.3056C18.2459 10.3056 17.5771 10.7567 17.2893 11.4566L15.9127 14.8398L12.2652 15.1042C11.5108 15.1586 10.8808 15.6564 10.6475 16.3719C10.4142 17.0874 10.6397 17.8651 11.2152 18.3551L14.0073 20.7116L13.1362 24.2581C12.9962 24.8103 13.1207 25.3858 13.4707 25.8291C13.8206 26.2802 14.3651 26.5446 14.925 26.5446C15.2672 26.5446 15.6016 26.4513 15.8972 26.2646L19.0003 24.3359L22.1035 26.2646C22.399 26.4513 22.7335 26.5446 23.0757 26.5446C23.6356 26.5446 24.18 26.2802 24.53 25.8291C24.88 25.3858 25.0044 24.8103 24.8644 24.2581L23.9934 20.7116L26.7854 18.3551C27.361 17.8729 27.5865 17.0952 27.3532 16.3719C27.1199 15.6564 26.4821 15.1586 25.7355 15.1042ZM22.3135 19.6384C22.0335 19.8717 21.9168 20.245 22.0024 20.595L22.9823 24.5692L19.5059 22.4071C19.1948 22.2127 18.8059 22.2127 18.5026 22.4071L15.0184 24.5847L16.0061 20.5872C16.0916 20.2372 15.975 19.8639 15.695 19.6306L12.5607 16.9863L16.6438 16.6908C17.0016 16.6674 17.3204 16.4341 17.4604 16.0997L19.0003 12.3121L20.548 16.1075C20.688 16.4419 20.9991 16.6752 21.3646 16.6985L25.4477 16.9941L22.3135 19.6384Z" fill="url(#paint0_linear)"/>
<path d="M36.3285 19.6072C36.0096 19.1717 36.0018 18.5729 36.3207 18.1296L36.9817 17.1885C37.5028 16.4496 37.6895 15.5164 37.4795 14.6298C37.2695 13.7431 36.694 12.9887 35.8929 12.561L34.8819 12.0166C34.3997 11.7599 34.143 11.2311 34.2286 10.6944L34.423 9.55894C34.5708 8.66455 34.3297 7.74682 33.7619 7.03909C33.1864 6.33135 32.3387 5.9036 31.4365 5.86471L30.2777 5.82583C29.7333 5.80249 29.2666 5.43696 29.1189 4.91588L28.8 3.8115C28.4111 2.46602 27.159 1.52497 25.7513 1.52497C25.3235 1.52497 24.8958 1.61052 24.4991 1.78162L23.4414 2.2327C22.9515 2.44269 22.3526 2.31048 22.0026 1.91383L21.2327 1.05833C20.6338 0.389477 19.7705 0.000610443 18.8761 0.000610439C17.9584 0.000610435 17.0874 0.397254 16.4807 1.08944L15.7341 1.96827C15.3841 2.37269 14.793 2.51269 14.2953 2.31048L13.2298 1.87495C12.8409 1.7194 12.4365 1.63385 12.0243 1.63385C10.6011 1.63385 9.34114 2.59046 8.96783 3.96705L8.66451 5.07142C8.52452 5.59251 8.05788 5.96582 7.52124 5.99693L6.37798 6.06692C5.46803 6.12136 4.62808 6.55689 4.06811 7.27241C3.50815 7.98792 3.2826 8.90565 3.44593 9.80004L3.65592 10.9277C3.75702 11.4644 3.50037 12.001 3.02595 12.2654L2.02268 12.8254C1.22939 13.2687 0.661646 14.0309 0.467213 14.9175C0.27278 15.8041 0.467213 16.7374 1.00385 17.4685L1.68048 18.394C1.99935 18.8295 2.00712 19.4284 1.68825 19.8717L1.02718 20.8127C0.5061 21.5516 0.319444 22.4848 0.529432 23.3715C0.739419 24.2581 1.31494 25.0047 2.11601 25.4402L3.12706 25.9846C3.60925 26.2413 3.8659 26.7702 3.78035 27.3068L3.58592 28.4423C3.43815 29.3367 3.67925 30.2544 4.24699 30.9621C4.82251 31.6699 5.67024 32.0976 6.57241 32.1365L7.72346 32.1832C8.26787 32.2065 8.73451 32.572 8.88228 33.0931L9.20115 34.1975C9.59001 35.543 10.8422 36.484 12.2499 36.484C12.6776 36.484 13.1054 36.3985 13.502 36.2274L14.5597 35.7763C15.0497 35.5663 15.6485 35.6985 15.9985 36.0952L16.7685 36.9507C17.3673 37.6195 18.2306 38.0006 19.125 38.0006C20.0427 38.0006 20.9138 37.604 21.5204 36.9118L22.267 36.0329C22.617 35.6285 23.2081 35.4885 23.7059 35.6907L24.7713 36.1263C25.1602 36.2818 25.5646 36.3674 25.9768 36.3674C27.4001 36.3674 28.66 35.4108 29.0333 34.0342L29.3366 32.9298C29.4766 32.4087 29.9433 32.0354 30.4799 32.0043L31.6232 31.9421C32.5331 31.8876 33.3731 31.4521 33.933 30.7366C34.493 30.0211 34.7185 29.1034 34.5552 28.209L34.3452 27.0812C34.2441 26.5446 34.5008 26.008 34.9752 25.7513L35.9785 25.1914C36.7718 24.7481 37.3395 23.9859 37.5339 23.0993C37.7284 22.2126 37.5339 21.2794 36.9973 20.5483L36.3285 19.6072ZM35.6829 22.6793C35.6052 23.037 35.3796 23.3326 35.0607 23.5115L34.0575 24.0714C32.8675 24.7325 32.2298 26.078 32.4787 27.4157L32.6887 28.5434C32.7587 28.9011 32.6653 29.2667 32.4398 29.5544C32.2142 29.8422 31.8876 30.0133 31.5221 30.0366L30.3788 30.0989C29.0178 30.1766 27.8667 31.1099 27.5012 32.4243L27.1979 33.5286C27.0501 34.0808 26.5446 34.4619 25.9768 34.4619C25.8135 34.4619 25.6502 34.4308 25.4946 34.3686L24.4291 33.9331C24.0403 33.7775 23.6359 33.692 23.2237 33.692C22.3059 33.692 21.4349 34.0886 20.8282 34.7808L20.0738 35.6441C19.8328 35.9241 19.4905 36.0796 19.1172 36.0796C18.7517 36.0796 18.4173 35.9318 18.1762 35.6596L17.4062 34.8041C16.8074 34.1353 15.9441 33.7464 15.0419 33.7464C14.6064 33.7464 14.1864 33.832 13.7898 34.0031L12.7321 34.4542C12.5687 34.5241 12.4054 34.5553 12.2343 34.5553C11.6743 34.5553 11.1766 34.1819 11.021 33.6453L10.7022 32.5409C10.3211 31.2343 9.15448 30.3166 7.79345 30.2544L6.64241 30.2077C6.27687 30.1922 5.94245 30.0289 5.71691 29.7411C5.48359 29.4533 5.39026 29.0956 5.45248 28.7378L5.63913 27.6023C5.86468 26.2569 5.21138 24.9269 4.0059 24.2814L2.99484 23.737C2.6682 23.5659 2.44265 23.2704 2.36488 22.9126C2.27933 22.5548 2.34933 22.1893 2.55931 21.8938L3.22039 20.9527C4.0059 19.8406 3.99812 18.3551 3.18928 17.2507L2.51265 16.3252C2.29488 16.0297 2.21711 15.6641 2.30266 15.3064C2.38043 14.9486 2.60598 14.6531 2.92485 14.4742L3.92812 13.9142C5.11805 13.2532 5.75579 11.9077 5.50692 10.57L5.31249 9.45784C5.24249 9.0923 5.33582 8.73454 5.56136 8.44678C5.7869 8.15902 6.11355 7.98792 6.47908 7.96459L7.62235 7.89459C8.98338 7.81682 10.1344 6.88354 10.5 5.56917L10.8033 4.46479C10.951 3.9126 11.4566 3.53152 12.0243 3.53152C12.1876 3.53152 12.351 3.56262 12.5065 3.62484L13.572 4.06037C13.9609 4.21592 14.3653 4.30147 14.7775 4.30147C15.6952 4.30147 16.5663 3.90483 17.1729 3.21264L17.9273 2.34936C18.1684 2.06938 18.5106 1.91383 18.8839 1.91383C19.2495 1.91383 19.5839 2.0616 19.825 2.33381L20.5949 3.18931C21.1938 3.85816 22.0571 4.24703 22.9592 4.24703C23.3948 4.24703 23.8147 4.16148 24.2114 3.99038L25.2691 3.53929C25.4324 3.4693 25.5957 3.43819 25.7668 3.43819C26.3268 3.43819 26.8246 3.8115 26.9801 4.34813L27.299 5.45251C27.6801 6.7591 28.8467 7.67683 30.2077 7.73905L31.3587 7.78571C31.7243 7.80127 32.0587 7.96459 32.2842 8.25235C32.5176 8.54011 32.6109 8.89787 32.5487 9.25562L32.362 10.3911C32.1365 11.7366 32.7898 13.0665 33.9953 13.712L35.0063 14.2564C35.333 14.4275 35.5585 14.7231 35.644 15.0808C35.7296 15.4386 35.6596 15.8041 35.4496 16.0997L34.7885 17.0407C34.003 18.1529 34.0108 19.6384 34.8197 20.7427L35.4963 21.6682C35.6829 21.956 35.7607 22.3137 35.6829 22.6793Z" fill="white"/>
<path d="M36.3285 19.6072C36.0096 19.1717 36.0018 18.5729 36.3207 18.1296L36.9817 17.1885C37.5028 16.4496 37.6895 15.5164 37.4795 14.6298C37.2695 13.7431 36.694 12.9887 35.8929 12.561L34.8819 12.0166C34.3997 11.7599 34.143 11.2311 34.2286 10.6944L34.423 9.55894C34.5708 8.66455 34.3297 7.74682 33.7619 7.03909C33.1864 6.33135 32.3387 5.9036 31.4365 5.86471L30.2777 5.82583C29.7333 5.80249 29.2666 5.43696 29.1189 4.91588L28.8 3.8115C28.4111 2.46602 27.159 1.52497 25.7513 1.52497C25.3235 1.52497 24.8958 1.61052 24.4991 1.78162L23.4414 2.2327C22.9515 2.44269 22.3526 2.31048 22.0026 1.91383L21.2327 1.05833C20.6338 0.389477 19.7705 0.000610443 18.8761 0.000610439C17.9584 0.000610435 17.0874 0.397254 16.4807 1.08944L15.7341 1.96827C15.3841 2.37269 14.793 2.51269 14.2953 2.31048L13.2298 1.87495C12.8409 1.7194 12.4365 1.63385 12.0243 1.63385C10.6011 1.63385 9.34114 2.59046 8.96783 3.96705L8.66451 5.07142C8.52452 5.59251 8.05788 5.96582 7.52124 5.99693L6.37798 6.06692C5.46803 6.12136 4.62808 6.55689 4.06811 7.27241C3.50815 7.98792 3.2826 8.90565 3.44593 9.80004L3.65592 10.9277C3.75702 11.4644 3.50037 12.001 3.02595 12.2654L2.02268 12.8254C1.22939 13.2687 0.661646 14.0309 0.467213 14.9175C0.27278 15.8041 0.467213 16.7374 1.00385 17.4685L1.68048 18.394C1.99935 18.8295 2.00712 19.4284 1.68825 19.8717L1.02718 20.8127C0.5061 21.5516 0.319444 22.4848 0.529432 23.3715C0.739419 24.2581 1.31494 25.0047 2.11601 25.4402L3.12706 25.9846C3.60925 26.2413 3.8659 26.7702 3.78035 27.3068L3.58592 28.4423C3.43815 29.3367 3.67925 30.2544 4.24699 30.9621C4.82251 31.6699 5.67024 32.0976 6.57241 32.1365L7.72346 32.1832C8.26787 32.2065 8.73451 32.572 8.88228 33.0931L9.20115 34.1975C9.59001 35.543 10.8422 36.484 12.2499 36.484C12.6776 36.484 13.1054 36.3985 13.502 36.2274L14.5597 35.7763C15.0497 35.5663 15.6485 35.6985 15.9985 36.0952L16.7685 36.9507C17.3673 37.6195 18.2306 38.0006 19.125 38.0006C20.0427 38.0006 20.9138 37.604 21.5204 36.9118L22.267 36.0329C22.617 35.6285 23.2081 35.4885 23.7059 35.6907L24.7713 36.1263C25.1602 36.2818 25.5646 36.3674 25.9768 36.3674C27.4001 36.3674 28.66 35.4108 29.0333 34.0342L29.3366 32.9298C29.4766 32.4087 29.9433 32.0354 30.4799 32.0043L31.6232 31.9421C32.5331 31.8876 33.3731 31.4521 33.933 30.7366C34.493 30.0211 34.7185 29.1034 34.5552 28.209L34.3452 27.0812C34.2441 26.5446 34.5008 26.008 34.9752 25.7513L35.9785 25.1914C36.7718 24.7481 37.3395 23.9859 37.5339 23.0993C37.7284 22.2126 37.5339 21.2794 36.9973 20.5483L36.3285 19.6072ZM35.6829 22.6793C35.6052 23.037 35.3796 23.3326 35.0607 23.5115L34.0575 24.0714C32.8675 24.7325 32.2298 26.078 32.4787 27.4157L32.6887 28.5434C32.7587 28.9011 32.6653 29.2667 32.4398 29.5544C32.2142 29.8422 31.8876 30.0133 31.5221 30.0366L30.3788 30.0989C29.0178 30.1766 27.8667 31.1099 27.5012 32.4243L27.1979 33.5286C27.0501 34.0808 26.5446 34.4619 25.9768 34.4619C25.8135 34.4619 25.6502 34.4308 25.4946 34.3686L24.4291 33.9331C24.0403 33.7775 23.6359 33.692 23.2237 33.692C22.3059 33.692 21.4349 34.0886 20.8282 34.7808L20.0738 35.6441C19.8328 35.9241 19.4905 36.0796 19.1172 36.0796C18.7517 36.0796 18.4173 35.9318 18.1762 35.6596L17.4062 34.8041C16.8074 34.1353 15.9441 33.7464 15.0419 33.7464C14.6064 33.7464 14.1864 33.832 13.7898 34.0031L12.7321 34.4542C12.5687 34.5241 12.4054 34.5553 12.2343 34.5553C11.6743 34.5553 11.1766 34.1819 11.021 33.6453L10.7022 32.5409C10.3211 31.2343 9.15448 30.3166 7.79345 30.2544L6.64241 30.2077C6.27687 30.1922 5.94245 30.0289 5.71691 29.7411C5.48359 29.4533 5.39026 29.0956 5.45248 28.7378L5.63913 27.6023C5.86468 26.2569 5.21138 24.9269 4.0059 24.2814L2.99484 23.737C2.6682 23.5659 2.44265 23.2704 2.36488 22.9126C2.27933 22.5548 2.34933 22.1893 2.55931 21.8938L3.22039 20.9527C4.0059 19.8406 3.99812 18.3551 3.18928 17.2507L2.51265 16.3252C2.29488 16.0297 2.21711 15.6641 2.30266 15.3064C2.38043 14.9486 2.60598 14.6531 2.92485 14.4742L3.92812 13.9142C5.11805 13.2532 5.75579 11.9077 5.50692 10.57L5.31249 9.45784C5.24249 9.0923 5.33582 8.73454 5.56136 8.44678C5.7869 8.15902 6.11355 7.98792 6.47908 7.96459L7.62235 7.89459C8.98338 7.81682 10.1344 6.88354 10.5 5.56917L10.8033 4.46479C10.951 3.9126 11.4566 3.53152 12.0243 3.53152C12.1876 3.53152 12.351 3.56262 12.5065 3.62484L13.572 4.06037C13.9609 4.21592 14.3653 4.30147 14.7775 4.30147C15.6952 4.30147 16.5663 3.90483 17.1729 3.21264L17.9273 2.34936C18.1684 2.06938 18.5106 1.91383 18.8839 1.91383C19.2495 1.91383 19.5839 2.0616 19.825 2.33381L20.5949 3.18931C21.1938 3.85816 22.0571 4.24703 22.9592 4.24703C23.3948 4.24703 23.8147 4.16148 24.2114 3.99038L25.2691 3.53929C25.4324 3.4693 25.5957 3.43819 25.7668 3.43819C26.3268 3.43819 26.8246 3.8115 26.9801 4.34813L27.299 5.45251C27.6801 6.7591 28.8467 7.67683 30.2077 7.73905L31.3587 7.78571C31.7243 7.80127 32.0587 7.96459 32.2842 8.25235C32.5176 8.54011 32.6109 8.89787 32.5487 9.25562L32.362 10.3911C32.1365 11.7366 32.7898 13.0665 33.9953 13.712L35.0063 14.2564C35.333 14.4275 35.5585 14.7231 35.644 15.0808C35.7296 15.4386 35.6596 15.8041 35.4496 16.0997L34.7885 17.0407C34.003 18.1529 34.0108 19.6384 34.8197 20.7427L35.4963 21.6682C35.6829 21.956 35.7607 22.3137 35.6829 22.6793Z" fill="url(#paint1_linear)"/>
<defs>
<linearGradient id="paint0_linear" x1="19.0003" y1="10.3056" x2="19.0003" y2="26.5446" gradientUnits="userSpaceOnUse">
<stop stop-color="#FF9FC8"/>
<stop offset="1" stop-color="#FF579E"/>
</linearGradient>
<linearGradient id="paint1_linear" x1="19.0006" y1="0.000610439" x2="19.0006" y2="38.0006" gradientUnits="userSpaceOnUse">
<stop stop-color="#FF9FC8"/>
<stop offset="1" stop-color="#FF579E"/>
</linearGradient>
</defs>
</svg>
