<svg width="230" height="230" viewBox="0 0 34 34" fill="none" xmlns="http://www.w3.org/2000/svg">
<path d="M6.62238 33.0091C8.52093 34.9079 12.0171 33.7061 14.4329 32.51C17.6891 30.8973 21.3472 28.1446 24.7329 24.7587C24.737 24.7548 24.7409 24.7506 24.7451 24.7465L24.7477 24.7439L24.7513 24.7402C28.1302 21.3582 30.8806 17.7025 32.4977 14.4444C34.307 10.7983 34.4847 8.092 33.0108 6.61835L27.3756 0.983167C26.4164 0.023909 24.3936 -0.719529 20.2056 1.18757C17.2842 2.51803 13.9136 4.87986 10.7144 7.83805L9.95385 8.54128L16.9994 15.5868L17.7029 14.9365C19.7335 13.0587 21.8496 11.4136 23.8133 10.1693C22.2725 12.6336 20.1594 15.2434 17.6886 17.7142C15.2223 20.1805 12.6192 22.2884 10.1629 23.824C11.4101 21.8503 13.0586 19.7281 14.9385 17.6986L15.5898 16.9951L8.54428 9.94956L7.84104 10.7091C4.87585 13.9106 2.51116 17.283 1.18226 20.2052C-0.720435 24.389 0.0258577 26.4126 0.986673 27.3737L6.62238 33.0091ZM19.1119 19.1084C20.2774 17.9432 22.1734 17.9429 23.3389 19.1084C24.5028 20.2723 24.5038 22.1654 23.3428 23.3309C23.3404 23.3333 23.3381 23.3356 23.336 23.3379C22.1703 24.5003 20.2764 24.4995 19.1122 23.3351C17.9439 22.167 17.9439 20.2765 19.1119 19.1084ZM17.0598 12.8294L12.8355 8.60509C15.6448 6.11512 18.527 4.14135 21.0312 3.00103C23.3811 1.93075 25.2722 1.69755 25.9663 2.3917C26.4999 2.92529 26.6231 4.38363 25.5375 6.92782C22.9827 8.14258 19.9519 10.2536 17.0598 12.8294ZM26.862 8.80898C27.6283 7.26504 28.1007 5.89022 28.2802 4.70555L31.602 8.02741C32.2018 8.62688 32.283 10.3949 30.7128 13.5588C29.6555 15.6893 28.0711 18.0125 26.1209 20.3157C25.9448 19.3567 25.4877 18.4397 24.7477 17.6996C23.909 16.8607 22.8429 16.3853 21.7461 16.2709C23.9191 13.7451 25.689 11.1724 26.862 8.80898ZM16.272 21.7483C16.3903 22.8798 16.8876 23.9286 17.7031 24.7441C18.4443 25.4852 19.3628 25.9426 20.3231 26.1179C18.0126 28.0777 15.6827 29.6675 13.5483 30.7243C10.911 32.0304 8.79693 32.3661 8.03118 31.6003L4.71295 28.2821C5.89295 28.1039 7.26129 27.6349 8.79719 26.8743C11.1629 25.7029 13.7408 23.9288 16.272 21.7483ZM2.99598 21.0301C4.135 18.5253 6.11137 15.6413 8.60705 12.8302L12.8314 17.0545C10.2597 19.9388 8.14791 22.9735 6.92874 25.542C4.75704 26.4626 3.06368 26.6326 2.39573 25.9649C1.69898 25.2679 1.92881 23.3768 2.99598 21.0301Z" fill="url(#paint0_linear)"/>
<path d="M26.9933 14.0438L28.4021 15.4526L26.9933 16.8617L25.5845 15.4526L26.9933 14.0438Z" fill="url(#paint1_linear)"/>
<path d="M15.4864 25.5533L16.8955 26.9621L15.4864 28.3709L14.0776 26.9621L15.4864 25.5533Z" fill="url(#paint2_linear)"/>
<path d="M11.2596 26.9622L12.6684 28.371L11.2596 29.7797L9.85059 28.371L11.2596 26.9622Z" fill="url(#paint3_linear)"/>
<path d="M28.4015 9.81744L29.8103 11.2262L28.4015 12.6353L26.9927 11.2262L28.4015 9.81744Z" fill="url(#paint4_linear)"/>
<defs>
<linearGradient id="paint0_linear" x1="17" y1="0.00115975" x2="17" y2="34.0011" gradientUnits="userSpaceOnUse">
<stop stop-color="#FF9FC8"/>
<stop offset="1" stop-color="#FF579E"/>
</linearGradient>
<linearGradient id="paint1_linear" x1="26.9933" y1="14.0438" x2="26.9933" y2="16.8617" gradientUnits="userSpaceOnUse">
<stop stop-color="#FF9FC8"/>
<stop offset="1" stop-color="#FF579E"/>
</linearGradient>
<linearGradient id="paint2_linear" x1="15.4866" y1="25.5533" x2="15.4866" y2="28.3709" gradientUnits="userSpaceOnUse">
<stop stop-color="#FF9FC8"/>
<stop offset="1" stop-color="#FF579E"/>
</linearGradient>
<linearGradient id="paint3_linear" x1="11.2595" y1="26.9622" x2="11.2595" y2="29.7797" gradientUnits="userSpaceOnUse">
<stop stop-color="#FF9FC8"/>
<stop offset="1" stop-color="#FF579E"/>
</linearGradient>
<linearGradient id="paint4_linear" x1="28.4015" y1="9.81744" x2="28.4015" y2="12.6353" gradientUnits="userSpaceOnUse">
<stop stop-color="#FF9FC8"/>
<stop offset="1" stop-color="#FF579E"/>
</linearGradient>
</defs>
</svg>
