<svg width="230" height="230" viewBox="0 0 29 35" fill="none" xmlns="http://www.w3.org/2000/svg">
<path d="M23.6289 4.40084C23.6546 4.31433 23.6813 4.22276 23.702 4.13121C23.929 3.12762 23.8531 2.39964 23.4593 1.89875C23.2629 1.64527 22.8803 1.33852 22.2169 1.3397C22.1274 1.33986 22.0319 1.3456 21.9364 1.35639L7.84541 1.38152C7.7499 1.37108 7.65439 1.36568 7.56489 1.36584C6.90141 1.36703 6.51999 1.67513 6.32449 1.92932C5.93247 2.43161 5.85916 3.15986 6.08975 4.16263C6.11079 4.25411 6.13782 4.34558 6.16382 4.432C3.36426 5.28899 1.32684 7.93002 1.33241 11.0528L1.36442 28.9917L5.43873 28.9845L5.44858 34.507L24.4514 34.4731L24.4416 28.9506L28.5159 28.9433L28.4839 11.0044C28.4783 7.88158 26.4315 5.24784 23.6289 4.40084ZM22.0125 2.73715L22.0552 2.73707L22.0552 2.7315C22.1079 2.7208 22.1666 2.72069 22.2193 2.7206C22.289 2.72047 22.3735 2.73094 22.4005 2.7582C22.4054 2.76881 22.565 2.98443 22.3805 3.82058C22.039 5.31534 20.3376 6.19212 18.9637 6.6638C18.254 6.90777 17.554 7.07082 16.9971 7.17951C18.2077 4.98239 20.7396 2.94976 22.0125 2.73715ZM19.1159 2.74231C18.8407 2.95315 18.5656 3.18573 18.2895 3.43398C16.9449 4.66104 15.902 6.09738 15.3742 7.43573L14.4292 7.43742C13.8967 6.10096 12.8487 4.66834 11.4997 3.44609C11.2227 3.19883 10.9468 2.96723 10.6709 2.75738L19.1159 2.74231ZM7.38637 2.78499C7.41318 2.75762 7.49274 2.74687 7.56735 2.74674L7.56738 2.76292L7.77428 2.76255C9.04787 2.97062 11.587 4.9942 12.8054 7.18699C12.2542 7.08028 11.5636 6.92476 10.8579 6.68331C9.4774 6.21654 7.75699 5.34587 7.41016 3.84728C7.21768 3.01181 7.38142 2.79561 7.38637 2.78499ZM27.1556 27.5654L24.4391 27.5702L24.412 12.3925L23.0543 12.395L23.0912 33.0952L6.80388 33.1242L6.76695 12.424L5.40919 12.4264L5.43627 27.6041L2.71972 27.6089L2.69018 11.0504C2.68755 9.57799 3.25306 8.19104 4.27474 7.14306C4.98467 6.41872 5.85912 5.92114 6.81362 5.68229C7.07985 6.03779 7.40867 6.36586 7.80709 6.66752C8.49238 7.18912 9.37451 7.6406 10.4305 7.99468C11.0516 8.20392 11.6616 8.35959 12.187 8.47191L12.1965 13.7952C12.1972 14.178 12.5061 14.4849 12.8771 14.4842C13.2541 14.4835 13.556 14.1756 13.5553 13.7928L13.5464 8.81989L16.262 8.81504L16.2708 13.788C16.2715 14.1707 16.5745 14.4776 16.9515 14.4769C17.3225 14.4763 17.6303 14.1683 17.6296 13.7855L17.6201 8.46222C18.1451 8.34802 18.7546 8.19018 19.3749 7.97873C20.4296 7.62088 21.3102 7.16625 21.9936 6.64222C22.3909 6.33913 22.7186 6.00989 22.9835 5.65345C23.9389 5.88888 24.8151 6.38334 25.5276 7.10514C26.553 8.14947 27.1235 9.5344 27.1261 11.0068L27.1556 27.5654Z" fill="url(#paint0_linear)"/>
<path fill-rule="evenodd" clip-rule="evenodd" d="M5.99124 1.6624C6.25449 1.32074 6.752 0.935985 7.56412 0.934536C7.66265 0.93436 7.76524 0.939831 7.86694 0.950176L21.9133 0.925118C22.015 0.91441 22.1176 0.908574 22.2161 0.908398C23.0282 0.906949 23.5271 1.28995 23.7916 1.63067C24.287 2.26181 24.3492 3.11428 24.1394 4.11764C26.9147 5.13529 28.9025 7.8313 28.9081 11.0036L28.9409 29.3739L24.8666 29.3811L24.8764 34.9037L5.02511 34.9391L5.01526 29.4165L0.940945 29.4238L0.90817 11.0536C0.90251 7.88125 2.88063 5.17817 5.65225 4.15062C5.43885 3.148 5.49802 2.29531 5.99124 1.6624ZM7.56565 1.79715C7.0518 1.79807 6.78669 2.0286 6.65871 2.195L6.65684 2.19743C6.38485 2.54593 6.28336 3.10991 6.50284 4.06443C6.52028 4.14024 6.54343 4.21919 6.56951 4.30587L6.69414 4.7201L6.28616 4.84499C3.66081 5.64865 1.75143 8.12541 1.75665 11.0521L1.78789 28.5597L5.8622 28.5524L5.87205 34.075L24.0264 34.0426L24.0166 28.52L28.0909 28.5128L28.0596 11.0051C28.0544 8.07848 26.1362 5.60855 23.508 4.81427L23.0996 4.69084L23.2227 4.27616C23.2485 4.1894 23.2714 4.11038 23.2885 4.03453C23.5046 3.0792 23.4011 2.51557 23.1279 2.16804L23.126 2.16563C22.9974 1.99968 22.7315 1.77009 22.2176 1.77101C22.1449 1.77114 22.0648 1.77584 21.9833 1.78505L21.9603 1.78765L7.82305 1.81287L7.80006 1.81036C7.7185 1.80144 7.63844 1.79702 7.56565 1.79715ZM22.0445 3.16946C21.8016 3.21756 21.4695 3.35411 21.0738 3.58578C20.6641 3.82555 20.2111 4.15254 19.7551 4.54377C19.0949 5.11012 18.4434 5.79826 17.916 6.52922C18.2109 6.45201 18.5188 6.36143 18.8278 6.25521C19.4944 6.02637 20.22 5.70561 20.8125 5.27498C21.4061 4.84354 21.8279 4.33044 21.9669 3.72445C22.023 3.46953 22.0415 3.29024 22.0445 3.16946ZM22.2102 2.2893C22.2132 2.2893 22.216 2.2893 22.2186 2.28929C22.2713 2.2892 22.336 2.29287 22.4002 2.30449C22.4322 2.31028 22.4737 2.31973 22.5177 2.33628C22.5553 2.35039 22.6308 2.38271 22.6999 2.45269L22.7517 2.50517L22.7832 2.57222C22.747 2.49518 22.8056 2.61342 22.8228 2.6602C22.849 2.7316 22.871 2.82077 22.8832 2.93225C22.9073 3.15294 22.8935 3.46578 22.7944 3.91502L22.7937 3.91818C22.5908 4.80631 21.9914 5.4785 21.306 5.97671C20.6189 6.47608 19.8068 6.8296 19.0995 7.07244C18.3654 7.32476 17.6453 7.49219 17.0771 7.60309L16.1811 7.77799L16.627 6.96871C17.2631 5.81421 18.236 4.71828 19.2078 3.88451C19.6952 3.46636 20.1895 3.10801 20.6504 2.83821C20.9875 2.64089 21.3211 2.48243 21.6304 2.38711L21.6304 2.378L21.7401 2.35569C21.8095 2.33743 21.8774 2.32262 21.9437 2.31155L21.9775 2.3059L21.9859 2.30589C22.0761 2.28929 22.1649 2.28929 22.2102 2.2893ZM7.99091 2.36666L7.99082 2.31467L7.56658 2.31543C7.5126 2.31553 7.44702 2.31926 7.38173 2.33154C7.34913 2.33767 7.30723 2.34765 7.26284 2.36505C7.22331 2.38054 7.1517 2.41334 7.08584 2.48054L7.03421 2.53321L7.00292 2.60042C7.04754 2.50459 6.97745 2.64976 6.96445 2.68448C6.93745 2.75659 6.9149 2.84663 6.90259 2.95909C6.87823 3.18165 6.89349 3.49591 6.9971 3.94561C7.20332 4.83669 7.81021 5.50859 8.50185 6.00466C9.19502 6.50181 10.0132 6.85219 10.7233 7.09233C11.4544 7.34241 12.1656 7.50219 12.7261 7.61069L13.6248 7.78466L13.1748 6.97487C12.5346 5.82265 11.5578 4.73019 10.583 3.8999C10.0941 3.48349 9.59859 3.1269 9.13671 2.85875C8.7383 2.62744 8.34494 2.45017 7.99091 2.36666ZM7.74152 3.19454C7.7449 3.31452 7.76438 3.49347 7.82316 3.74868C7.9638 4.35613 8.3906 4.86922 8.99094 5.2998C9.58958 5.72915 10.3215 6.04743 10.9918 6.27404L10.9932 6.27453C11.2956 6.37801 11.596 6.46538 11.8841 6.53973C11.354 5.81075 10.7002 5.12503 10.0381 4.5611C9.58069 4.17151 9.12647 3.84614 8.71599 3.60782C8.31818 3.37687 7.98478 3.24138 7.74152 3.19454ZM9.39862 2.32834L20.3866 2.30874L19.3712 3.08675C19.1074 3.28892 18.8414 3.51363 18.5717 3.75608C17.2638 4.94987 16.266 6.33351 15.768 7.59625L15.6614 7.86653L14.1436 7.86923L14.036 7.59934C13.5336 6.33835 12.5307 4.95824 11.2186 3.76911C10.948 3.52766 10.6812 3.30392 10.4167 3.10273L9.39862 2.32834ZM11.8504 3.18658C13.1158 4.34812 14.1303 5.69967 14.7089 7.00561L15.0931 7.00492C15.6669 5.69693 16.6766 4.34177 17.9378 3.17572L11.8504 3.18658ZM6.98251 5.19584L7.15115 5.42103C7.39121 5.74157 7.69088 6.04177 8.06048 6.32161L8.06133 6.32226C8.70217 6.81002 9.54083 7.24221 10.5634 7.58508C11.1661 7.78812 11.7608 7.94004 12.2743 8.04984L12.6106 8.12174L12.6208 13.7945C12.621 13.9364 12.737 14.0532 12.8764 14.0529C13.0193 14.0527 13.1313 13.9379 13.1311 13.7936L13.1214 8.38934L16.6854 8.38298L16.6951 13.7872C16.6953 13.9316 16.8078 14.0459 16.9507 14.0456C17.09 14.0454 17.2056 13.9282 17.2054 13.7863L17.1953 8.11356L17.5313 8.04046C18.0445 7.92883 18.6381 7.77498 19.24 7.56979C20.2613 7.22328 21.099 6.78791 21.7381 6.29786L21.739 6.29721C22.1076 6.01605 22.4062 5.71479 22.6451 5.39339L22.8129 5.1676L23.0835 5.23428C24.114 5.48825 25.0593 6.02189 25.8271 6.79963L25.8279 6.80044C26.9316 7.92457 27.5475 9.41841 27.5503 11.0061L27.5807 27.9959L24.0156 28.0023L23.9886 12.8246L23.4793 12.8255L23.5162 33.5257L6.38041 33.5563L6.34348 12.8561L5.8342 12.857L5.86128 28.0347L2.29625 28.041L2.26593 11.0512C2.2631 9.46352 2.87367 7.96748 3.97341 6.83943L3.97421 6.83861C4.73916 6.05814 5.68256 5.52113 6.7122 5.26348L6.98251 5.19584ZM6.65855 6.17267C5.87935 6.41295 5.1663 6.84462 4.57568 7.44707C3.63231 8.41493 3.112 9.69264 3.11442 11.0496L3.14319 27.1769L5.01125 27.1736L4.98417 11.9959L7.19042 11.992L7.22735 32.6922L22.6662 32.6646L22.6292 11.9644L24.8355 11.9605L24.8626 27.1381L26.7306 27.1348L26.7019 11.0076C26.6994 9.65067 26.1746 8.37491 25.228 7.41045C24.6352 6.80999 23.9205 6.3808 23.1403 6.14327C22.8863 6.44579 22.5898 6.72662 22.2487 6.98681C21.521 7.54474 20.5972 8.01872 19.5092 8.38785C19 8.56143 18.4992 8.69948 18.045 8.80748L18.0539 13.7848C18.055 14.4084 17.5549 14.9072 16.9522 14.9083C16.3411 14.9093 15.8477 14.4099 15.8466 13.7887L15.8385 9.24711L13.9714 9.25044L13.9795 13.7921C13.9807 14.4132 13.489 14.9144 12.8779 14.9155C12.2752 14.9166 11.7734 14.4196 11.7723 13.796L11.7634 8.81869C11.3088 8.71229 10.8074 8.57601 10.2975 8.40423C9.20832 8.03901 8.28292 7.56837 7.55327 7.01311C7.21128 6.75412 6.91367 6.47432 6.65855 6.17267Z" fill="url(#paint1_linear)"/>
<defs>
<linearGradient id="paint0_linear" x1="14.8901" y1="0.921467" x2="14.9508" y2="34.9214" gradientUnits="userSpaceOnUse">
<stop stop-color="#FF9FC8"/>
<stop offset="1" stop-color="#FF579E"/>
</linearGradient>
<linearGradient id="paint1_linear" x1="14.8901" y1="0.921467" x2="14.9508" y2="34.9214" gradientUnits="userSpaceOnUse">
<stop stop-color="#FF9FC8"/>
<stop offset="1" stop-color="#FF579E"/>
</linearGradient>
</defs>
</svg>
