<svg width="230" height="230" viewBox="0 0 34 32" fill="none" xmlns="http://www.w3.org/2000/svg">
<path d="M29.6011 8.68109L28.338 8.68109L28.338 5.78634C28.338 2.68108 25.8117 0.154785 22.7064 0.154785L13.0222 0.154785C10.0472 0.154785 7.60357 2.47357 7.40379 5.39874C7.39504 5.52682 7.3906 9.65607 7.3906 9.78634C7.3906 10.3677 7.86188 10.839 8.44323 10.839C9.02457 10.839 9.49586 10.3677 9.49586 9.78634C9.49586 9.65537 9.50303 5.52605 9.51702 5.39874C9.7106 3.636 11.2087 2.26005 13.0222 2.26005L22.7063 2.26005C24.6508 2.26005 26.2326 3.84192 26.2326 5.78634L26.2326 8.68109L8.81165 8.68109C8.2303 8.68109 7.75901 9.15238 7.75901 9.73372C7.75901 10.3151 8.2303 10.7864 8.81165 10.7864L26.2327 10.7864L26.2327 26.8916C26.2327 28.0525 25.2883 28.9969 24.1274 28.9969L14.8255 28.9969C15.1848 28.3772 15.3906 27.658 15.3906 26.8916L15.3906 26.4706L16.0748 26.4706C18.0193 26.4706 19.6011 24.8887 19.6011 22.9443C19.6011 20.9999 18.0193 19.418 16.0748 19.418L1.18007 19.418C0.598728 19.418 0.127441 19.8892 0.127441 20.4706L0.127441 26.8916C0.127441 29.2133 2.01628 31.1022 4.33796 31.1022L24.1274 31.1022C26.4491 31.1022 28.3379 29.2133 28.3379 26.8916L28.3379 23.9969L29.6011 23.9969C31.5455 23.9969 33.1274 22.415 33.1274 20.4706L33.1274 12.2074C33.1274 10.263 31.5456 8.68109 29.6011 8.68109ZM15.3906 21.5232L16.0748 21.5232C16.8584 21.5232 17.4959 22.1607 17.4959 22.9443C17.4959 23.7278 16.8584 24.3653 16.0748 24.3653L15.3906 24.3653L15.3906 21.5232ZM13.2853 26.8916C13.2853 28.0525 12.3409 28.9969 11.1801 28.9969L4.33796 28.9969C3.17712 28.9969 2.2327 28.0525 2.2327 26.8916L2.2327 21.5232L13.2853 21.5232L13.2853 26.8916ZM31.0222 20.4706C31.0222 21.2542 30.3847 21.8916 29.6011 21.8916L28.338 21.8916L28.338 10.7864L29.6011 10.7864C30.3847 10.7864 31.0222 11.4238 31.0222 12.2074L31.0222 20.4706Z" fill="white"/>
<path d="M29.6011 8.68109L28.338 8.68109L28.338 5.78634C28.338 2.68108 25.8117 0.154785 22.7064 0.154785L13.0222 0.154785C10.0472 0.154785 7.60357 2.47357 7.40379 5.39874C7.39504 5.52682 7.3906 9.65607 7.3906 9.78634C7.3906 10.3677 7.86188 10.839 8.44323 10.839C9.02457 10.839 9.49586 10.3677 9.49586 9.78634C9.49586 9.65537 9.50303 5.52605 9.51702 5.39874C9.7106 3.636 11.2087 2.26005 13.0222 2.26005L22.7063 2.26005C24.6508 2.26005 26.2326 3.84192 26.2326 5.78634L26.2326 8.68109L8.81165 8.68109C8.2303 8.68109 7.75901 9.15238 7.75901 9.73372C7.75901 10.3151 8.2303 10.7864 8.81165 10.7864L26.2327 10.7864L26.2327 26.8916C26.2327 28.0525 25.2883 28.9969 24.1274 28.9969L14.8255 28.9969C15.1848 28.3772 15.3906 27.658 15.3906 26.8916L15.3906 26.4706L16.0748 26.4706C18.0193 26.4706 19.6011 24.8887 19.6011 22.9443C19.6011 20.9999 18.0193 19.418 16.0748 19.418L1.18007 19.418C0.598728 19.418 0.127441 19.8892 0.127441 20.4706L0.127441 26.8916C0.127441 29.2133 2.01628 31.1022 4.33796 31.1022L24.1274 31.1022C26.4491 31.1022 28.3379 29.2133 28.3379 26.8916L28.3379 23.9969L29.6011 23.9969C31.5455 23.9969 33.1274 22.415 33.1274 20.4706L33.1274 12.2074C33.1274 10.263 31.5456 8.68109 29.6011 8.68109ZM15.3906 21.5232L16.0748 21.5232C16.8584 21.5232 17.4959 22.1607 17.4959 22.9443C17.4959 23.7278 16.8584 24.3653 16.0748 24.3653L15.3906 24.3653L15.3906 21.5232ZM13.2853 26.8916C13.2853 28.0525 12.3409 28.9969 11.1801 28.9969L4.33796 28.9969C3.17712 28.9969 2.2327 28.0525 2.2327 26.8916L2.2327 21.5232L13.2853 21.5232L13.2853 26.8916ZM31.0222 20.4706C31.0222 21.2542 30.3847 21.8916 29.6011 21.8916L28.338 21.8916L28.338 10.7864L29.6011 10.7864C30.3847 10.7864 31.0222 11.4238 31.0222 12.2074L31.0222 20.4706Z" fill="url(#paint0_linear)"/>
<path d="M8.44964 12.5755C7.8683 12.5755 7.39701 13.0468 7.39701 13.6281C7.39701 14.1695 7.08435 14.4996 6.53159 15.0364C5.97629 15.5757 5.28516 16.2469 5.28516 17.3124C5.28516 17.8937 5.75644 18.365 6.33779 18.365C6.91913 18.365 7.39042 17.8937 7.39042 17.3124C7.39042 17.137 7.69944 16.8369 7.99834 16.5466C8.63305 15.9302 9.50227 15.0859 9.50227 13.6281C9.50227 13.0468 9.03099 12.5755 8.44964 12.5755Z" fill="white"/>
<path d="M8.44964 12.5755C7.8683 12.5755 7.39701 13.0468 7.39701 13.6281C7.39701 14.1695 7.08435 14.4996 6.53159 15.0364C5.97629 15.5757 5.28516 16.2469 5.28516 17.3124C5.28516 17.8937 5.75644 18.365 6.33779 18.365C6.91913 18.365 7.39042 17.8937 7.39042 17.3124C7.39042 17.137 7.69944 16.8369 7.99834 16.5466C8.63305 15.9302 9.50227 15.0859 9.50227 13.6281C9.50227 13.0468 9.03099 12.5755 8.44964 12.5755Z" fill="url(#paint1_linear)"/>
<path d="M13.075 12.5755C12.4936 12.5755 12.0224 13.0468 12.0224 13.6281C12.0224 14.1778 11.7178 14.509 11.1794 15.0468C10.6405 15.5854 9.96973 16.2557 9.96973 17.3123C9.96973 17.8937 10.441 18.3649 11.0224 18.3649C11.6037 18.3649 12.075 17.8937 12.075 17.3123C12.075 17.1282 12.3628 16.8406 12.6676 16.5361C13.2837 15.9203 14.1276 15.0771 14.1276 13.6281C14.1276 13.0468 13.6563 12.5755 13.075 12.5755Z" fill="white"/>
<path d="M13.075 12.5755C12.4936 12.5755 12.0224 13.0468 12.0224 13.6281C12.0224 14.1778 11.7178 14.509 11.1794 15.0468C10.6405 15.5854 9.96973 16.2557 9.96973 17.3123C9.96973 17.8937 10.441 18.3649 11.0224 18.3649C11.6037 18.3649 12.075 17.8937 12.075 17.3123C12.075 17.1282 12.3628 16.8406 12.6676 16.5361C13.2837 15.9203 14.1276 15.0771 14.1276 13.6281C14.1276 13.0468 13.6563 12.5755 13.075 12.5755Z" fill="url(#paint2_linear)"/>
<defs>
<linearGradient id="paint0_linear" x1="16.6274" y1="0.154785" x2="16.6274" y2="31.1022" gradientUnits="userSpaceOnUse">
<stop stop-color="#FF9FC8"/>
<stop offset="1" stop-color="#FF579E"/>
</linearGradient>
<linearGradient id="paint1_linear" x1="7.39371" y1="12.5755" x2="7.39371" y2="18.365" gradientUnits="userSpaceOnUse">
<stop stop-color="#FF9FC8"/>
<stop offset="1" stop-color="#FF579E"/>
</linearGradient>
<linearGradient id="paint2_linear" x1="12.0487" y1="12.5755" x2="12.0487" y2="18.3649" gradientUnits="userSpaceOnUse">
<stop stop-color="#FF9FC8"/>
<stop offset="1" stop-color="#FF579E"/>
</linearGradient>
</defs>
</svg>
