<svg width="230" height="230" viewBox="0 0 30 34" fill="none" xmlns="http://www.w3.org/2000/svg">
<path d="M4.04297 34.0005L25.957 34.0005L25.957 30.0162L29.9414 30.0162L29.9414 16.0045L25.957 16.0045L25.957 6.97321C25.957 5.32547 24.6165 3.98492 22.9687 3.98492L19.9805 3.98492L19.9805 0.000549411L10.0195 0.000549363L10.0195 3.98492L7.03125 3.98492C5.38351 3.98492 4.04297 5.32547 4.04297 6.97321L4.04297 16.0045L0.0585937 16.0045L0.0585936 30.0162L4.04297 30.0162L4.04297 34.0005ZM25.957 28.024L25.957 21.981L27.9492 21.981L27.9492 28.024L25.957 28.024ZM27.9492 17.9966L27.9492 19.9888L25.957 19.9888L25.957 17.9966L27.9492 17.9966ZM12.0117 1.99274L17.9883 1.99274L17.9883 3.98492L12.0117 3.98492L12.0117 1.99274ZM6.03516 6.97321C6.03516 6.42396 6.482 5.97711 7.03125 5.97711L22.9687 5.97711C23.518 5.97711 23.9648 6.42396 23.9648 6.97321L23.9648 32.0084L6.03516 32.0084L6.03516 6.97321ZM4.04297 17.9966L4.04297 19.9888L2.05078 19.9888L2.05078 17.9966L4.04297 17.9966ZM2.05078 28.024L2.05078 21.981L4.04297 21.981L4.04297 28.024L2.05078 28.024Z" fill="url(#paint0_linear)"/>
<path d="M8.02734 30.0162L21.9727 30.0162L21.9727 16.0045L8.02734 16.0045L8.02734 30.0162ZM10.0195 28.024L10.0195 21.981L19.9805 21.981L19.9805 28.024L10.0195 28.024ZM19.9805 17.9966L19.9805 19.9888L10.0195 19.9888L10.0195 17.9966L19.9805 17.9966Z" fill="url(#paint1_linear)"/>
<path d="M8.02734 9.96149L17.9883 9.96149L17.9883 11.9537L19.9805 11.9537L19.9805 9.96149L21.9727 9.96149L21.9727 7.9693L8.02734 7.9693L8.02734 9.96149Z" fill="url(#paint2_linear)"/>
<defs>
<linearGradient id="paint0_linear" x1="15" y1="0.000549387" x2="15" y2="34.0005" gradientUnits="userSpaceOnUse">
<stop stop-color="#FF9FC8"/>
<stop offset="1" stop-color="#FF579E"/>
</linearGradient>
<linearGradient id="paint1_linear" x1="15" y1="16.0045" x2="15" y2="30.0162" gradientUnits="userSpaceOnUse">
<stop stop-color="#FF9FC8"/>
<stop offset="1" stop-color="#FF579E"/>
</linearGradient>
<linearGradient id="paint2_linear" x1="15" y1="7.9693" x2="15" y2="11.9537" gradientUnits="userSpaceOnUse">
<stop stop-color="#FF9FC8"/>
<stop offset="1" stop-color="#FF579E"/>
</linearGradient>
</defs>
</svg>
