<svg width="777" height="777" fill="none" xmlns="http://www.w3.org/2000/svg"><g opacity=".3"><g filter="url(#filter0_i)"><circle cx="388.436" cy="388.398" fill="#2E2259" r="374.998"/></g><path d="M762.434 388.398c0 206.553-167.445 373.998-373.998 373.998-206.554 0-373.998-167.445-373.998-373.998S181.881 14.4 388.435 14.4c206.553 0 373.998 167.445 373.998 373.998z" stroke="#fff" stroke-width="2"/></g><g opacity=".6" filter="url(#filter1_d)" fill-rule="evenodd" clip-rule="evenodd"><path d="M422.04 14.892a378.615 378.615 0 00-73.781.65l.284 2.663a375.946 375.946 0 0173.259-.645l.238-2.668z" fill="url(#paint0_linear)"/><path d="M422.039 761.908a378.631 378.631 0 01-73.781-.649l.284-2.663a375.954 375.954 0 0073.259.644l.238 2.668z" fill="url(#paint1_linear)"/></g><g opacity=".6" filter="url(#filter2_d)" fill-rule="evenodd" clip-rule="evenodd"><path d="M677.144 148.824a378.575 378.575 0 00-52.63-51.712l-1.682 2.084a375.924 375.924 0 0152.258 51.347l2.054-1.719z" fill="url(#paint2_linear)"/><path d="M148.923 677.044a378.625 378.625 0 01-51.712-52.631l2.085-1.682a375.918 375.918 0 0051.346 52.258l-1.719 2.055z" fill="url(#paint3_linear)"/></g><g opacity=".6" filter="url(#filter3_d)" fill-rule="evenodd" clip-rule="evenodd"><path d="M147.82 100.709a378.672 378.672 0 00-51.712 52.63l2.085 1.682a375.905 375.905 0 0151.346-52.257l-1.719-2.055z" fill="url(#paint4_linear)"/><path d="M676.04 628.93a378.569 378.569 0 01-52.63 51.712l-1.682-2.084a375.95 375.95 0 0052.258-51.347l2.054 1.719z" fill="url(#paint5_linear)"/></g><g opacity=".6" filter="url(#filter4_d)" fill-rule="evenodd" clip-rule="evenodd"><path d="M14.93 354.188a378.623 378.623 0 00.648 73.781l2.664-.285a375.944 375.944 0 01-.645-73.259l-2.668-.237z" fill="url(#paint6_linear)"/><path d="M761.946 354.189a378.631 378.631 0 01-.649 73.781l-2.664-.285a375.874 375.874 0 00.645-73.259l2.668-.237z" fill="url(#paint7_linear)"/></g><g opacity=".3" fill="#C4C4C4"><path d="M244.722 44.933l2.475-1.025 284.961 687.956-2.475 1.025L244.722 44.933z"/><path d="M43.95 247.156l1.024-2.475 687.957 284.961-1.025 2.475L43.949 247.156z"/><path d="M44.976 532.116l-1.025-2.475L731.908 244.68l1.025 2.475L44.976 532.116z"/><path d="M529.683 43.908l2.475 1.025L247.197 732.89l-2.475-1.025L529.683 43.908z"/></g><path opacity=".55" d="M679.06 389.067c0 160.877-130.117 291.293-290.624 291.293-160.507 0-290.623-130.416-290.623-291.293 0-160.876 130.116-291.293 290.623-291.293 160.507 0 290.624 130.417 290.624 291.293z" fill="url(#paint8_radial)"/><defs><linearGradient id="paint2_linear" x1="147.7" y1="672.31" x2="109.205" y2="633.131" gradientUnits="userSpaceOnUse"><stop offset=".04" stop-color="#FF579E" stop-opacity="0"/><stop offset=".516" stop-color="#FFA1C9"/><stop offset="1" stop-color="#FF579E" stop-opacity="0"/></linearGradient><linearGradient id="paint0_linear" x1="417.827" y1="759.426" x2="362.903" y2="758.943" gradientUnits="userSpaceOnUse"><stop stop-color="#FF579E" stop-opacity="0"/><stop offset=".516" stop-color="#FFA1C9"/><stop offset="1" stop-color="#FF579E" stop-opacity="0"/></linearGradient><linearGradient id="paint1_linear" x1="417.827" y1="759.426" x2="362.903" y2="758.943" gradientUnits="userSpaceOnUse"><stop stop-color="#FF579E" stop-opacity="0"/><stop offset=".516" stop-color="#FFA1C9"/><stop offset="1" stop-color="#FF579E" stop-opacity="0"/></linearGradient><linearGradient id="paint3_linear" x1="147.7" y1="672.31" x2="109.205" y2="633.131" gradientUnits="userSpaceOnUse"><stop offset=".04" stop-color="#FF579E" stop-opacity="0"/><stop offset=".516" stop-color="#FFA1C9"/><stop offset="1" stop-color="#FF579E" stop-opacity="0"/></linearGradient><linearGradient id="paint4_linear" x1="671.307" y1="630.153" x2="632.128" y2="668.649" gradientUnits="userSpaceOnUse"><stop stop-color="#FF579E" stop-opacity="0"/><stop offset=".516" stop-color="#FFA1C9"/><stop offset="1" stop-color="#FF579E" stop-opacity="0"/></linearGradient><linearGradient id="paint5_linear" x1="671.307" y1="630.153" x2="632.128" y2="668.649" gradientUnits="userSpaceOnUse"><stop stop-color="#FF579E" stop-opacity="0"/><stop offset=".516" stop-color="#FFA1C9"/><stop offset="1" stop-color="#FF579E" stop-opacity="0"/></linearGradient><linearGradient id="paint6_linear" x1="759.464" y1="358.4" x2="758.98" y2="413.325" gradientUnits="userSpaceOnUse"><stop stop-color="#FF579E" stop-opacity="0"/><stop offset=".516" stop-color="#FFA1C9"/><stop offset="1" stop-color="#FF579E" stop-opacity="0"/></linearGradient><linearGradient id="paint7_linear" x1="759.464" y1="358.4" x2="758.98" y2="413.325" gradientUnits="userSpaceOnUse"><stop stop-color="#FF579E" stop-opacity="0"/><stop offset=".516" stop-color="#FFA1C9"/><stop offset="1" stop-color="#FF579E" stop-opacity="0"/></linearGradient><filter id="filter3_d" x="83.109" y="87.709" width="605.932" height="605.933" filterUnits="userSpaceOnUse" color-interpolation-filters="sRGB"><feFlood flood-opacity="0" result="BackgroundImageFix"/><feColorMatrix in="SourceAlpha" values="0 0 0 0 0 0 0 0 0 0 0 0 0 0 0 0 0 0 127 0"/><feOffset/><feGaussianBlur stdDeviation="6.5"/><feColorMatrix values="0 0 0 0 1 0 0 0 0 0.341176 0 0 0 0 0.619608 0 0 0 1 0"/><feBlend in2="BackgroundImageFix" result="effect1_dropShadow"/><feBlend in="SourceGraphic" in2="effect1_dropShadow" result="shape"/></filter><filter id="filter4_d" x=".438" y="341.188" width="776" height="99.782" filterUnits="userSpaceOnUse" color-interpolation-filters="sRGB"><feFlood flood-opacity="0" result="BackgroundImageFix"/><feColorMatrix in="SourceAlpha" values="0 0 0 0 0 0 0 0 0 0 0 0 0 0 0 0 0 0 127 0"/><feOffset/><feGaussianBlur stdDeviation="6.5"/><feColorMatrix values="0 0 0 0 1 0 0 0 0 0.341176 0 0 0 0 0.619608 0 0 0 1 0"/><feBlend in2="BackgroundImageFix" result="effect1_dropShadow"/><feBlend in="SourceGraphic" in2="effect1_dropShadow" result="shape"/></filter><filter id="filter0_i" x="13.438" y="13.4" width="749.996" height="749.995" filterUnits="userSpaceOnUse" color-interpolation-filters="sRGB"><feFlood flood-opacity="0" result="BackgroundImageFix"/><feBlend in="SourceGraphic" in2="BackgroundImageFix" result="shape"/><feColorMatrix in="SourceAlpha" values="0 0 0 0 0 0 0 0 0 0 0 0 0 0 0 0 0 0 127 0" result="hardAlpha"/><feOffset/><feGaussianBlur stdDeviation="20"/><feComposite in2="hardAlpha" operator="arithmetic" k2="-1" k3="1"/><feColorMatrix values="0 0 0 0 1 0 0 0 0 0.341176 0 0 0 0 0.619608 0 0 0 1 0"/><feBlend in2="shape" result="effect1_innerShadow"/></filter><filter id="filter2_d" x="84.211" y="84.112" width="605.933" height="605.932" filterUnits="userSpaceOnUse" color-interpolation-filters="sRGB"><feFlood flood-opacity="0" result="BackgroundImageFix"/><feColorMatrix in="SourceAlpha" values="0 0 0 0 0 0 0 0 0 0 0 0 0 0 0 0 0 0 127 0"/><feOffset/><feGaussianBlur stdDeviation="6.5"/><feColorMatrix values="0 0 0 0 1 0 0 0 0 0.341176 0 0 0 0 0.619608 0 0 0 1 0"/><feBlend in2="BackgroundImageFix" result="effect1_dropShadow"/><feBlend in="SourceGraphic" in2="effect1_dropShadow" result="shape"/></filter><filter id="filter1_d" x="335.258" y=".401" width="99.782" height="775.999" filterUnits="userSpaceOnUse" color-interpolation-filters="sRGB"><feFlood flood-opacity="0" result="BackgroundImageFix"/><feColorMatrix in="SourceAlpha" values="0 0 0 0 0 0 0 0 0 0 0 0 0 0 0 0 0 0 127 0"/><feOffset/><feGaussianBlur stdDeviation="6.5"/><feColorMatrix values="0 0 0 0 1 0 0 0 0 0.341176 0 0 0 0 0.619608 0 0 0 1 0"/><feBlend in2="BackgroundImageFix" result="effect1_dropShadow"/><feBlend in="SourceGraphic" in2="effect1_dropShadow" result="shape"/></filter><radialGradient id="paint8_radial" cx="0" cy="0" r="1" gradientUnits="userSpaceOnUse" gradientTransform="matrix(0 291.293 -290.624 0 388.431 389.068)"><stop stop-color="#FF579E"/><stop offset="1" stop-color="#FF006C" stop-opacity="0"/></radialGradient></defs></svg>