<svg width="1423" height="230" fill="none" xmlns="http://www.w3.org/2000/svg"><g opacity=".3"><mask id="a" maskUnits="userSpaceOnUse" x="-1" y="-1" width="1425" height="388"><path d="M0 379.419L423.384.834 422.452 0 0 377.751v1.668zM0 355.838L397.013.834 396.081 0 0 354.171v1.667zM0 332.258L370.643.834 369.71 0 0 330.59v1.668zM0 308.677L344.272.834 343.34 0 0 307.01v1.667zM0 285.097L317.901.834 316.969 0 0 283.43v1.667zM0 261.517L291.53.834 290.598 0 0 259.849v1.668zM0 237.936L265.16.834 264.227 0 0 236.269v1.667zM0 214.356L238.789.834 237.856 0 0 212.688v1.668zM0 190.775L212.418.834 211.486 0 0 189.108v1.667zM0 167.195L186.047.834 185.115 0 0 165.528v1.667zM0 143.615L159.677.834 158.744 0 0 141.947v1.668zM1423 1.377L993.796 385.166l.932.834L1423 3.045V1.377zM1423 24.958l-402.83 360.208.93.834L1423 26.625v-1.667zM1423 48.538l-376.46 336.628.93.834L1423 50.206v-1.668zM1423 72.119l-350.09 313.047.93.834L1423 73.786v-1.667zM1423 95.699l-323.72 289.467.93.834L1423 97.366V95.7zM1423 119.279l-297.35 265.887.93.834L1423 120.947v-1.668zM1423 142.86l-270.98 242.306.93.834L1423 144.527v-1.667zM1423 166.44l-244.61 218.726.93.834L1423 168.108v-1.668zM1423 190.021l-218.24 195.145.93.834L1423 191.688v-1.667zM1423 213.601l-191.87 171.565.94.834L1423 215.268v-1.667zM1423 237.181l-165.5 147.985.94.834L1423 238.849v-1.668zM1423 260.762l-139.13 124.404.94.834L1423 262.429v-1.667zM1423 284.342l-112.75 100.824.93.834L1423 286.01v-1.668zM1423 307.923l-86.38 77.243.93.834 85.45-76.41v-1.667zM1423 331.503l-60.01 53.663.93.834 59.08-52.829v-1.668zM1423 355.083l-33.64 30.083.93.834 32.71-29.249v-1.668zM1423 378.664l-7.27 6.502.93.834 6.34-5.669v-1.667zM448.823 0L18.078 385.166l.933.834L449.755.834 448.823 0zM44.449 385.166L475.193 0l.933.834L45.381 386l-.932-.834zM501.564 0L70.82 385.166l.932.834L502.496.834 501.564 0zM97.19 385.166L527.936 0l.932.834L98.123 386l-.933-.834zM554.306 0L123.561 385.166l.933.834L555.238.834 554.306 0zM149.932 385.166L580.676 0l.933.834L150.864 386l-.932-.834zM607.047 0L176.303 385.166l.932.834L607.979.834 607.047 0zM202.674 385.166L633.418 0l.932.834L203.606 386l-.932-.834zM659.789 0L229.044 385.166l.933.834L660.721.834 659.789 0zM255.415 385.166L686.159 0l.933.834L256.347 386l-.932-.834zM712.53 0L281.786 385.166l.932.834L713.462.834 712.53 0zM308.157 385.166L738.901 0l.932.834L309.089 386l-.932-.834zM765.272 0L334.527 385.166l.933.834L766.204.834 765.272 0zM360.898 385.166L791.642 0l.933.834L361.83 386l-.932-.834zM818.013 0L387.269 385.166l.932.834L818.945.834 818.013 0zM413.64 385.166L844.384 0l.932.834L414.572 386l-.932-.834zM870.755 0L440.01 385.166l.933.834L871.687.834 870.755 0zM466.381 385.166L897.125 0l.933.834L467.313 386l-.932-.834zM923.496 0L492.752 385.166l.932.834L924.428.834 923.496 0zM519.123 385.166L949.867 0l.932.834L520.055 386l-.932-.834zM976.238 0L545.493 385.166l.933.834L977.17.834 976.238 0zM571.864 385.166L1002.61 0l.93.834L572.796 386l-.932-.834zM1028.98 0L598.235 385.166l.932.834L1029.91.834l-.93-.834zM624.606 385.166L1055.35 0l.93.834L625.538 386l-.932-.834zM1081.72 0L650.976 385.166l.933.834L1082.65.834l-.93-.834zM677.347 385.166L1108.09 0l.93.834L678.279 386l-.932-.834zM1134.46 0L703.718 385.166l.932.834L1135.39.834l-.93-.834zM730.089 385.166L1160.83 0l.94.834L731.021 386l-.932-.834zM1187.2 0L756.459 385.166l.933.834L1188.14.834 1187.2 0zM782.83 385.166L1213.57 0l.94.834L783.762 386l-.932-.834zM1239.95 0L809.201 385.166l.932.834L1240.88.834l-.93-.834zM835.572 385.166L1266.32 0l.93.834L836.504 386l-.932-.834zM1292.69 0L861.942 385.166l.933.834L1293.62.834l-.93-.834zM888.313 385.166L1319.06 0l.93.834L889.245 386l-.932-.834zM1345.43 0L914.684 385.166l.932.834L1346.36.834l-.93-.834zM941.055 385.166L1371.8 0l.93.834L941.987 386l-.932-.834zM1398.17 0L967.425 385.166l.933.834L1399.1.834l-.93-.834z" fill="#fff"/><path d="M0 379.419L423.384.834 422.452 0 0 377.751v1.668zM0 355.838L397.013.834 396.081 0 0 354.171v1.667zM0 332.258L370.643.834 369.71 0 0 330.59v1.668zM0 308.677L344.272.834 343.34 0 0 307.01v1.667zM0 285.097L317.901.834 316.969 0 0 283.43v1.667zM0 261.517L291.53.834 290.598 0 0 259.849v1.668zM0 237.936L265.16.834 264.227 0 0 236.269v1.667zM0 214.356L238.789.834 237.856 0 0 212.688v1.668zM0 190.775L212.418.834 211.486 0 0 189.108v1.667zM0 167.195L186.047.834 185.115 0 0 165.528v1.667zM0 143.615L159.677.834 158.744 0 0 141.947v1.668zM1423 1.377L993.796 385.166l.932.834L1423 3.045V1.377zM1423 24.958l-402.83 360.208.93.834L1423 26.625v-1.667zM1423 48.538l-376.46 336.628.93.834L1423 50.206v-1.668zM1423 72.119l-350.09 313.047.93.834L1423 73.786v-1.667zM1423 95.699l-323.72 289.467.93.834L1423 97.366V95.7zM1423 119.279l-297.35 265.887.93.834L1423 120.947v-1.668zM1423 142.86l-270.98 242.306.93.834L1423 144.527v-1.667zM1423 166.44l-244.61 218.726.93.834L1423 168.108v-1.668zM1423 190.021l-218.24 195.145.93.834L1423 191.688v-1.667zM1423 213.601l-191.87 171.565.94.834L1423 215.268v-1.667zM1423 237.181l-165.5 147.985.94.834L1423 238.849v-1.668zM1423 260.762l-139.13 124.404.94.834L1423 262.429v-1.667zM1423 284.342l-112.75 100.824.93.834L1423 286.01v-1.668zM1423 307.923l-86.38 77.243.93.834 85.45-76.41v-1.667zM1423 331.503l-60.01 53.663.93.834 59.08-52.829v-1.668zM1423 355.083l-33.64 30.083.93.834 32.71-29.249v-1.668zM1423 378.664l-7.27 6.502.93.834 6.34-5.669v-1.667zM448.823 0L18.078 385.166l.933.834L449.755.834 448.823 0zM44.449 385.166L475.193 0l.933.834L45.381 386l-.932-.834zM501.564 0L70.82 385.166l.932.834L502.496.834 501.564 0zM97.19 385.166L527.936 0l.932.834L98.123 386l-.933-.834zM554.306 0L123.561 385.166l.933.834L555.238.834 554.306 0zM149.932 385.166L580.676 0l.933.834L150.864 386l-.932-.834zM607.047 0L176.303 385.166l.932.834L607.979.834 607.047 0zM202.674 385.166L633.418 0l.932.834L203.606 386l-.932-.834zM659.789 0L229.044 385.166l.933.834L660.721.834 659.789 0zM255.415 385.166L686.159 0l.933.834L256.347 386l-.932-.834zM712.53 0L281.786 385.166l.932.834L713.462.834 712.53 0zM308.157 385.166L738.901 0l.932.834L309.089 386l-.932-.834zM765.272 0L334.527 385.166l.933.834L766.204.834 765.272 0zM360.898 385.166L791.642 0l.933.834L361.83 386l-.932-.834zM818.013 0L387.269 385.166l.932.834L818.945.834 818.013 0zM413.64 385.166L844.384 0l.932.834L414.572 386l-.932-.834zM870.755 0L440.01 385.166l.933.834L871.687.834 870.755 0zM466.381 385.166L897.125 0l.933.834L467.313 386l-.932-.834zM923.496 0L492.752 385.166l.932.834L924.428.834 923.496 0zM519.123 385.166L949.867 0l.932.834L520.055 386l-.932-.834zM976.238 0L545.493 385.166l.933.834L977.17.834 976.238 0zM571.864 385.166L1002.61 0l.93.834L572.796 386l-.932-.834zM1028.98 0L598.235 385.166l.932.834L1029.91.834l-.93-.834zM624.606 385.166L1055.35 0l.93.834L625.538 386l-.932-.834zM1081.72 0L650.976 385.166l.933.834L1082.65.834l-.93-.834zM677.347 385.166L1108.09 0l.93.834L678.279 386l-.932-.834zM1134.46 0L703.718 385.166l.932.834L1135.39.834l-.93-.834zM730.089 385.166L1160.83 0l.94.834L731.021 386l-.932-.834zM1187.2 0L756.459 385.166l.933.834L1188.14.834 1187.2 0zM782.83 385.166L1213.57 0l.94.834L783.762 386l-.932-.834zM1239.95 0L809.201 385.166l.932.834L1240.88.834l-.93-.834zM835.572 385.166L1266.32 0l.93.834L836.504 386l-.932-.834zM1292.69 0L861.942 385.166l.933.834L1293.62.834l-.93-.834zM888.313 385.166L1319.06 0l.93.834L889.245 386l-.932-.834zM1345.43 0L914.684 385.166l.932.834L1346.36.834l-.93-.834zM941.055 385.166L1371.8 0l.93.834L941.987 386l-.932-.834zM1398.17 0L967.425 385.166l.933.834L1399.1.834l-.93-.834z" stroke="#fff"/></mask><g opacity=".5" mask="url(#a)"><path d="M250.965 95.422V314.74h-60.761v-25.275C174.436 308.488 151.6 318 121.696 318c-20.662 0-39.42-4.62-56.275-13.86-16.584-9.24-29.633-22.421-39.148-39.542C16.758 247.476 12 227.637 12 205.08c0-22.556 4.758-42.395 14.273-59.517 9.515-17.121 22.564-30.302 39.148-39.542 16.855-9.24 35.613-13.86 56.275-13.86 28.001 0 49.886 8.832 65.654 26.497V95.422h63.615zM132.706 265.821c16.04 0 29.361-5.436 39.963-16.306 10.603-11.143 15.904-25.954 15.904-44.435 0-18.48-5.301-33.155-15.904-44.026-10.602-11.142-23.923-16.714-39.963-16.714-16.312 0-29.769 5.572-40.371 16.714C81.732 171.925 76.43 186.6 76.43 205.08c0 18.481 5.301 33.292 15.904 44.435 10.602 10.87 24.059 16.306 40.371 16.306z" fill="#fff"/><path d="M250.965 95.422V314.74h-60.761v-25.275C174.436 308.488 151.6 318 121.696 318c-20.662 0-39.42-4.62-56.275-13.86-16.584-9.24-29.633-22.421-39.148-39.542C16.758 247.476 12 227.637 12 205.08c0-22.556 4.758-42.395 14.273-59.517 9.515-17.121 22.564-30.302 39.148-39.542 16.855-9.24 35.613-13.86 56.275-13.86 28.001 0 49.886 8.832 65.654 26.497V95.422h63.615zM132.706 265.821c16.04 0 29.361-5.436 39.963-16.306 10.603-11.143 15.904-25.954 15.904-44.435 0-18.48-5.301-33.155-15.904-44.026-10.602-11.142-23.923-16.714-39.963-16.714-16.312 0-29.769 5.572-40.371 16.714C81.732 171.925 76.43 186.6 76.43 205.08c0 18.481 5.301 33.292 15.904 44.435 10.602 10.87 24.059 16.306 40.371 16.306z" fill="url(#paint0_linear)"/><path d="M371.846 100.314h56.275v48.918h-54.644v165.507h-63.615V90.53c0-25.002 7.34-44.841 22.021-59.517C346.835 16.338 367.768 9 394.682 9c9.515 0 18.487 1.087 26.914 3.261 8.7 1.903 15.904 4.756 21.613 8.56L426.49 66.888c-7.34-5.164-15.904-7.746-25.691-7.746-19.302 0-28.953 10.6-28.953 31.797v9.376z" fill="#fff"/><path d="M371.846 100.314h56.275v48.918h-54.644v165.507h-63.615V90.53c0-25.002 7.34-44.841 22.021-59.517C346.835 16.338 367.768 9 394.682 9c9.515 0 18.487 1.087 26.914 3.261 8.7 1.903 15.904 4.756 21.613 8.56L426.49 66.888c-7.34-5.164-15.904-7.746-25.691-7.746-19.302 0-28.953 10.6-28.953 31.797v9.376z" fill="url(#paint1_linear)"/><path d="M521.98 100.314h56.275v48.918h-54.644v165.507h-63.615V90.53c0-25.002 7.34-44.841 22.02-59.517C496.968 16.338 517.902 9 544.816 9c9.515 0 18.486 1.087 26.914 3.261 8.699 1.903 15.904 4.756 21.613 8.56l-16.72 46.066c-7.34-5.164-15.903-7.746-25.69-7.746-19.302 0-28.953 10.6-28.953 31.797v9.376z" fill="#fff"/><path d="M521.98 100.314h56.275v48.918h-54.644v165.507h-63.615V90.53c0-25.002 7.34-44.841 22.02-59.517C496.968 16.338 517.902 9 544.816 9c9.515 0 18.486 1.087 26.914 3.261 8.699 1.903 15.904 4.756 21.613 8.56l-16.72 46.066c-7.34-5.164-15.903-7.746-25.69-7.746-19.302 0-28.953 10.6-28.953 31.797v9.376z" fill="url(#paint2_linear)"/><path d="M743.476 92.161c27.186 0 49.071 8.153 65.655 24.459 16.855 16.306 25.283 40.493 25.283 72.562v125.557h-63.616V198.966c0-17.393-3.806-30.302-11.418-38.727-7.612-8.697-18.622-13.045-33.031-13.045-16.039 0-28.817 5.028-38.332 15.083-9.515 9.784-14.273 24.459-14.273 44.026v108.436h-63.615V12.261h63.615v105.99c8.428-8.425 18.623-14.812 30.585-19.16 11.961-4.62 25.011-6.93 39.147-6.93z" fill="#fff"/><path d="M743.476 92.161c27.186 0 49.071 8.153 65.655 24.459 16.855 16.306 25.283 40.493 25.283 72.562v125.557h-63.616V198.966c0-17.393-3.806-30.302-11.418-38.727-7.612-8.697-18.622-13.045-33.031-13.045-16.039 0-28.817 5.028-38.332 15.083-9.515 9.784-14.273 24.459-14.273 44.026v108.436h-63.615V12.261h63.615v105.99c8.428-8.425 18.623-14.812 30.585-19.16 11.961-4.62 25.011-6.93 39.147-6.93z" fill="url(#paint3_linear)"/><path d="M1113.1 95.422V314.74h-60.35v-26.09c-8.43 9.512-18.49 16.85-30.18 22.013-11.69 4.892-24.331 7.338-37.924 7.338-28.817 0-51.653-8.289-68.509-24.867-16.855-16.578-25.283-41.173-25.283-73.785V95.422h63.615v114.55c0 35.33 14.817 52.995 44.45 52.995 15.221 0 27.461-4.892 36.701-14.675 9.24-10.056 13.86-24.867 13.86-44.434V95.422h63.62z" fill="#fff"/><path d="M1113.1 95.422V314.74h-60.35v-26.09c-8.43 9.512-18.49 16.85-30.18 22.013-11.69 4.892-24.331 7.338-37.924 7.338-28.817 0-51.653-8.289-68.509-24.867-16.855-16.578-25.283-41.173-25.283-73.785V95.422h63.615v114.55c0 35.33 14.817 52.995 44.45 52.995 15.221 0 27.461-4.892 36.701-14.675 9.24-10.056 13.86-24.867 13.86-44.434V95.422h63.62z" fill="url(#paint4_linear)"/><path d="M1301.71 92.161c20.39 0 38.88 4.756 55.46 14.268 16.86 9.24 30.04 22.421 39.56 39.542 9.51 16.85 14.27 36.553 14.27 59.109 0 22.557-4.76 42.396-14.27 59.518-9.52 16.849-22.7 30.03-39.56 39.542-16.58 9.24-35.07 13.86-55.46 13.86-30.17 0-53.15-9.512-68.91-28.536v25.275h-60.77V12.261h63.62v106.397c16.04-17.665 38.06-26.497 66.06-26.497zm-11.01 173.66c16.31 0 29.63-5.436 39.97-16.306 10.6-11.143 15.9-25.954 15.9-44.435 0-18.48-5.3-33.155-15.9-44.026-10.34-11.142-23.66-16.714-39.97-16.714s-29.77 5.572-40.37 16.714c-10.33 10.871-15.5 25.546-15.5 44.026 0 18.481 5.17 33.292 15.5 44.435 10.6 10.87 24.06 16.306 40.37 16.306z" fill="#fff"/><path d="M1301.71 92.161c20.39 0 38.88 4.756 55.46 14.268 16.86 9.24 30.04 22.421 39.56 39.542 9.51 16.85 14.27 36.553 14.27 59.109 0 22.557-4.76 42.396-14.27 59.518-9.52 16.849-22.7 30.03-39.56 39.542-16.58 9.24-35.07 13.86-55.46 13.86-30.17 0-53.15-9.512-68.91-28.536v25.275h-60.77V12.261h63.62v106.397c16.04-17.665 38.06-26.497 66.06-26.497zm-11.01 173.66c16.31 0 29.63-5.436 39.97-16.306 10.6-11.143 15.9-25.954 15.9-44.435 0-18.48-5.3-33.155-15.9-44.026-10.34-11.142-23.66-16.714-39.97-16.714s-29.77 5.572-40.37 16.714c-10.33 10.871-15.5 25.546-15.5 44.026 0 18.481 5.17 33.292 15.5 44.435 10.6 10.87 24.06 16.306 40.37 16.306z" fill="url(#paint5_linear)"/></g></g><defs><linearGradient id="paint0_linear" x1="-79.496" y1="16.946" x2="312.268" y2="803.835" gradientUnits="userSpaceOnUse"><stop stop-color="#FFA800"/><stop offset=".547" stop-color="#FF57C6"/><stop offset="1" stop-color="#10E6D9"/></linearGradient><linearGradient id="paint1_linear" x1="-79.496" y1="16.946" x2="312.268" y2="803.835" gradientUnits="userSpaceOnUse"><stop stop-color="#FFA800"/><stop offset=".547" stop-color="#FF57C6"/><stop offset="1" stop-color="#10E6D9"/></linearGradient><linearGradient id="paint2_linear" x1="-79.496" y1="16.946" x2="312.268" y2="803.835" gradientUnits="userSpaceOnUse"><stop stop-color="#FFA800"/><stop offset=".547" stop-color="#FF57C6"/><stop offset="1" stop-color="#10E6D9"/></linearGradient><linearGradient id="paint3_linear" x1="-79.496" y1="16.946" x2="312.268" y2="803.835" gradientUnits="userSpaceOnUse"><stop stop-color="#FFA800"/><stop offset=".547" stop-color="#FF57C6"/><stop offset="1" stop-color="#10E6D9"/></linearGradient><linearGradient id="paint4_linear" x1="-79.496" y1="16.946" x2="312.268" y2="803.835" gradientUnits="userSpaceOnUse"><stop stop-color="#FFA800"/><stop offset=".547" stop-color="#FF57C6"/><stop offset="1" stop-color="#10E6D9"/></linearGradient><linearGradient id="paint5_linear" x1="-79.496" y1="16.946" x2="312.268" y2="803.835" gradientUnits="userSpaceOnUse"><stop stop-color="#FFA800"/><stop offset=".547" stop-color="#FF57C6"/><stop offset="1" stop-color="#10E6D9"/></linearGradient></defs></svg>