<svg width="179" height="36" fill="none" xmlns="http://www.w3.org/2000/svg"><path fill-rule="evenodd" clip-rule="evenodd" d="M177.099 20.7c-.823 1.341-1.977 2.381-3.462 3.12-1.485.737-3.195 1.107-5.129 1.107h-8.095V7.107h8.095c1.934 0 3.644.37 5.129 1.108 1.485.738 2.639 1.778 3.462 3.118.823 1.34 1.235 2.902 1.235 4.684s-.412 3.343-1.235 4.684zm-4.531-8.718c-1.061-.992-2.482-1.489-4.264-1.489h-3.767v11.048h3.767c1.782 0 3.203-.497 4.264-1.49 1.061-.992 1.591-2.337 1.591-4.034 0-1.697-.53-3.042-1.591-4.035zm-22.465 9.126h-8.273l-1.578 3.819h-4.226l7.942-17.82h4.073l7.968 17.82h-4.327l-1.579-3.819zm-4.124-9.953l-2.825 6.822h5.651l-2.826-6.822zm-17.513 13.772l-3.437-4.964h-3.792v4.963h-4.124V7.108h7.713c1.578 0 2.948.263 4.111.789 1.162.526 2.058 1.272 2.685 2.24.628.967.942 2.113.942 3.436 0 1.324-.318 2.465-.954 3.424-.637.959-1.54 1.693-2.711 2.202l3.996 5.727h-4.429zm-1.044-13.657c-.645-.535-1.586-.802-2.825-.802h-3.36v6.21h3.36c1.239 0 2.18-.27 2.825-.814.645-.543.968-1.306.968-2.29 0-1.002-.323-1.77-.968-2.304zM97.486 7.108h13.466v3.309h-9.367v3.869h8.273v3.208h-8.273v4.123h9.698v3.31H97.486V7.107zM81.678 24.927l-7.687-17.82h4.454l5.423 12.728 5.498-12.727h4.098l-7.713 17.819h-4.073zM56.961 7.107h13.466v3.31h-9.368v3.869h8.273v3.208H61.06v4.123h9.699v3.31H56.96V7.107z" fill="#fff"/><path fill-rule="evenodd" clip-rule="evenodd" d="M4.357 17.501L26.173 5.003V0L0 15.008v5.003l26.173 14.991 13.07-7.496v-5.002L26.173 30 4.357 17.5zm30.53-2.493L21.8 22.504l4.373 2.509 8.714-5.002v-5.003zM30.53 7.496L13.087 17.5l4.356 2.51 13.087-7.512V7.495z" fill="#FF8A00"/></svg>