<svg width="64" height="62" fill="none" xmlns="http://www.w3.org/2000/svg"><g filter="url(#filter0_d)"><path d="M44.601 23.68h-1.263v-2.894a5.638 5.638 0 00-5.632-5.632h-9.684a5.639 5.639 0 00-5.618 5.244 728.67 728.67 0 00-.013 4.388 1.053 1.053 0 002.105 0c0-.131.007-4.26.021-4.388a3.531 3.531 0 013.505-3.139h9.684a3.53 3.53 0 013.527 3.527v2.894H23.812a1.053 1.053 0 000 2.106h17.42V41.89c0 1.16-.944 2.105-2.105 2.105h-9.302c.36-.62.566-1.339.566-2.105v-.421h.684a3.53 3.53 0 003.526-3.526 3.53 3.53 0 00-3.526-3.527H16.18c-.581 0-1.053.471-1.053 1.053v6.421a4.215 4.215 0 004.211 4.21h19.79a4.215 4.215 0 004.21-4.21v-2.895H44.6a3.53 3.53 0 003.526-3.526v-8.263a3.53 3.53 0 00-3.526-3.527zm-14.21 12.843h.684c.783 0 1.42.637 1.42 1.42 0 .784-.637 1.422-1.42 1.422h-.684v-2.843zm-2.106 5.368c0 1.16-.944 2.105-2.105 2.105h-6.842a2.108 2.108 0 01-2.105-2.105v-5.368h11.052v5.368zm17.737-6.421c0 .784-.637 1.42-1.42 1.42h-1.264V25.787h1.263c.784 0 1.421.637 1.421 1.42v8.264z" fill="#fff"/><path d="M44.601 23.68h-1.263v-2.894a5.638 5.638 0 00-5.632-5.632h-9.684a5.639 5.639 0 00-5.618 5.244 728.67 728.67 0 00-.013 4.388 1.053 1.053 0 002.105 0c0-.131.007-4.26.021-4.388a3.531 3.531 0 013.505-3.139h9.684a3.53 3.53 0 013.527 3.527v2.894H23.812a1.053 1.053 0 000 2.106h17.42V41.89c0 1.16-.944 2.105-2.105 2.105h-9.302c.36-.62.566-1.339.566-2.105v-.421h.684a3.53 3.53 0 003.526-3.526 3.53 3.53 0 00-3.526-3.527H16.18c-.581 0-1.053.471-1.053 1.053v6.421a4.215 4.215 0 004.211 4.21h19.79a4.215 4.215 0 004.21-4.21v-2.895H44.6a3.53 3.53 0 003.526-3.526v-8.263a3.53 3.53 0 00-3.526-3.527zm-14.21 12.843h.684c.783 0 1.42.637 1.42 1.42 0 .784-.637 1.422-1.42 1.422h-.684v-2.843zm-2.106 5.368c0 1.16-.944 2.105-2.105 2.105h-6.842a2.108 2.108 0 01-2.105-2.105v-5.368h11.052v5.368zm17.737-6.421c0 .784-.637 1.42-1.42 1.42h-1.264V25.787h1.263c.784 0 1.421.637 1.421 1.42v8.264z" fill="url(#paint0_linear)"/><path d="M23.45 27.575c-.582 0-1.053.471-1.053 1.053 0 .54-.313.87-.865 1.408-.556.539-1.247 1.21-1.247 2.276a1.053 1.053 0 102.105 0c0-.176.31-.476.608-.766.635-.616 1.504-1.46 1.504-2.918 0-.582-.471-1.053-1.052-1.053z" fill="#fff"/><path d="M23.45 27.575c-.582 0-1.053.471-1.053 1.053 0 .54-.313.87-.865 1.408-.556.539-1.247 1.21-1.247 2.276a1.053 1.053 0 102.105 0c0-.176.31-.476.608-.766.635-.616 1.504-1.46 1.504-2.918 0-.582-.471-1.053-1.052-1.053z" fill="url(#paint1_linear)"/><path d="M28.075 27.575c-.581 0-1.053.471-1.053 1.053 0 .55-.304.88-.843 1.418-.538.539-1.21 1.209-1.21 2.266a1.053 1.053 0 102.106 0c0-.184.288-.472.593-.777.616-.615 1.46-1.459 1.46-2.907 0-.582-.472-1.053-1.053-1.053z" fill="#fff"/><path d="M28.075 27.575c-.581 0-1.053.471-1.053 1.053 0 .55-.304.88-.843 1.418-.538.539-1.21 1.209-1.21 2.266a1.053 1.053 0 102.106 0c0-.184.288-.472.593-.777.616-.615 1.46-1.459 1.46-2.907 0-.582-.472-1.053-1.053-1.053z" fill="url(#paint2_linear)"/></g><defs><linearGradient id="paint0_linear" x1="31.627" y1="15.154" x2="31.627" y2="46.102" gradientUnits="userSpaceOnUse"><stop stop-color="#FF9FC8"/><stop offset="1" stop-color="#FF579E"/></linearGradient><linearGradient id="paint1_linear" x1="22.394" y1="27.575" x2="22.394" y2="33.364" gradientUnits="userSpaceOnUse"><stop stop-color="#FF9FC8"/><stop offset="1" stop-color="#FF579E"/></linearGradient><linearGradient id="paint2_linear" x1="27.049" y1="27.575" x2="27.049" y2="33.364" gradientUnits="userSpaceOnUse"><stop stop-color="#FF9FC8"/><stop offset="1" stop-color="#FF579E"/></linearGradient><filter id="filter0_d" x=".127" y=".127" width="63" height="61" filterUnits="userSpaceOnUse" color-interpolation-filters="sRGB"><feFlood flood-opacity="0" result="BackgroundImageFix"/><feColorMatrix in="SourceAlpha" values="0 0 0 0 0 0 0 0 0 0 0 0 0 0 0 0 0 0 127 0"/><feOffset/><feGaussianBlur stdDeviation="7.5"/><feColorMatrix values="0 0 0 0 1 0 0 0 0 0.341176 0 0 0 0 0.619608 0 0 0 1 0"/><feBlend in2="BackgroundImageFix" result="effect1_dropShadow"/><feBlend in="SourceGraphic" in2="effect1_dropShadow" result="shape"/></filter></defs></svg>