<svg width="62" height="70" fill="none" xmlns="http://www.w3.org/2000/svg"><g filter="url(#filter0_d)"><path d="M41.214 15h-5.53c-.647 0-1.172.525-1.172 1.172v12.277h-4.59a4.02 4.02 0 00.409-1.771c0-1.737-2.3-6.32-3.005-7.684a1.172 1.172 0 00-2.082 0c-.704 1.363-3.004 5.947-3.004 7.684 0 .635.148 1.235.41 1.77h-1.473c-.647 0-1.172.525-1.172 1.172v4.178h-3.118c-.648 0-1.172.524-1.172 1.171v14.96A5.077 5.077 0 0020.786 55h10.999a5.077 5.077 0 005.071-5.071V36.14h4.358a5.077 5.077 0 005.072-5.071V20.07A5.077 5.077 0 0041.213 15zm-14.928 7.186c.931 1.987 1.701 3.901 1.701 4.492 0 .938-.763 1.701-1.701 1.701a1.703 1.703 0 01-1.702-1.701c0-.59.77-2.506 1.701-4.492zm-3.937 8.606h7.873v3.006h-7.873v-3.006zM34.512 49.93a2.73 2.73 0 01-2.727 2.727H20.786a2.73 2.73 0 01-2.727-2.727V36.14h16.453V49.93zm0-16.132h-1.946v-3.005h1.946v3.005zm9.43-2.727a2.73 2.73 0 01-2.728 2.727h-4.358V17.345h4.358a2.73 2.73 0 012.728 2.727V31.07z" fill="#000"/><path d="M41.214 15h-5.53c-.647 0-1.172.525-1.172 1.172v12.277h-4.59a4.02 4.02 0 00.409-1.771c0-1.737-2.3-6.32-3.005-7.684a1.172 1.172 0 00-2.082 0c-.704 1.363-3.004 5.947-3.004 7.684 0 .635.148 1.235.41 1.77h-1.473c-.647 0-1.172.525-1.172 1.172v4.178h-3.118c-.648 0-1.172.524-1.172 1.171v14.96A5.077 5.077 0 0020.786 55h10.999a5.077 5.077 0 005.071-5.071V36.14h4.358a5.077 5.077 0 005.072-5.071V20.07A5.077 5.077 0 0041.213 15zm-14.928 7.186c.931 1.987 1.701 3.901 1.701 4.492 0 .938-.763 1.701-1.701 1.701a1.703 1.703 0 01-1.702-1.701c0-.59.77-2.506 1.701-4.492zm-3.937 8.606h7.873v3.006h-7.873v-3.006zM34.512 49.93a2.73 2.73 0 01-2.727 2.727H20.786a2.73 2.73 0 01-2.727-2.727V36.14h16.453V49.93zm0-16.132h-1.946v-3.005h1.946v3.005zm9.43-2.727a2.73 2.73 0 01-2.728 2.727h-4.358V17.345h4.358a2.73 2.73 0 012.728 2.727V31.07z" fill="url(#paint0_linear)"/><path d="M22.742 40.882h7.086a1.172 1.172 0 000-2.344h-7.086a1.172 1.172 0 000 2.344z" fill="#000"/><path d="M22.742 40.882h7.086a1.172 1.172 0 000-2.344h-7.086a1.172 1.172 0 000 2.344z" fill="url(#paint1_linear)"/></g><defs><linearGradient id="paint0_linear" x1="31" y1="15" x2="31" y2="55" gradientUnits="userSpaceOnUse"><stop stop-color="#FF9FC8"/><stop offset="1" stop-color="#FF579E"/></linearGradient><linearGradient id="paint1_linear" x1="26.285" y1="38.538" x2="26.285" y2="40.882" gradientUnits="userSpaceOnUse"><stop stop-color="#FF9FC8"/><stop offset="1" stop-color="#FF579E"/></linearGradient><filter id="filter0_d" x="-4" y="0" width="70" height="70" filterUnits="userSpaceOnUse" color-interpolation-filters="sRGB"><feFlood flood-opacity="0" result="BackgroundImageFix"/><feColorMatrix in="SourceAlpha" values="0 0 0 0 0 0 0 0 0 0 0 0 0 0 0 0 0 0 127 0"/><feOffset/><feGaussianBlur stdDeviation="7.5"/><feColorMatrix values="0 0 0 0 1 0 0 0 0 0.341176 0 0 0 0 0.619608 0 0 0 1 0"/><feBlend in2="BackgroundImageFix" result="effect1_dropShadow"/><feBlend in="SourceGraphic" in2="effect1_dropShadow" result="shape"/></filter></defs></svg>