<svg width="64" height="64" fill="none" xmlns="http://www.w3.org/2000/svg"><g filter="url(#filter0_d)"><path d="M21.622 48.008c1.898 1.9 5.395.697 7.81-.499 3.257-1.612 6.915-4.365 10.3-7.751l.013-.012.002-.003c.002 0 .002-.002.004-.003 3.379-3.383 6.13-7.038 7.746-10.296 1.81-3.646 1.987-6.353.513-7.826l-5.635-5.635c-.96-.96-2.982-1.703-7.17.204-2.921 1.33-6.292 3.692-9.491 6.65l-.76.704 7.045 7.045.703-.65c2.031-1.878 4.147-3.523 6.11-4.767-1.54 2.464-3.653 5.074-6.124 7.545-2.466 2.466-5.07 4.574-7.526 6.11 1.248-1.974 2.896-4.097 4.776-6.126l.651-.704-7.045-7.045-.703.76c-2.966 3.2-5.33 6.573-6.66 9.496-1.902 4.183-1.156 6.207-.195 7.168l5.636 5.635zm12.49-13.9a2.992 2.992 0 014.226 0 2.992 2.992 0 01-.002 4.23 2.992 2.992 0 01-4.224-.004 2.987 2.987 0 010-4.226zm-2.053-6.28l-4.224-4.224c2.81-2.49 5.691-4.463 8.196-5.604 2.35-1.07 4.24-1.303 4.935-.609.533.534.657 1.992-.429 4.536-2.555 1.215-5.586 3.326-8.478 5.902zm9.803-4.02c.766-1.544 1.238-2.918 1.418-4.103l3.322 3.322c.6.6.68 2.367-.89 5.531-1.057 2.13-2.641 4.454-4.592 6.757a4.953 4.953 0 00-1.373-2.616 4.957 4.957 0 00-3.001-1.429c2.173-2.526 3.942-5.098 5.115-7.462zm-10.59 12.94a4.943 4.943 0 001.43 2.995 4.95 4.95 0 002.62 1.374c-2.31 1.96-4.64 3.55-6.774 4.607-2.637 1.306-4.752 1.641-5.517.876l-3.319-3.319c1.18-.178 2.549-.647 4.085-1.407 2.365-1.172 4.943-2.946 7.475-5.126zm-13.276-.719c1.139-2.504 3.115-5.388 5.61-8.2l4.225 4.225c-2.572 2.884-4.684 5.919-5.903 8.487-2.171.921-3.865 1.09-4.533.423-.697-.697-.467-2.588.6-4.935z" fill="#000"/><path d="M21.622 48.008c1.898 1.9 5.395.697 7.81-.499 3.257-1.612 6.915-4.365 10.3-7.751l.013-.012.002-.003c.002 0 .002-.002.004-.003 3.379-3.383 6.13-7.038 7.746-10.296 1.81-3.646 1.987-6.353.513-7.826l-5.635-5.635c-.96-.96-2.982-1.703-7.17.204-2.921 1.33-6.292 3.692-9.491 6.65l-.76.704 7.045 7.045.703-.65c2.031-1.878 4.147-3.523 6.11-4.767-1.54 2.464-3.653 5.074-6.124 7.545-2.466 2.466-5.07 4.574-7.526 6.11 1.248-1.974 2.896-4.097 4.776-6.126l.651-.704-7.045-7.045-.703.76c-2.966 3.2-5.33 6.573-6.66 9.496-1.902 4.183-1.156 6.207-.195 7.168l5.636 5.635zm12.49-13.9a2.992 2.992 0 014.226 0 2.992 2.992 0 01-.002 4.23 2.992 2.992 0 01-4.224-.004 2.987 2.987 0 010-4.226zm-2.053-6.28l-4.224-4.224c2.81-2.49 5.691-4.463 8.196-5.604 2.35-1.07 4.24-1.303 4.935-.609.533.534.657 1.992-.429 4.536-2.555 1.215-5.586 3.326-8.478 5.902zm9.803-4.02c.766-1.544 1.238-2.918 1.418-4.103l3.322 3.322c.6.6.68 2.367-.89 5.531-1.057 2.13-2.641 4.454-4.592 6.757a4.953 4.953 0 00-1.373-2.616 4.957 4.957 0 00-3.001-1.429c2.173-2.526 3.942-5.098 5.115-7.462zm-10.59 12.94a4.943 4.943 0 001.43 2.995 4.95 4.95 0 002.62 1.374c-2.31 1.96-4.64 3.55-6.774 4.607-2.637 1.306-4.752 1.641-5.517.876l-3.319-3.319c1.18-.178 2.549-.647 4.085-1.407 2.365-1.172 4.943-2.946 7.475-5.126zm-13.276-.719c1.139-2.504 3.115-5.388 5.61-8.2l4.225 4.225c-2.572 2.884-4.684 5.919-5.903 8.487-2.171.921-3.865 1.09-4.533.423-.697-.697-.467-2.588.6-4.935z" fill="url(#paint0_linear)"/><path d="M41.993 29.043l1.409 1.409-1.41 1.409-1.408-1.41 1.409-1.408z" fill="#000"/><path d="M41.993 29.043l1.409 1.409-1.41 1.409-1.408-1.41 1.409-1.408z" fill="url(#paint1_linear)"/><path d="M30.486 40.553l1.409 1.408-1.41 1.41-1.408-1.41 1.409-1.408z" fill="#000"/><path d="M30.486 40.553l1.409 1.408-1.41 1.41-1.408-1.41 1.409-1.408z" fill="url(#paint2_linear)"/><path d="M26.26 41.961l1.408 1.41-1.409 1.408-1.409-1.409 1.41-1.409z" fill="#000"/><path d="M26.26 41.961l1.408 1.41-1.409 1.408-1.409-1.409 1.41-1.409z" fill="url(#paint3_linear)"/><path d="M43.401 24.817l1.409 1.409-1.409 1.409-1.409-1.41 1.409-1.408z" fill="#000"/><path d="M43.401 24.817l1.409 1.409-1.409 1.409-1.409-1.41 1.409-1.408z" fill="url(#paint4_linear)"/></g><defs><linearGradient id="paint0_linear" x1="32" y1="15" x2="32" y2="49" gradientUnits="userSpaceOnUse"><stop stop-color="#FF9FC8"/><stop offset="1" stop-color="#FF579E"/></linearGradient><linearGradient id="paint1_linear" x1="41.993" y1="29.043" x2="41.993" y2="31.861" gradientUnits="userSpaceOnUse"><stop stop-color="#FF9FC8"/><stop offset="1" stop-color="#FF579E"/></linearGradient><linearGradient id="paint2_linear" x1="30.486" y1="40.553" x2="30.486" y2="43.37" gradientUnits="userSpaceOnUse"><stop stop-color="#FF9FC8"/><stop offset="1" stop-color="#FF579E"/></linearGradient><linearGradient id="paint3_linear" x1="26.259" y1="41.961" x2="26.259" y2="44.779" gradientUnits="userSpaceOnUse"><stop stop-color="#FF9FC8"/><stop offset="1" stop-color="#FF579E"/></linearGradient><linearGradient id="paint4_linear" x1="43.401" y1="24.817" x2="43.401" y2="27.635" gradientUnits="userSpaceOnUse"><stop stop-color="#FF9FC8"/><stop offset="1" stop-color="#FF579E"/></linearGradient><filter id="filter0_d" x="0" y="0" width="64" height="64" filterUnits="userSpaceOnUse" color-interpolation-filters="sRGB"><feFlood flood-opacity="0" result="BackgroundImageFix"/><feColorMatrix in="SourceAlpha" values="0 0 0 0 0 0 0 0 0 0 0 0 0 0 0 0 0 0 127 0"/><feOffset/><feGaussianBlur stdDeviation="7.5"/><feColorMatrix values="0 0 0 0 1 0 0 0 0 0.341176 0 0 0 0 0.619608 0 0 0 1 0"/><feBlend in2="BackgroundImageFix" result="effect1_dropShadow"/><feBlend in="SourceGraphic" in2="effect1_dropShadow" result="shape"/></filter></defs></svg>