<svg width="60" height="64" fill="none" xmlns="http://www.w3.org/2000/svg"><g filter="url(#filter0_d)"><path d="M19.044 49h21.914v-3.984h3.984V31.004h-3.984v-9.031a2.992 2.992 0 00-2.989-2.989h-2.988V15H25.02v3.984h-2.988a2.992 2.992 0 00-2.988 2.989v9.03h-3.985v14.013h3.985V49zm21.914-5.977V36.98h1.992v6.043h-1.992zm1.992-10.027v1.992h-1.992v-1.992h1.992zM27.012 16.992h5.977v1.992h-5.977v-1.992zm-5.976 4.98c0-.549.447-.995.996-.995h15.937c.55 0 .996.446.996.996v25.035h-17.93V21.973zm-1.992 11.024v1.992H17.05v-1.992h1.993zM17.05 43.023V36.98h1.993v6.043H17.05z" fill="#000"/><path d="M19.044 49h21.914v-3.984h3.984V31.004h-3.984v-9.031a2.992 2.992 0 00-2.989-2.989h-2.988V15H25.02v3.984h-2.988a2.992 2.992 0 00-2.988 2.989v9.03h-3.985v14.013h3.985V49zm21.914-5.977V36.98h1.992v6.043h-1.992zm1.992-10.027v1.992h-1.992v-1.992h1.992zM27.012 16.992h5.977v1.992h-5.977v-1.992zm-5.976 4.98c0-.549.447-.995.996-.995h15.937c.55 0 .996.446.996.996v25.035h-17.93V21.973zm-1.992 11.024v1.992H17.05v-1.992h1.993zM17.05 43.023V36.98h1.993v6.043H17.05z" fill="url(#paint0_linear)"/><path d="M23.028 45.016h13.945V31.004H23.028v14.012zm1.992-1.993V36.98h9.961v6.043H25.02zm9.961-10.027v1.992H25.02v-1.992h9.961z" fill="#000"/><path d="M23.028 45.016h13.945V31.004H23.028v14.012zm1.992-1.993V36.98h9.961v6.043H25.02zm9.961-10.027v1.992H25.02v-1.992h9.961z" fill="url(#paint1_linear)"/><path d="M23.028 24.96h9.96v1.993h1.993v-1.992h1.992v-1.992H23.028v1.992z" fill="#000"/><path d="M23.028 24.96h9.96v1.993h1.993v-1.992h1.992v-1.992H23.028v1.992z" fill="url(#paint2_linear)"/></g><defs><linearGradient id="paint0_linear" x1="30" y1="15" x2="30" y2="49" gradientUnits="userSpaceOnUse"><stop stop-color="#FF9FC8"/><stop offset="1" stop-color="#FF579E"/></linearGradient><linearGradient id="paint1_linear" x1="30" y1="31.004" x2="30" y2="45.016" gradientUnits="userSpaceOnUse"><stop stop-color="#FF9FC8"/><stop offset="1" stop-color="#FF579E"/></linearGradient><linearGradient id="paint2_linear" x1="30" y1="22.969" x2="30" y2="26.953" gradientUnits="userSpaceOnUse"><stop stop-color="#FF9FC8"/><stop offset="1" stop-color="#FF579E"/></linearGradient><filter id="filter0_d" x="-2" y="0" width="64" height="64" filterUnits="userSpaceOnUse" color-interpolation-filters="sRGB"><feFlood flood-opacity="0" result="BackgroundImageFix"/><feColorMatrix in="SourceAlpha" values="0 0 0 0 0 0 0 0 0 0 0 0 0 0 0 0 0 0 127 0"/><feOffset/><feGaussianBlur stdDeviation="7.5"/><feColorMatrix values="0 0 0 0 1 0 0 0 0 0.341176 0 0 0 0 0.619608 0 0 0 1 0"/><feBlend in2="BackgroundImageFix" result="effect1_dropShadow"/><feBlend in="SourceGraphic" in2="effect1_dropShadow" result="shape"/></filter></defs></svg>