<svg width="68" height="68" fill="none" xmlns="http://www.w3.org/2000/svg"><g filter="url(#filter0_d)"><path d="M40.735 30.104l-3.648-.265-1.376-3.383A1.843 1.843 0 0034 25.305c-.755 0-1.423.451-1.711 1.151l-1.377 3.383-3.647.265a1.83 1.83 0 00-1.618 1.267 1.847 1.847 0 00.568 1.984l2.792 2.356-.871 3.547a1.808 1.808 0 00.334 1.57c.35.452.895.716 1.454.716.343 0 .677-.093.973-.28L34 39.335l3.103 1.93c.295.186.63.279.972.279.56 0 1.104-.264 1.454-.715.35-.444.475-1.02.335-1.572l-.871-3.546 2.792-2.356c.576-.483.801-1.26.568-1.984a1.84 1.84 0 00-1.618-1.267zm-3.422 4.534a.95.95 0 00-.311.956l.98 3.975-3.477-2.163a.936.936 0 00-1.003 0l-3.484 2.178.988-3.997a.951.951 0 00-.311-.957l-3.135-2.644 4.083-.296a.963.963 0 00.817-.59L34 27.31l1.547 3.796c.14.334.452.568.817.591l4.083.296-3.134 2.644z" fill="#fff"/><path d="M40.735 30.104l-3.648-.265-1.376-3.383A1.843 1.843 0 0034 25.305c-.755 0-1.423.451-1.711 1.151l-1.377 3.383-3.647.265a1.83 1.83 0 00-1.618 1.267 1.847 1.847 0 00.568 1.984l2.792 2.356-.871 3.547a1.808 1.808 0 00.334 1.57c.35.452.895.716 1.454.716.343 0 .677-.093.973-.28L34 39.335l3.103 1.93c.295.186.63.279.972.279.56 0 1.104-.264 1.454-.715.35-.444.475-1.02.335-1.572l-.871-3.546 2.792-2.356c.576-.483.801-1.26.568-1.984a1.84 1.84 0 00-1.618-1.267zm-3.422 4.534a.95.95 0 00-.311.956l.98 3.975-3.477-2.163a.936.936 0 00-1.003 0l-3.484 2.178.988-3.997a.951.951 0 00-.311-.957l-3.135-2.644 4.083-.296a.963.963 0 00.817-.59L34 27.31l1.547 3.796c.14.334.452.568.817.591l4.083.296-3.134 2.644z" fill="url(#paint0_linear)"/><path d="M51.328 34.607a1.26 1.26 0 01-.008-1.478l.661-.941a3.177 3.177 0 00-1.089-4.628l-1.01-.544a1.264 1.264 0 01-.654-1.322l.194-1.136a3.198 3.198 0 00-.66-2.52 3.18 3.18 0 00-2.326-1.174l-1.159-.039a1.256 1.256 0 01-1.159-.91l-.319-1.104a3.185 3.185 0 00-3.048-2.287c-.428 0-.856.086-1.252.257l-1.058.451a1.28 1.28 0 01-1.439-.319l-.77-.855A3.179 3.179 0 0033.876 15c-.918 0-1.79.397-2.396 1.089l-.746.879c-.35.404-.941.544-1.44.342l-1.065-.436a3.235 3.235 0 00-1.205-.24 3.172 3.172 0 00-3.057 2.332l-.303 1.105c-.14.52-.607.894-1.143.925l-1.143.07a3.166 3.166 0 00-2.933 3.733l.21 1.128a1.264 1.264 0 01-.63 1.338l-1.003.56a3.17 3.17 0 00-1.019 4.643l.677.925a1.26 1.26 0 01.008 1.478l-.661.941a3.177 3.177 0 00-.498 2.559c.21.886.785 1.633 1.587 2.069l1.01.544c.483.257.74.786.654 1.322l-.195 1.136a3.199 3.199 0 00.662 2.52 3.18 3.18 0 002.325 1.174l1.151.047a1.256 1.256 0 011.159.91l.319 1.104a3.185 3.185 0 003.048 2.286c.428 0 .856-.085 1.253-.256l1.057-.451a1.28 1.28 0 011.439.319l.77.855a3.171 3.171 0 004.752-.039l.747-.879c.35-.404.94-.544 1.438-.342l1.066.436c.389.155.793.24 1.205.24a3.171 3.171 0 003.057-2.332l.303-1.105c.14-.52.607-.894 1.143-.925l1.144-.063a3.165 3.165 0 002.932-3.733l-.21-1.127a1.248 1.248 0 01.63-1.33l1.003-.56a3.17 3.17 0 001.019-4.643l-.669-.941zm-.646 3.072a1.255 1.255 0 01-.622.832l-1.003.56a3.165 3.165 0 00-1.579 3.344l.21 1.128c.07.358-.023.723-.249 1.01a1.254 1.254 0 01-.917.483l-1.144.062a3.172 3.172 0 00-2.877 2.326l-.304 1.104a1.265 1.265 0 01-1.703.84l-1.065-.436a3.235 3.235 0 00-1.206-.24c-.918 0-1.789.396-2.395 1.088l-.755.864c-.24.28-.583.435-.956.435-.366 0-.7-.148-.941-.42l-.77-.855a3.182 3.182 0 00-3.617-.802l-1.057.452a1.267 1.267 0 01-1.711-.809l-.32-1.105a3.178 3.178 0 00-2.908-2.286l-1.151-.047a1.228 1.228 0 01-.926-.467 1.239 1.239 0 01-.264-1.003l.187-1.135a3.164 3.164 0 00-1.634-3.321l-1.01-.545a1.212 1.212 0 01-.63-.824 1.244 1.244 0 01.194-1.019l.66-.94a3.164 3.164 0 00-.03-3.703l-.677-.925a1.223 1.223 0 01-.21-1.02c.078-.357.303-.652.622-.831l1.004-.56a3.165 3.165 0 001.578-3.345l-.194-1.112a1.24 1.24 0 01.249-1.01c.225-.289.552-.46.918-.483l1.143-.07a3.172 3.172 0 002.878-2.325l.303-1.105a1.265 1.265 0 011.703-.84l1.066.436c.388.155.793.24 1.205.24.918 0 1.789-.396 2.395-1.088l.755-.863c.24-.28.583-.436.956-.436.366 0 .7.148.941.42l.77.856a3.183 3.183 0 003.617.8l1.058-.45a1.267 1.267 0 011.711.809l.319 1.104a3.178 3.178 0 002.908 2.286l1.151.047c.366.016.7.179.926.467.233.288.326.645.264 1.003l-.187 1.136a3.165 3.165 0 001.634 3.32l1.01.545c.328.171.553.466.639.824.085.358.015.724-.195 1.02l-.66.94a3.164 3.164 0 00.03 3.702l.677.926c.186.287.264.645.186 1.01z" fill="#fff"/><path d="M51.328 34.607a1.26 1.26 0 01-.008-1.478l.661-.941a3.177 3.177 0 00-1.089-4.628l-1.01-.544a1.264 1.264 0 01-.654-1.322l.194-1.136a3.198 3.198 0 00-.66-2.52 3.18 3.18 0 00-2.326-1.174l-1.159-.039a1.256 1.256 0 01-1.159-.91l-.319-1.104a3.185 3.185 0 00-3.048-2.287c-.428 0-.856.086-1.252.257l-1.058.451a1.28 1.28 0 01-1.439-.319l-.77-.855A3.179 3.179 0 0033.876 15c-.918 0-1.79.397-2.396 1.089l-.746.879c-.35.404-.941.544-1.44.342l-1.065-.436a3.235 3.235 0 00-1.205-.24 3.172 3.172 0 00-3.057 2.332l-.303 1.105c-.14.52-.607.894-1.143.925l-1.143.07a3.166 3.166 0 00-2.933 3.733l.21 1.128a1.264 1.264 0 01-.63 1.338l-1.003.56a3.17 3.17 0 00-1.019 4.643l.677.925a1.26 1.26 0 01.008 1.478l-.661.941a3.177 3.177 0 00-.498 2.559c.21.886.785 1.633 1.587 2.069l1.01.544c.483.257.74.786.654 1.322l-.195 1.136a3.199 3.199 0 00.662 2.52 3.18 3.18 0 002.325 1.174l1.151.047a1.256 1.256 0 011.159.91l.319 1.104a3.185 3.185 0 003.048 2.286c.428 0 .856-.085 1.253-.256l1.057-.451a1.28 1.28 0 011.439.319l.77.855a3.171 3.171 0 004.752-.039l.747-.879c.35-.404.94-.544 1.438-.342l1.066.436c.389.155.793.24 1.205.24a3.171 3.171 0 003.057-2.332l.303-1.105c.14-.52.607-.894 1.143-.925l1.144-.063a3.165 3.165 0 002.932-3.733l-.21-1.127a1.248 1.248 0 01.63-1.33l1.003-.56a3.17 3.17 0 001.019-4.643l-.669-.941zm-.646 3.072a1.255 1.255 0 01-.622.832l-1.003.56a3.165 3.165 0 00-1.579 3.344l.21 1.128c.07.358-.023.723-.249 1.01a1.254 1.254 0 01-.917.483l-1.144.062a3.172 3.172 0 00-2.877 2.326l-.304 1.104a1.265 1.265 0 01-1.703.84l-1.065-.436a3.235 3.235 0 00-1.206-.24c-.918 0-1.789.396-2.395 1.088l-.755.864c-.24.28-.583.435-.956.435-.366 0-.7-.148-.941-.42l-.77-.855a3.182 3.182 0 00-3.617-.802l-1.057.452a1.267 1.267 0 01-1.711-.809l-.32-1.105a3.178 3.178 0 00-2.908-2.286l-1.151-.047a1.228 1.228 0 01-.926-.467 1.239 1.239 0 01-.264-1.003l.187-1.135a3.164 3.164 0 00-1.634-3.321l-1.01-.545a1.212 1.212 0 01-.63-.824 1.244 1.244 0 01.194-1.019l.66-.94a3.164 3.164 0 00-.03-3.703l-.677-.925a1.223 1.223 0 01-.21-1.02c.078-.357.303-.652.622-.831l1.004-.56a3.165 3.165 0 001.578-3.345l-.194-1.112a1.24 1.24 0 01.249-1.01c.225-.289.552-.46.918-.483l1.143-.07a3.172 3.172 0 002.878-2.325l.303-1.105a1.265 1.265 0 011.703-.84l1.066.436c.388.155.793.24 1.205.24.918 0 1.789-.396 2.395-1.088l.755-.863c.24-.28.583-.436.956-.436.366 0 .7.148.941.42l.77.856a3.183 3.183 0 003.617.8l1.058-.45a1.267 1.267 0 011.711.809l.319 1.104a3.178 3.178 0 002.908 2.286l1.151.047c.366.016.7.179.926.467.233.288.326.645.264 1.003l-.187 1.136a3.165 3.165 0 001.634 3.32l1.01.545c.328.171.553.466.639.824.085.358.015.724-.195 1.02l-.66.94a3.164 3.164 0 00.03 3.702l.677.926c.186.287.264.645.186 1.01z" fill="url(#paint1_linear)"/></g><defs><linearGradient id="paint0_linear" x1="34" y1="25.305" x2="34" y2="41.544" gradientUnits="userSpaceOnUse"><stop stop-color="#FF9FC8"/><stop offset="1" stop-color="#FF579E"/></linearGradient><linearGradient id="paint1_linear" x1="34" y1="15" x2="34" y2="53" gradientUnits="userSpaceOnUse"><stop stop-color="#FF9FC8"/><stop offset="1" stop-color="#FF579E"/></linearGradient><filter id="filter0_d" x="0" y="0" width="68" height="68" filterUnits="userSpaceOnUse" color-interpolation-filters="sRGB"><feFlood flood-opacity="0" result="BackgroundImageFix"/><feColorMatrix in="SourceAlpha" values="0 0 0 0 0 0 0 0 0 0 0 0 0 0 0 0 0 0 127 0"/><feOffset/><feGaussianBlur stdDeviation="7.5"/><feColorMatrix values="0 0 0 0 1 0 0 0 0 0.341176 0 0 0 0 0.619608 0 0 0 1 0"/><feBlend in2="BackgroundImageFix" result="effect1_dropShadow"/><feBlend in="SourceGraphic" in2="effect1_dropShadow" result="shape"/></filter></defs></svg>