<svg width="64" height="64" fill="none" xmlns="http://www.w3.org/2000/svg"><g filter="url(#filter0_d)"><path d="M40.733 18.495c.025-.087.052-.178.073-.27.229-1.003.154-1.73-.239-2.232-.196-.254-.578-.562-1.241-.562-.09 0-.185.006-.28.017H24.954a2.572 2.572 0 00-.281-.017c-.663 0-1.046.308-1.241.562-.393.501-.468 1.23-.24 2.232.022.092.049.183.074.27-2.8.852-4.843 3.49-4.843 6.612v17.94H22.5v5.522h19.003v-5.523h4.074V25.107c0-3.123-2.042-5.76-4.843-6.612zm-1.614-1.667h.043v-.005c.053-.01.111-.01.164-.01.07 0 .154.01.181.037.005.01.164.227-.022 1.063-.344 1.494-2.047 2.367-3.422 2.837-.71.242-1.41.404-1.967.512 1.214-2.195 3.75-4.223 5.023-4.434zm-2.897 0c-.275.21-.55.443-.827.69-1.347 1.225-2.392 2.66-2.923 3.997h-.945c-.53-1.337-1.575-2.772-2.922-3.996a13.78 13.78 0 00-.828-.69h8.445zm-11.73.022c.028-.027.107-.038.182-.038v.016h.207c1.273.21 3.809 2.239 5.023 4.434a14.65 14.65 0 01-1.947-.507c-1.38-.47-3.098-1.343-3.442-2.842-.191-.836-.027-1.052-.022-1.063zm19.726 24.816h-2.717V26.488h-1.357v20.7H23.856v-20.7H22.5v15.178h-2.717V25.107c0-1.472.568-2.858 1.591-3.904a5.372 5.372 0 012.542-1.457c.266.356.594.685.992.987.684.523 1.565.976 2.62 1.332.621.21 1.231.367 1.756.48v5.324c0 .383.309.69.68.69.377 0 .68-.307.68-.69v-4.973h2.715v4.973c0 .383.302.69.68.69.37 0 .679-.307.679-.69v-5.323c.525-.114 1.135-.27 1.755-.48 1.056-.357 1.937-.81 2.621-1.333.398-.302.726-.63.992-.987.955.238 1.83.734 2.541 1.457a5.553 5.553 0 011.592 3.904v16.559z" fill="url(#paint0_linear)"/><path fill-rule="evenodd" clip-rule="evenodd" d="M23.1 15.725c.264-.341.762-.725 1.574-.725.099 0 .201.006.303.016h14.046c.102-.01.204-.016.303-.016.812 0 1.31.384 1.574.725.495.632.555 1.485.344 2.488C44.017 19.235 46 21.935 46 25.107v18.37h-4.074V49H22.074v-5.523H18v-18.37c0-3.172 1.983-5.872 4.756-6.894-.211-1.003-.15-1.856.344-2.488zm1.574.138c-.514 0-.78.23-.908.396l-.001.002c-.273.348-.376.912-.158 1.867.017.076.04.155.066.242l.124.414-.408.124c-2.627.8-4.54 3.272-4.54 6.2v17.507h4.074v5.522h18.154v-5.522h4.075V25.107c0-2.927-1.914-5.4-4.541-6.199l-.408-.124.124-.414c.026-.087.049-.166.066-.242.218-.955.115-1.519-.157-1.867l-.002-.002c-.129-.166-.394-.396-.908-.396-.073 0-.153.004-.234.013l-.023.003H24.93l-.023-.003a2.168 2.168 0 00-.234-.013zM39.15 17.26c-.243.047-.575.183-.971.414a9.29 9.29 0 00-1.32.956 11.71 11.71 0 00-1.843 1.982c.295-.076.603-.167.912-.272.667-.228 1.393-.547 1.987-.977.594-.43 1.017-.943 1.157-1.548.056-.255.075-.434.078-.555zm.168-.88h.008c.053 0 .117.004.182.015a.685.685 0 01.117.032.504.504 0 01.182.117l.052.053.031.067c-.036-.077.023.041.04.088.026.071.047.16.06.272.023.22.009.534-.091.983v.003c-.205.888-.806 1.559-1.492 2.056-.688.498-1.5.85-2.209 1.091-.734.252-1.455.418-2.023.527l-.896.174.447-.809c.638-1.153 1.613-2.247 2.586-3.08.489-.416.983-.774 1.445-1.043.337-.197.671-.355.98-.45v-.008l.11-.023c.07-.018.138-.032.204-.043l.034-.006h.008c.09-.016.18-.016.225-.016zm-14.22.052v-.052h-.424c-.054 0-.12.003-.185.016a.665.665 0 00-.119.033.503.503 0 00-.177.115l-.052.053-.031.067c.045-.096-.026.05-.039.084-.027.072-.05.162-.062.274-.025.223-.01.537.093.987.204.891.81 1.564 1.5 2.062.693.498 1.51.85 2.22 1.091.73.252 1.442.413 2.002.522l.898.176-.448-.81c-.638-1.154-1.613-2.248-2.586-3.08a10.135 10.135 0 00-1.445-1.044c-.398-.232-.79-.41-1.145-.494zm-.25.827c.003.12.022.3.08.555.14.607.566 1.121 1.165 1.553.598.43 1.33.75 2 .978.303.104.603.192.89.267a11.707 11.707 0 00-1.841-1.982 9.285 9.285 0 00-1.32-.956c-.398-.231-.732-.367-.975-.415zm1.658-.863h10.988l-1.017.776c-.264.202-.53.426-.8.668-1.31 1.192-2.31 2.573-2.811 3.835l-.107.27H31.24l-.107-.27c-.5-1.261-1.5-2.643-2.81-3.835-.27-.242-.537-.466-.801-.668l-1.017-.776zm2.45.863c1.264 1.163 2.276 2.517 2.852 3.824h.384c.576-1.307 1.588-2.66 2.852-3.824h-6.088zm-4.871 2l.168.226c.24.32.539.622.908.902.64.49 1.479.923 2.5 1.268.603.204 1.197.357 1.71.468l.337.072v5.673c0 .142.116.259.255.259a.255.255 0 00.255-.259v-5.404h3.564v5.404a.255.255 0 10.51 0v-5.673l.337-.072a15.69 15.69 0 001.709-.468c1.022-.345 1.86-.778 2.5-1.267l.001-.001c.37-.28.669-.581.908-.902l.168-.226.27.067a5.793 5.793 0 012.741 1.57l.001.002a5.988 5.988 0 011.715 4.208v16.99h-3.565V26.92h-.51l.001 20.7H23.432v-20.7h-.51v15.178h-3.564v-16.99c0-1.587.613-3.082 1.715-4.209a5.793 5.793 0 012.741-1.57l.27-.068zm-.326.976c-.78.24-1.493.67-2.085 1.271a5.118 5.118 0 00-1.468 3.6v16.127h1.868V26.057h2.207v20.7h15.438v-20.7h2.207v15.177h1.868V25.107a5.118 5.118 0 00-1.468-3.6 4.956 4.956 0 00-2.085-1.27 5.557 5.557 0 01-.893.841c-.729.557-1.654 1.03-2.742 1.397-.51.172-1.01.31-1.465.417v4.977c0 .624-.501 1.121-1.104 1.121a1.11 1.11 0 01-1.103-1.121v-4.542h-1.867v4.542a1.11 1.11 0 01-1.104 1.121 1.114 1.114 0 01-1.104-1.121v-4.977a16.152 16.152 0 01-1.465-.417c-1.088-.368-2.013-.84-2.742-1.397a5.562 5.562 0 01-.893-.841z" fill="url(#paint1_linear)"/></g><defs><linearGradient id="paint0_linear" x1="32" y1="15" x2="32" y2="49" gradientUnits="userSpaceOnUse"><stop stop-color="#FF9FC8"/><stop offset="1" stop-color="#FF579E"/></linearGradient><linearGradient id="paint1_linear" x1="32" y1="15" x2="32" y2="49" gradientUnits="userSpaceOnUse"><stop stop-color="#FF9FC8"/><stop offset="1" stop-color="#FF579E"/></linearGradient><filter id="filter0_d" x="3" y="0" width="58" height="64" filterUnits="userSpaceOnUse" color-interpolation-filters="sRGB"><feFlood flood-opacity="0" result="BackgroundImageFix"/><feColorMatrix in="SourceAlpha" values="0 0 0 0 0 0 0 0 0 0 0 0 0 0 0 0 0 0 127 0"/><feOffset/><feGaussianBlur stdDeviation="7.5"/><feColorMatrix values="0 0 0 0 1 0 0 0 0 0.341176 0 0 0 0 0.619608 0 0 0 1 0"/><feBlend in2="BackgroundImageFix" result="effect1_dropShadow"/><feBlend in="SourceGraphic" in2="effect1_dropShadow" result="shape"/></filter></defs></svg>