<svg width="60" height="65" fill="none" xmlns="http://www.w3.org/2000/svg"><g filter="url(#filter0_d)"><path d="M44.827 41.198c-.004-.116-.592-16.12-.597-16.164a7.259 7.259 0 00-7.224-6.562h-.032v-1.43c0-1.103-.898-2-2-2h-9.886c-1.102 0-2 .897-2 2v1.43h-.032a7.26 7.26 0 00-7.224 6.562c-.005.045-.593 16.048-.597 16.164-.033.88.402 1.67 1.092 2.128l-.087 2.137a2.144 2.144 0 002.144 2.226h2.022v.353a1 1 0 001 1h17.25a1 1 0 001-1v-.353h2.022c1.21 0 2.19-1 2.144-2.229l-.087-2.134a2.438 2.438 0 001.092-2.128zm-7.17 5.844H22.405v-1.34h15.25v1.34zM17.825 25.198a5.238 5.238 0 015.23-4.726h4.264v23.23H21.93a.506.506 0 01-.506-.512l.524-17.09v-.029a1 1 0 00-2-.03l-.48 15.692h-1.79a.445.445 0 01-.445-.462c.06-1.666.526-14.289.592-16.073zm7.262-8.156h9.886v1.43h-9.886v-1.43zm17.74 24.23a.445.445 0 01-.444.461h-1.79l-.482-15.693a1.001 1.001 0 00-2 .031l.001.03.524 17.083a.506.506 0 01-.506.518h-5.389v-23.23h4.264a5.238 5.238 0 015.23 4.726l.592 16.073zm-13.508-20.8h1.422v23.23H29.32v-23.23zM18.238 45.54l.074-1.808h1.17c.127.588.463 1.098.924 1.452v.504h-2.022a.146.146 0 01-.146-.148zm21.418-.356c.464-.356.796-.866.924-1.452h1.17l.073 1.805a.145.145 0 01-.145.15h-2.022v-.503z" fill="#000"/><path d="M44.827 41.198c-.004-.116-.592-16.12-.597-16.164a7.259 7.259 0 00-7.224-6.562h-.032v-1.43c0-1.103-.898-2-2-2h-9.886c-1.102 0-2 .897-2 2v1.43h-.032a7.26 7.26 0 00-7.224 6.562c-.005.045-.593 16.048-.597 16.164-.033.88.402 1.67 1.092 2.128l-.087 2.137a2.144 2.144 0 002.144 2.226h2.022v.353a1 1 0 001 1h17.25a1 1 0 001-1v-.353h2.022c1.21 0 2.19-1 2.144-2.229l-.087-2.134a2.438 2.438 0 001.092-2.128zm-7.17 5.844H22.405v-1.34h15.25v1.34zM17.825 25.198a5.238 5.238 0 015.23-4.726h4.264v23.23H21.93a.506.506 0 01-.506-.512l.524-17.09v-.029a1 1 0 00-2-.03l-.48 15.692h-1.79a.445.445 0 01-.445-.462c.06-1.666.526-14.289.592-16.073zm7.262-8.156h9.886v1.43h-9.886v-1.43zm17.74 24.23a.445.445 0 01-.444.461h-1.79l-.482-15.693a1.001 1.001 0 00-2 .031l.001.03.524 17.083a.506.506 0 01-.506.518h-5.389v-23.23h4.264a5.238 5.238 0 015.23 4.726l.592 16.073zm-13.508-20.8h1.422v23.23H29.32v-23.23zM18.238 45.54l.074-1.808h1.17c.127.588.463 1.098.924 1.452v.504h-2.022a.146.146 0 01-.146-.148zm21.418-.356c.464-.356.796-.866.924-1.452h1.17l.073 1.805a.145.145 0 01-.145.15h-2.022v-.503z" fill="url(#paint0_linear)"/><path d="M24.633 40.3l.033.032a1 1 0 101.381-1.446l-1.777-1.698a1 1 0 00-1.381 1.446l1.744 1.666z" fill="#000"/><path d="M24.633 40.3l.033.032a1 1 0 101.381-1.446l-1.777-1.698a1 1 0 00-1.381 1.446l1.744 1.666z" fill="url(#paint1_linear)"/><path d="M35.792 37.188l-1.777 1.698a1 1 0 101.381 1.445l.033-.031 1.744-1.666a1 1 0 10-1.38-1.446z" fill="#000"/><path d="M35.792 37.188l-1.777 1.698a1 1 0 101.381 1.445l.033-.031 1.744-1.666a1 1 0 10-1.38-1.446z" fill="url(#paint2_linear)"/></g><defs><linearGradient id="paint0_linear" x1="30.031" y1="15.042" x2="30.031" y2="49.042" gradientUnits="userSpaceOnUse"><stop stop-color="#FF9FC8"/><stop offset="1" stop-color="#FF579E"/></linearGradient><linearGradient id="paint1_linear" x1="24.468" y1="36.911" x2="24.468" y2="40.609" gradientUnits="userSpaceOnUse"><stop stop-color="#FF9FC8"/><stop offset="1" stop-color="#FF579E"/></linearGradient><linearGradient id="paint2_linear" x1="35.594" y1="36.911" x2="35.594" y2="40.609" gradientUnits="userSpaceOnUse"><stop stop-color="#FF9FC8"/><stop offset="1" stop-color="#FF579E"/></linearGradient><filter id="filter0_d" x="-1.958" y=".042" width="64" height="64" filterUnits="userSpaceOnUse" color-interpolation-filters="sRGB"><feFlood flood-opacity="0" result="BackgroundImageFix"/><feColorMatrix in="SourceAlpha" values="0 0 0 0 0 0 0 0 0 0 0 0 0 0 0 0 0 0 127 0"/><feOffset/><feGaussianBlur stdDeviation="7.5"/><feColorMatrix values="0 0 0 0 1 0 0 0 0 0.341176 0 0 0 0 0.619608 0 0 0 1 0"/><feBlend in2="BackgroundImageFix" result="effect1_dropShadow"/><feBlend in="SourceGraphic" in2="effect1_dropShadow" result="shape"/></filter></defs></svg>