<svg width="116" height="112" fill="none" xmlns="http://www.w3.org/2000/svg"><path d="M76.172 35.416h28.246c9.685 0 13.711 12.393 5.877 18.085L87.443 70.104" stroke="#10CCC1" stroke-width="2.678" stroke-linecap="round"/><path d="M87.445 70.104l8.728 26.864c2.993 9.211-7.549 16.87-15.384 11.177L57.937 91.543" stroke="#9F72FF" stroke-width="2.678" stroke-linecap="round"/><path d="M76.168 35.416L67.44 8.552c-2.992-9.21-16.022-9.21-19.015 0l-8.729 26.864" stroke="#FFA800" stroke-width="2.678" stroke-linecap="round"/><path d="M28.43 70.104L5.578 53.501c-7.835-5.692-3.809-18.084 5.876-18.084H39.7" stroke="#ED534B" stroke-width="2.678" stroke-linecap="round"/><path d="M57.936 91.543l-22.852 16.602c-7.835 5.693-18.376-1.966-15.384-11.177l8.73-26.864" stroke="#FF57C6" stroke-width="2.678" stroke-linecap="round"/><path d="M113.514 47.155c-1.582-1.15-3.568-1.853-5.877-1.853H83.133" stroke="#10CCC1" stroke-width="2.678" stroke-linecap="round"/><path d="M88.089 109.194c.654-1.897.734-4.062 0-6.32L80.582 79.77" stroke="#9F72FF" stroke-width="2.678" stroke-linecap="round"/><path d="M62.51 3.297c-1.74 1.15-3.159 2.903-3.923 5.255l-7.665 23.59" stroke="#FFA800" stroke-width="2.678" stroke-linecap="round"/><path d="M4.852 39.123c.598 1.88 1.796 3.637 3.681 5.006l19.988 14.522" stroke="#ED534B" stroke-width="2.678" stroke-linecap="round"/><path d="M20.348 103.903c2.2.187 4.528-.375 6.655-1.92l19.793-14.38" stroke="#FF57C6" stroke-width="2.678" stroke-linecap="round"/></svg>