<svg width="32" height="23" viewBox="0 0 32 23" fill="none" xmlns="http://www.w3.org/2000/svg">
<path d="M1.74594 6.83398C1.37811 6.42201 0.745954 6.38623 0.333984 6.75406C-0.0779858 7.12189 -0.113768 7.75405 0.254062 8.16602L1.74594 6.83398ZM13.5 21.5L12.7541 22.166C12.945 22.3798 13.2184 22.5014 13.505 22.5C13.7916 22.4986 14.0638 22.3742 14.2526 22.1585L13.5 21.5ZM31.7526 2.1585C32.1163 1.74287 32.0741 1.11111 31.6585 0.747423C31.2429 0.383741 30.6111 0.425859 30.2474 0.841495L31.7526 2.1585ZM0.254062 8.16602L12.7541 22.166L14.2459 20.834L1.74594 6.83398L0.254062 8.16602ZM14.2526 22.1585L31.7526 2.1585L30.2474 0.841495L12.7474 20.8415L14.2526 22.1585Z" fill="#FF579E"/>
</svg>
