<svg width="180" height="131" viewBox="0 0 180 131" fill="none" xmlns="http://www.w3.org/2000/svg">
<path d="M29.77 120.41L28.1897 122.96L28.2106 122.973L28.2318 122.986L29.77 120.41ZM10.73 98.99L8.02747 100.292L8.03695 100.312L8.04672 100.332L10.73 98.99ZM10.73 32.18L8.04027 30.8513L8.03697 30.858L8.0337 30.8647L10.73 32.18ZM29.77 10.76L31.3241 13.3261L31.3344 13.3198L29.77 10.76ZM85.7 10.76L84.1197 13.31L84.1406 13.323L84.1618 13.3356L85.7 10.76ZM104.74 32.18L102.037 33.4824L102.047 33.5021L102.057 33.5216L104.74 32.18ZM104.74 98.99L102.05 97.6613L102.047 97.668L102.044 97.6747L104.74 98.99ZM85.7 120.41L87.2541 122.976L87.2644 122.97L85.7 120.41ZM57.82 124.72C47.761 124.72 38.9537 122.4 31.3082 117.834L28.2318 122.986C36.9063 128.166 46.799 130.72 57.82 130.72V124.72ZM31.3503 117.86C23.8217 113.194 17.8364 106.495 13.4133 97.6484L8.04672 100.332C12.9169 110.072 19.625 117.652 28.1897 122.96L31.3503 117.86ZM13.4325 97.6876C9.13584 88.7719 6.93 78.0736 6.93 65.5H0.93C0.93 78.7663 3.25749 90.3947 8.02747 100.292L13.4325 97.6876ZM6.93 65.5C6.93 52.9249 9.13633 42.2897 13.4263 33.4953L8.0337 30.8647C3.257 40.6569 0.93 52.2351 0.93 65.5H6.93ZM13.4197 33.5087C17.8435 24.5532 23.8212 17.8701 31.3241 13.3261L28.2159 8.19391C19.6255 13.3965 12.9098 20.9935 8.04027 30.8513L13.4197 33.5087ZM31.3344 13.3198C38.976 8.64993 47.7738 6.27999 57.82 6.27999V0.279995C46.7862 0.279995 36.884 2.89673 28.2057 8.20015L31.3344 13.3198ZM57.82 6.27999C67.8669 6.27999 76.6002 8.65006 84.1197 13.31L87.2803 8.20996C78.7065 2.8966 68.8531 0.279995 57.82 0.279995V6.27999ZM84.1618 13.3356C91.768 17.8782 97.733 24.5507 102.037 33.4824L107.443 30.8776C102.68 20.996 95.952 13.3884 87.2382 8.18436L84.1618 13.3356ZM102.057 33.5216C106.451 42.3094 108.71 52.9348 108.71 65.5H114.71C114.71 52.2252 112.323 40.6373 107.423 30.8384L102.057 33.5216ZM108.71 65.5C108.71 78.0638 106.451 88.7524 102.05 97.6613L107.43 100.319C112.322 90.4143 114.71 78.7762 114.71 65.5H108.71ZM102.044 97.6747C97.74 106.497 91.7676 113.186 84.1357 117.85L87.2644 122.97C95.9524 117.66 102.673 110.069 107.436 100.305L102.044 97.6747ZM84.1459 117.844C76.6226 122.4 67.8798 124.72 57.82 124.72V130.72C68.8402 130.72 78.684 128.166 87.2541 122.976L84.1459 117.844ZM57.82 98.59C60.6779 98.59 63.2963 97.7864 65.5506 96.1238C67.7707 94.4865 69.4711 92.1409 70.7537 89.3031C73.2861 83.7001 74.42 75.6623 74.42 65.5H68.42C68.42 75.3977 67.2872 82.4049 65.2863 86.8319C64.3022 89.0091 63.1694 90.4247 61.9894 91.295C60.8437 92.1399 59.4955 92.59 57.82 92.59V98.59ZM74.42 65.5C74.42 55.3377 73.2861 47.2999 70.7537 41.6969C69.4711 38.8591 67.7707 36.5135 65.5506 34.8762C63.2963 33.2136 60.6779 32.41 57.82 32.41V38.41C59.4955 38.41 60.8437 38.8601 61.9894 39.705C63.1694 40.5753 64.3022 41.9909 65.2863 44.1681C67.2872 48.5951 68.42 55.6023 68.42 65.5H74.42ZM57.82 32.41C54.9622 32.41 52.3437 33.2136 50.0894 34.8762C47.8694 36.5135 46.1689 38.8591 44.8863 41.6969C42.3539 47.2999 41.22 55.3377 41.22 65.5H47.22C47.22 55.6023 48.3528 48.5951 50.3537 44.1681C51.3378 41.9909 52.4706 40.5753 53.6506 39.705C54.7963 38.8601 56.1445 38.41 57.82 38.41V32.41ZM41.22 65.5C41.22 75.6623 42.3539 83.7001 44.8863 89.3031C46.1689 92.1409 47.8694 94.4865 50.0894 96.1238C52.3437 97.7864 54.9622 98.59 57.82 98.59V92.59C56.1445 92.59 54.7963 92.1399 53.6506 91.295C52.4706 90.4247 51.3378 89.0091 50.3537 86.8319C48.3528 82.4049 47.22 75.3977 47.22 65.5H41.22ZM176.415 5.99999H179.415V2.99999H176.415V5.99999ZM176.415 125V128H179.415V125H176.415ZM136.295 125H133.295V128H136.295V125ZM136.295 36.26H139.295V33.26H136.295V36.26ZM115.895 36.26H112.895V39.26H115.895V36.26ZM115.895 5.99999V2.99999H112.895V5.99999H115.895ZM173.415 5.99999V125H179.415V5.99999H173.415ZM176.415 122H136.295V128H176.415V122ZM139.295 125V36.26H133.295V125H139.295ZM136.295 33.26H115.895V39.26H136.295V33.26ZM118.895 36.26V5.99999H112.895V36.26H118.895ZM115.895 8.99999H176.415V2.99999H115.895V8.99999Z" fill="url(#paint0_linear)"/>
<defs>
<linearGradient id="paint0_linear" x1="-65.0909" y1="-38" x2="244.965" y2="52.2181" gradientUnits="userSpaceOnUse">
<stop stop-color="#FFA800"/>
<stop offset="0.546875" stop-color="#FF57C6"/>
<stop offset="1" stop-color="#1099E6"/>
</linearGradient>
</defs>
</svg>
