<svg width="56" height="61" viewBox="0 0 56 61" fill="none" xmlns="http://www.w3.org/2000/svg">
<g clip-path="url(#clip0)">
<path d="M52.571 7.84223L45.0058 0.277029C44.8365 0.107617 44.597 0 44.3371 0H29.098C28.5758 0 28.1523 0.423389 28.1523 0.945672V28.0544C28.1523 28.5766 28.5757 29.0001 29.098 29.0001H51.9023C52.4246 29.0001 52.848 28.5767 52.848 28.0544V8.51088C52.848 8.27066 52.7529 8.02405 52.571 7.84223ZM45.2828 3.22863L47.4511 5.39689L49.6194 7.56521H45.2828V3.22863ZM50.9567 27.1087H30.0436V1.89129H43.3915V8.51088C43.3915 9.0331 43.8149 9.45655 44.3371 9.45655H50.9567V27.1087Z" fill="#FF4079"/>
<path d="M47.9976 13.8696H33.0665C32.4776 13.8696 32 14.293 32 14.8153C32 15.3375 32.4775 15.761 33.0665 15.761H47.9976C48.5866 15.761 49.0641 15.3376 49.0641 14.8153C49.0641 14.293 48.5866 13.8696 47.9976 13.8696Z" fill="#FF4079"/>
<path d="M47.9976 17.6521H33.0665C32.4776 17.6521 32 18.0755 32 18.5978C32 19.1201 32.4775 19.5434 33.0665 19.5434H47.9976C48.5866 19.5434 49.0641 19.1201 49.0641 18.5978C49.0641 18.0755 48.5866 17.6521 47.9976 17.6521Z" fill="#FF4079"/>
<path d="M41.5986 21.4348H33.0665C32.4776 21.4348 32 21.8582 32 22.3805C32 22.9028 32.4775 23.3262 33.0665 23.3262H41.5985C42.1875 23.3262 42.665 22.9028 42.665 22.3805C42.665 21.8582 42.1875 21.4348 41.5986 21.4348Z" fill="#FF4079"/>
</g>
<path d="M22 1H3C1.89543 1 1 1.89543 1 3V26C1 27.1046 1.89543 28 3 28H22C23.1046 28 24 27.1046 24 26V3C24 1.89543 23.1046 1 22 1Z" stroke="#FF4079" stroke-width="2"/>
<path d="M50 33H31C29.8954 33 29 33.8954 29 35V58C29 59.1046 29.8954 60 31 60H50C51.1046 60 52 59.1046 52 58V35C52 33.8954 51.1046 33 50 33Z" stroke="#FF4079" stroke-width="2"/>
<path d="M22 33H3C1.89543 33 1 33.8954 1 35V58C1 59.1046 1.89543 60 3 60H22C23.1046 60 24 59.1046 24 58V35C24 33.8954 23.1046 33 22 33Z" stroke="#FF4079" stroke-width="2"/>
<defs>
<clipPath id="clip0">
<rect width="29" height="29" fill="white" transform="translate(27)"/>
</clipPath>
</defs>
</svg>
