<svg width="67" height="67" viewBox="0 0 67 67" fill="none" xmlns="http://www.w3.org/2000/svg">
<path d="M9.69768 66.4415H60.3385C62.7051 66.4388 64.6228 64.521 64.6261 62.1544V47.7311H65.8604C66.1544 47.741 66.4407 47.6324 66.6545 47.4306C66.8689 47.2283 66.9932 46.949 66.9998 46.6545V40.6493C66.9998 38.2854 65.0542 36.4212 62.6903 36.4212H59.6065C60.0494 35.5834 60.2975 34.7947 60.2975 33.8865V33.8795C60.2795 31.2887 58.1829 29.1931 55.5921 29.1768C53.7824 29.1768 52.1303 29.8918 50.7193 31.2658L49.3803 19.6487C49.3132 19.0907 48.8327 18.6751 48.2709 18.6882H41.0287V13.6566C41.0287 6.42209 34.8124 0.536377 27.2054 0.536377C19.5988 0.536377 13.382 6.42209 13.382 13.6566V18.6882H5.3768C4.81447 18.6751 4.33449 19.0907 4.26686 19.6487L0.0594296 56.2093C-0.236737 58.7515 0.583586 61.2981 2.30714 63.1907C4.19541 65.277 6.88382 66.4595 9.69768 66.4415ZM36.5693 64.2074C35.4375 64.2074 34.4661 63.2856 34.4661 62.1544V47.7311H43.4024V64.2074H36.5693ZM45.6365 64.2074V47.7311H51.3613V64.2074H45.6365ZM62.392 62.1544C62.3904 63.2878 61.4713 64.2058 60.3385 64.2074H53.5953V47.7311H62.392V62.1544ZM64.7657 40.6498V45.4971H32.0924V40.6493C32.0924 39.5175 33.042 38.6552 34.1748 38.6552H62.6903C63.8221 38.6552 64.7657 39.5175 64.7657 40.6493V40.6498ZM38.8366 33.9198C38.8519 32.5606 39.9531 31.4648 41.3123 31.4556C44.3411 31.4556 46.0913 34.4669 46.8751 36.4217H41.2687C39.9056 36.4212 38.8377 35.3058 38.8366 33.9193V33.9198ZM55.5905 31.4119C56.9601 31.4387 58.0602 32.5497 58.0727 33.9198C58.07 35.3058 57.0026 36.4212 55.639 36.4212H50.0304C50.3004 35.7585 50.6238 35.1192 50.9986 34.51C52.2776 32.4733 53.8244 31.4114 55.5894 31.4114L55.5905 31.4119ZM15.6161 13.6566C15.6161 7.65366 20.8304 2.77045 27.2054 2.77045C33.5803 2.77045 38.7946 7.65366 38.7946 13.6566V18.6882H15.6161V13.6566ZM2.27877 56.4787L6.37275 20.9223H13.382V25.2088C13.382 25.8257 13.8822 26.3258 14.4991 26.3258C15.116 26.3258 15.6161 25.8257 15.6161 25.2088V20.9223H38.7946V25.2088C38.7946 25.8257 39.2948 26.3258 39.9116 26.3258C40.5285 26.3258 41.0287 25.8257 41.0287 25.2088V20.9223H47.2749L48.7699 33.8871C48.657 34.0873 48.5518 34.2716 48.4536 34.4652C48.2643 34.09 48.0472 33.6918 47.8013 33.2997C46.1104 30.6074 43.8458 29.1806 41.2845 29.1806C38.7062 29.1959 36.5605 31.3023 36.5605 33.8795V33.8865C36.5605 34.7941 36.8583 35.5828 37.3007 36.4206H34.1748C31.811 36.4212 29.8583 38.2854 29.8583 40.6493V46.6545C29.8671 46.9495 29.9925 47.2293 30.2079 47.4312C30.4228 47.633 30.7097 47.741 31.0048 47.7311H32.232V62.1544C32.2484 62.876 32.4464 63.5824 32.8069 64.2074H9.69768C7.52142 64.2287 5.43898 63.32 3.97396 61.7104C2.67803 60.2945 2.05951 58.3855 2.27877 56.4787Z" fill="#8F76D5"/>
</svg>
