<svg width="68" height="68" viewBox="0 0 68 68" fill="none" xmlns="http://www.w3.org/2000/svg">
<g clip-path="url(#clip0)">
<path d="M24.2524 34.911C21.2653 29.1247 19.6874 22.6124 19.6874 16.0792V9.88328H19.7522C20.9617 9.88328 21.9453 8.89971 21.9453 7.69019V5.49711C21.9453 4.31223 20.9976 3.349 19.8213 3.31099V2.20749C19.8213 0.998507 18.8345 0.0144043 17.6196 0.0144043H10.9874C9.77356 0.0144043 8.78678 0.998507 8.78678 2.20749V3.30403C7.57726 3.30403 6.5937 4.28813 6.5937 5.49711V7.69019C6.5937 8.89971 7.57726 9.88328 8.78678 9.88328H8.85157V16.0792C8.85157 22.6124 7.27368 29.1236 4.28657 34.9099L3.34476 36.7357C-0.782794 44.7317 -1.10512 54.0608 2.46078 62.3288L3.48611 64.7104C4.34814 66.7096 6.29761 68 8.45214 68H20.0858C22.2403 68 24.1898 66.7085 25.0518 64.7093L26.0782 62.3288C29.6441 54.0598 29.3218 44.7317 25.1942 36.7346L24.2524 34.911ZM10.9884 2.20749H17.6293V3.30403H10.9841L10.9884 2.20749ZM8.78678 5.49711H19.7522V7.69019H18.6557V7.70358C18.6337 7.70251 18.6139 7.69019 18.5909 7.69019H9.94704C9.92508 7.69019 9.90527 7.70251 9.88332 7.70358V7.69019H8.78678V5.49711ZM24.0661 61.4614L23.0397 63.8419C22.5241 65.0353 21.3654 65.8069 20.0868 65.8069H8.45214C7.17356 65.8069 6.01384 65.0353 5.4993 63.8419L4.4729 61.4603C1.16935 53.7969 1.46758 45.1514 5.29209 37.7412L6.23389 35.9154C9.38002 29.8186 11.0436 22.9599 11.0436 16.0781V9.88328H17.4943V16.0792C17.4943 22.9599 19.1579 29.8197 22.304 35.9165L23.2458 37.7412C27.0714 45.1514 27.3686 53.7969 24.0661 61.4614Z" fill="#C52FC8"/>
<path d="M47.1669 19.752H31.8153C31.2087 19.752 30.7188 20.2435 30.7188 20.8485V38.3932C30.7188 42.6262 34.1631 46.0689 38.3945 46.0689V58.8955L34.1926 65.1984C33.9688 65.5352 33.9468 65.9668 34.138 66.3234C34.3286 66.68 34.7001 66.9032 35.1049 66.9032H43.8773C44.282 66.9032 44.6536 66.681 44.8442 66.3244C45.0354 65.9684 45.0134 65.5352 44.7896 65.1995L40.5876 58.8955V46.0689C44.8191 46.0689 48.2634 42.6262 48.2634 38.3932V20.8485C48.2634 20.2435 47.7735 19.752 47.1669 19.752ZM41.8287 64.7101H37.1534L39.4911 61.2047L41.8287 64.7101ZM46.0703 21.945V30.7174H32.9118V21.945H46.0703ZM40.5876 43.8759H38.3945C35.3716 43.8759 32.9118 41.4167 32.9118 38.3932V32.9104H46.0703V38.3932C46.0703 41.4167 43.6106 43.8759 40.5876 43.8759Z" fill="#C52FC8"/>
<path d="M66.9051 19.752H51.5536C50.9469 19.752 50.457 20.2435 50.457 20.8485V38.3932C50.457 42.6262 53.9014 46.0689 58.1328 46.0689V58.8955L53.9308 65.1984C53.707 65.5352 53.6851 65.9668 53.8762 66.3234C54.0668 66.68 54.4384 66.9032 54.8432 66.9032H63.6155C64.0203 66.9032 64.3919 66.681 64.5825 66.3244C64.7736 65.9684 64.7517 65.5352 64.5279 65.1995L60.3259 58.8955V46.0689C64.5573 46.0689 68.0017 42.6262 68.0017 38.3932V20.8485C68.0017 20.2435 67.5118 19.752 66.9051 19.752ZM61.567 64.7101H56.8917L59.2294 61.2047L61.567 64.7101ZM65.8086 21.945V30.7174H52.6501V21.945H65.8086ZM60.3259 43.8759H58.1328C55.1098 43.8759 52.6501 41.4167 52.6501 38.3932V32.9104H65.8086V38.3932C65.8086 41.4167 63.3489 43.8759 60.3259 43.8759Z" fill="#C52FC8"/>
<path d="M40.6445 7.28671L42.7177 6.57031L46.0105 16.1035L43.9379 16.8199L40.6445 7.28671Z" fill="#C52FC8"/>
<path d="M52.7031 16.1015L55.9976 6.56836L58.0702 7.28475L54.7763 16.8179L52.7031 16.1015Z" fill="#C52FC8"/>
<path d="M48.2617 5.49683H50.4548V15.3657H48.2617V5.49683Z" fill="#C52FC8"/>
<path d="M14.2712 37.2966C8.8292 37.2966 4.40234 43.1996 4.40234 50.4551C4.40234 57.7111 8.8292 63.6136 14.2712 63.6136C19.7132 63.6136 24.1401 57.7111 24.1401 50.4551C24.1401 43.1996 19.7132 37.2966 14.2712 37.2966ZM14.2712 61.4205C10.0398 61.4205 6.59543 56.5016 6.59543 50.4551C6.59543 44.4092 10.0398 39.4897 14.2712 39.4897C18.5026 39.4897 21.947 44.4092 21.947 50.4551C21.947 56.5016 18.5026 61.4205 14.2712 61.4205Z" fill="#C52FC8"/>
</g>
<defs>
<clipPath id="clip0">
<rect width="68" height="68" fill="white"/>
</clipPath>
</defs>
</svg>
