<svg width="69" height="69" viewBox="0 0 69 69" fill="none" xmlns="http://www.w3.org/2000/svg">
<g clip-path="url(#clip0)">
<path d="M64.4007 13.8C61.8638 13.8 59.8008 15.8632 59.8008 18.4C59.8008 20.9368 61.8639 23 64.4007 23C66.9376 23 69.0007 20.937 69.0007 18.4C69.0007 15.8632 66.9376 13.8 64.4007 13.8ZM64.4007 20.7001C63.1323 20.7001 62.1007 19.6686 62.1007 18.4C62.1007 17.1316 63.1322 16.1 64.4007 16.1C65.6693 16.1 66.7008 17.1315 66.7008 18.4C66.7006 19.6686 65.6691 20.7001 64.4007 20.7001Z" fill="#FFA015"/>
<path d="M4.59996 51.75C2.06313 51.75 0 53.8131 0 56.35C0 58.8868 2.06313 60.9499 4.59996 60.9499C7.13692 60.9499 9.19991 58.8868 9.19991 56.35C9.19991 53.8131 7.13692 51.75 4.59996 51.75ZM4.59996 58.65C3.33154 58.65 2.29991 57.6185 2.29991 56.35C2.29991 55.0814 3.33141 54.0499 4.59996 54.0499C5.86837 54.0499 6.9 55.0814 6.9 56.35C6.9 57.6185 5.8685 58.65 4.59996 58.65Z" fill="#FFA015"/>
<path d="M62.1723 15.2536L52.2513 10.4639C51.6785 10.1867 50.992 10.4282 50.716 10.9998C50.44 11.5714 50.6803 12.2591 51.252 12.5351L61.173 17.3248C61.3341 17.403 61.5043 17.4398 61.6721 17.4398C62.0998 17.4398 62.5104 17.2005 62.7081 16.7888C62.9841 16.2173 62.7439 15.5296 62.1723 15.2536Z" fill="#FFA015"/>
<path d="M51.7484 59.8C49.2114 59.8 47.1484 61.8632 47.1484 64.4C47.1484 66.9368 49.2114 69.0001 51.7484 69.0001C54.2854 69.0001 56.3483 66.937 56.3483 64.4001C56.3483 61.8633 54.2854 59.8 51.7484 59.8ZM51.7484 66.7C50.48 66.7 49.4483 65.6686 49.4483 64.4C49.4483 63.1315 50.48 62.1001 51.7484 62.1001C53.0168 62.1001 54.0484 63.1316 54.0484 64.4001C54.0484 65.6687 53.0168 66.7 51.7484 66.7Z" fill="#FFA015"/>
<path d="M49.52 61.2538L39.5989 56.4641C39.0262 56.1868 38.3397 56.4273 38.0637 57C37.7877 57.5716 38.028 58.2593 38.5997 58.5353L48.5207 63.325C48.6817 63.4031 48.852 63.4399 49.0197 63.4399C49.4475 63.4399 49.8581 63.2007 50.056 62.789C50.3318 62.2173 50.0915 61.5298 49.52 61.2538Z" fill="#FFA015"/>
<path d="M34.4984 31.05C31.9614 31.05 29.8984 33.1132 29.8984 35.65C29.8984 38.187 31.9616 40.25 34.4984 40.25C37.0354 40.25 39.0983 38.1868 39.0983 35.65C39.0983 33.1132 37.0354 31.05 34.4984 31.05ZM34.4984 37.9501C33.23 37.9501 32.1983 36.9186 32.1983 35.65C32.1983 34.3816 33.2298 33.35 34.4984 33.35C35.7668 33.35 36.7984 34.3815 36.7984 35.65C36.7984 36.9186 35.7668 37.9501 34.4984 37.9501Z" fill="#FFA015"/>
<path d="M32.4785 32.6324L24.8575 26.6926C24.3561 26.305 23.634 26.3913 23.2429 26.8928C22.853 27.3942 22.9416 28.1163 23.443 28.5074L31.064 34.4472C31.2745 34.6105 31.5229 34.6899 31.7702 34.6899C32.1129 34.6899 32.4511 34.5381 32.6787 34.2472C33.0685 33.7456 32.98 33.0234 32.4785 32.6324Z" fill="#FFA015"/>
<path d="M55.1969 29.9001C48.2221 29.9001 42.5469 35.5754 42.5469 42.5502C42.5469 49.525 48.2221 55.2002 55.1969 55.2002C62.1717 55.2002 67.847 49.525 67.847 42.5502C67.847 35.5754 62.1717 29.9001 55.1969 29.9001ZM55.1969 52.9001C49.4895 52.9001 44.8469 48.2575 44.8469 42.5501C44.8469 36.8426 49.4895 32.2001 55.1969 32.2001C60.9044 32.2001 65.5469 36.8426 65.5469 42.5501C65.5469 48.2575 60.9044 52.9001 55.1969 52.9001Z" fill="#FFA015"/>
<path d="M55.1976 34.5C52.6606 34.5 50.5977 36.5631 50.5977 39.1C50.5977 41.6369 52.6608 43.6999 55.1976 43.6999C57.7346 43.6999 59.7976 41.6368 59.7976 39.1C59.7976 36.5631 57.7346 34.5 55.1976 34.5ZM55.1976 41.4C53.9292 41.4 52.8976 40.3685 52.8976 39.1C52.8976 37.8315 53.9291 36.7999 55.1976 36.7999C56.466 36.7999 57.4977 37.8314 57.4977 39.1C57.4977 40.3685 56.466 41.4 55.1976 41.4Z" fill="#FFA015"/>
<path d="M58.5369 46H51.8647C49.8994 46 48.3008 47.556 48.3008 49.4673V52.4987C48.3008 52.9092 48.5192 53.2887 48.8746 53.4946C50.802 54.61 52.9893 55.2 55.2008 55.2C57.4123 55.2 59.5995 54.61 61.5269 53.4946C61.8823 53.2899 62.1008 52.9092 62.1008 52.4999V49.4685C62.1008 47.556 60.5023 46 58.5369 46ZM59.8007 51.8132C56.9384 53.2392 53.4631 53.2392 50.6007 51.8132V49.4685C50.6007 48.8244 51.1677 48.3 51.8645 48.3H58.5368C59.2336 48.3 59.8006 48.8244 59.8006 49.4685V51.8132H59.8007Z" fill="#FFA015"/>
<path d="M27.5993 43.7C20.6245 43.7 14.9492 49.3752 14.9492 56.35C14.9492 63.3248 20.6245 68.9999 27.5993 68.9999C34.574 68.9999 40.2493 63.3246 40.2493 56.3498C40.2493 49.3751 34.574 43.7 27.5993 43.7ZM27.5993 66.6998C21.8918 66.6998 17.2493 62.0573 17.2493 56.3498C17.2493 50.6424 21.8918 45.9999 27.5993 45.9999C33.3067 45.9999 37.9493 50.6424 37.9493 56.3498C37.9493 62.0573 33.3067 66.6998 27.5993 66.6998Z" fill="#FFA015"/>
<path d="M27.6 48.3C25.063 48.3 23 50.3632 23 52.9C23 55.437 25.0631 57.5 27.6 57.5C30.1368 57.5 32.1999 55.4368 32.1999 52.9C32.1999 50.3632 30.1369 48.3 27.6 48.3ZM27.6 55.2001C26.3315 55.2001 25.2999 54.1686 25.2999 52.9C25.2999 51.6316 26.3314 50.6 27.6 50.6C28.8684 50.6 29.9 51.6315 29.9 52.9C29.9 54.1686 28.8684 55.2001 27.6 55.2001Z" fill="#FFA015"/>
<path d="M30.9353 59.8H24.2631C22.2978 59.8 20.6992 61.3561 20.6992 63.2673V66.2987C20.6992 66.7092 20.9177 67.0887 21.2731 67.2946C23.2005 68.4101 25.3877 69.0001 27.5992 69.0001C29.8107 69.0001 31.998 68.4101 33.9254 67.2946C34.2808 67.0899 34.4992 66.7093 34.4992 66.2999V63.2685C34.4992 61.3561 32.9008 59.8 30.9353 59.8ZM32.1992 65.6133C29.3368 67.0393 25.8615 67.0393 22.9991 65.6133V63.2685C22.9991 62.6245 23.5661 62.1001 24.263 62.1001H30.9352C31.6321 62.1001 32.199 62.6245 32.199 63.2685V65.6133H32.1992Z" fill="#FFA015"/>
<path d="M12.65 14.95C5.67525 14.95 0 20.6252 0 27.6C0 34.5748 5.67525 40.25 12.65 40.25C19.6248 40.25 25.3001 34.5748 25.3001 27.6C25.3 20.6252 19.6247 14.95 12.65 14.95ZM12.65 37.95C6.94259 37.95 2.30004 33.3074 2.30004 27.6C2.30004 21.8925 6.94259 17.25 12.65 17.25C18.3575 17.25 23 21.8925 23 27.6C23 33.3074 18.3575 37.95 12.65 37.95Z" fill="#FFA015"/>
<path d="M12.6507 19.55C10.1138 19.55 8.05078 21.6132 8.05078 24.15C8.05078 26.6868 10.1139 28.75 12.6507 28.75C15.1877 28.75 17.2507 26.6868 17.2507 24.15C17.2507 21.6132 15.1876 19.55 12.6507 19.55ZM12.6507 26.45C11.3823 26.45 10.3507 25.4186 10.3507 24.15C10.3507 22.8815 11.3822 21.85 12.6507 21.85C13.9192 21.85 14.9508 22.8815 14.9508 24.15C14.9508 25.4186 13.9192 26.45 12.6507 26.45Z" fill="#FFA015"/>
<path d="M15.9861 31.05H9.31388C7.34859 31.05 5.75 32.6061 5.75 34.5173V37.5487C5.75 37.9592 5.96846 38.3387 6.32383 38.5446C8.25125 39.6601 10.4385 40.2501 12.65 40.2501C14.8615 40.2501 17.0488 39.6601 18.9762 38.5446C19.3316 38.3399 19.55 37.9592 19.55 37.5499V34.5185C19.55 32.6061 17.9514 31.05 15.9861 31.05ZM17.25 36.8633C14.3877 38.2893 10.9123 38.2893 8.04991 36.8633V34.5185C8.04991 33.8745 8.61687 33.3501 9.31374 33.3501H15.986C16.6829 33.3501 17.2498 33.8745 17.2498 34.5185V36.8633H17.25Z" fill="#FFA015"/>
<path d="M40.2477 0C33.2729 0 27.5977 5.67525 27.5977 12.65C27.5977 19.6248 33.2729 25.3001 40.2477 25.3001C47.2225 25.3001 52.8977 19.6248 52.8977 12.65C52.8976 5.67525 47.2223 0 40.2477 0ZM40.2477 23C34.5402 23 29.8977 18.3575 29.8977 12.65C29.8977 6.94259 34.5402 2.30004 40.2477 2.30004C45.9551 2.30004 50.5977 6.94259 50.5977 12.65C50.5977 18.3575 45.9551 23 40.2477 23Z" fill="#FFA015"/>
<path d="M40.2484 4.59985C37.7114 4.59985 35.6484 6.66298 35.6484 9.19981C35.6484 11.7366 37.7116 13.7998 40.2484 13.7998C42.7852 13.7998 44.8483 11.7368 44.8483 9.19994C44.8483 6.66312 42.7852 4.59985 40.2484 4.59985ZM40.2484 11.4999C38.98 11.4999 37.9483 10.4684 37.9483 9.19981C37.9483 7.93139 38.9798 6.89976 40.2484 6.89976C41.5169 6.89976 42.5484 7.93126 42.5484 9.19981C42.5483 10.4684 41.5168 11.4999 40.2484 11.4999Z" fill="#FFA015"/>
<path d="M43.5838 16.1001H36.9115C34.9462 16.1001 33.3477 17.6561 33.3477 19.5673V22.5988C33.3477 23.0093 33.5661 23.3888 33.9215 23.5947C35.8489 24.7101 38.0361 25.3001 40.2476 25.3001C42.4592 25.3001 44.6464 24.7101 46.5738 23.5947C46.9292 23.39 47.1476 23.0093 47.1476 22.6V19.5686C47.1476 17.656 45.5491 16.1001 43.5838 16.1001ZM44.8476 21.9133C41.9853 23.3393 38.51 23.3393 35.6476 21.9133V19.5686C35.6476 18.9245 36.2145 18.4001 36.9114 18.4001H43.5836C44.2805 18.4001 44.8475 18.9245 44.8475 19.5686V21.9133H44.8476Z" fill="#FFA015"/>
<path d="M29.6226 11.9013C29.2098 11.4206 28.4841 11.363 28.0011 11.7759L20.0316 18.5955C19.5486 19.0083 19.4923 19.734 19.905 20.217C20.1328 20.4826 20.4548 20.6195 20.779 20.6195C21.0435 20.6195 21.3092 20.5287 21.5265 20.3423L29.4961 13.5228C29.9792 13.11 30.0355 12.3843 29.6226 11.9013Z" fill="#FFA015"/>
<path d="M54.97 30.3613L48.07 21.1612C47.6893 20.6518 46.9683 20.5517 46.46 20.9312C45.9516 21.3119 45.8493 22.0329 46.2299 22.54L53.1299 31.7401C53.3564 32.0414 53.7014 32.2 54.051 32.2C54.2902 32.2 54.5329 32.1252 54.7399 31.97C55.2483 31.5894 55.3507 30.8684 54.97 30.3613Z" fill="#FFA015"/>
<path d="M45.5329 46.353C45.1522 45.8447 44.4312 45.7424 43.9229 46.123L37.499 50.9403C36.9907 51.321 36.8884 52.042 37.269 52.5491C37.4955 52.8505 37.8405 53.0091 38.1901 53.0091C38.4304 53.0091 38.6719 52.9332 38.879 52.7791L45.3029 47.9617C45.8112 47.5813 45.9136 46.8601 45.5329 46.353Z" fill="#FFA015"/>
<path d="M16.1024 55.2H8.0523C7.41755 55.2 6.90234 55.7139 6.90234 56.3499C6.90234 56.9859 7.41755 57.4999 8.0523 57.4999H16.1023C16.737 57.4999 17.2522 56.9859 17.2522 56.3499C17.2522 55.7139 16.7371 55.2 16.1024 55.2Z" fill="#FFA015"/>
<path d="M12.647 0C10.11 0 8.04688 2.06313 8.04688 4.59996C8.04688 7.13692 10.11 9.19991 12.6468 9.19991C15.1838 9.19991 17.2468 7.13678 17.2468 4.59996C17.2469 2.06313 15.1838 0 12.647 0ZM12.647 6.9C11.3786 6.9 10.3469 5.8685 10.3469 4.59996C10.3469 3.33154 11.3784 2.29991 12.647 2.29991C13.9154 2.29991 14.947 3.33141 14.947 4.59996C14.9469 5.8685 13.9154 6.9 12.647 6.9Z" fill="#FFA015"/>
<path d="M12.65 6.90015C12.0152 6.90015 11.5 7.41414 11.5 8.0501V16.1001C11.5 16.736 12.0152 17.25 12.65 17.25C13.2847 17.25 13.7999 16.736 13.7999 16.1001V8.0501C13.7999 7.41414 13.2847 6.90015 12.65 6.90015Z" fill="#FFA015"/>
</g>
<defs>
<clipPath id="clip0">
<rect width="69" height="69" fill="white"/>
</clipPath>
</defs>
</svg>
