<svg width="66" height="66" viewBox="0 0 66 66" fill="none" xmlns="http://www.w3.org/2000/svg">
<path d="M33 16.2422C32.2885 16.2422 31.7109 16.8197 31.7109 17.5312C31.7109 18.2428 32.2885 18.8203 33 18.8203C33.7115 18.8203 34.2891 18.2428 34.2891 17.5312C34.2891 16.8197 33.7115 16.2422 33 16.2422Z" fill="#1099E6"/>
<path d="M11.6016 39.4453C12.3131 39.4453 12.8906 38.8678 12.8906 38.1562C12.8906 37.4447 12.3131 36.8672 11.6016 36.8672C10.8901 36.8672 10.3125 37.4447 10.3125 38.1562C10.3125 38.8678 10.8901 39.4453 11.6016 39.4453Z" fill="#1099E6"/>
<path d="M43.3125 3.35156C31.7074 3.35156 22.1824 11.3528 21.4458 21.4312C10.3936 21.9856 0 29.9551 0 40.7344C0 45.239 1.78253 49.6037 5.02734 53.062C5.66936 55.7086 4.88988 58.5139 2.95578 60.448C2.58719 60.8166 2.47691 61.371 2.67632 61.8528C2.87572 62.3342 3.34552 62.6484 3.86719 62.6484C7.54353 62.6484 11.0864 61.2068 13.7189 58.6664C16.2835 59.5406 19.6295 60.0703 22.6875 60.0703C34.2911 60.0703 43.815 52.0711 44.5537 41.9947C47.2527 41.8749 50.0599 41.3764 52.2811 40.6196C54.9136 43.1599 58.4565 44.6016 62.1328 44.6016C62.6545 44.6016 63.1243 44.2874 63.3237 43.806C63.5231 43.3241 63.4128 42.7697 63.0442 42.4011C61.1101 40.467 60.3306 37.6618 60.9727 35.0152C64.2175 31.5569 66 27.1922 66 22.6875C66 11.4873 54.8058 3.35156 43.3125 3.35156ZM22.6875 57.4922C19.6451 57.4922 16.1782 56.895 13.8559 55.971C13.3584 55.7726 12.7899 55.903 12.4279 56.2983C10.8714 57.9998 8.8477 59.1861 6.6427 59.7314C7.85774 57.4036 8.16792 54.6593 7.42873 52.059C7.37032 51.854 7.26205 51.6667 7.11351 51.5142C4.18895 48.502 2.57812 44.6736 2.57812 40.7344C2.57812 31.6505 11.7869 23.9766 22.6875 23.9766C32.9809 23.9766 42.0234 31.1344 42.0234 40.7344C42.0234 49.9748 33.3495 57.4922 22.6875 57.4922ZM58.8865 33.4673C58.7379 33.6204 58.6297 33.8077 58.5713 34.0121C57.8321 36.6124 58.1423 39.3567 59.3573 41.6846C57.1523 41.1397 55.1286 39.9529 53.5721 38.2514C53.2101 37.8566 52.6416 37.7257 52.1441 37.9241C50.1314 38.7247 47.2603 39.2791 44.5497 39.4131C44.173 34.5383 41.7415 29.9566 37.5842 26.5547H54.3984C55.1104 26.5547 55.6875 25.9776 55.6875 25.2656C55.6875 24.5536 55.1104 23.9766 54.3984 23.9766H33.6239C30.6978 22.4871 27.4122 21.6185 24.0304 21.4362C24.7711 12.7783 33.1365 5.92969 43.3125 5.92969C54.2131 5.92969 63.4219 13.6036 63.4219 22.6875C63.4219 26.6267 61.8111 30.4551 58.8865 33.4673Z" fill="#1099E6"/>
<path d="M33 36.8672H16.7578C16.0458 36.8672 15.4688 37.4442 15.4688 38.1562C15.4688 38.8683 16.0458 39.4453 16.7578 39.4453H33C33.712 39.4453 34.2891 38.8683 34.2891 38.1562C34.2891 37.4442 33.712 36.8672 33 36.8672Z" fill="#1099E6"/>
<path d="M33 44.6016H11.6016C10.8896 44.6016 10.3125 45.1786 10.3125 45.8906C10.3125 46.6026 10.8896 47.1797 11.6016 47.1797H33C33.712 47.1797 34.2891 46.6026 34.2891 45.8906C34.2891 45.1786 33.712 44.6016 33 44.6016Z" fill="#1099E6"/>
<path d="M54.3984 16.2422H38.1562C37.4442 16.2422 36.8672 16.8192 36.8672 17.5312C36.8672 18.2433 37.4442 18.8203 38.1562 18.8203H54.3984C55.1104 18.8203 55.6875 18.2433 55.6875 17.5312C55.6875 16.8192 55.1104 16.2422 54.3984 16.2422Z" fill="#1099E6"/>
</svg>
