<svg width="69" height="69" viewBox="0 0 69 69" fill="none" xmlns="http://www.w3.org/2000/svg">
<path d="M67.85 24.0625H58.65C58.0149 24.0625 57.5 24.5774 57.5 25.2125V26.3625H29.9C29.595 26.3625 29.3026 26.4838 29.0869 26.6994L27.6 28.1864L26.1131 26.6994C25.8974 26.4838 25.605 26.3625 25.3 26.3625H11.5V25.2125C11.5 24.5774 10.9851 24.0625 10.35 24.0625H1.15C0.514912 24.0625 0 24.5774 0 25.2125V57.4125C0 58.0476 0.514912 58.5625 1.15 58.5625H10.35C10.9851 58.5625 11.5 58.0476 11.5 57.4125V56.2625H12.3786C13.0281 57.8009 14.6859 58.6534 16.3151 58.2865C16.7371 60.1446 18.5854 61.3087 20.4436 60.8867C20.8482 62.4627 22.2664 63.5664 23.8936 63.5719C24.1213 63.5677 24.3479 63.5423 24.5709 63.496C25.0724 65.4092 27.0299 66.5536 28.9431 66.052C29.8235 65.8212 30.5831 65.2638 31.0672 64.4931L31.832 63.2775L35.4062 66.8506C36.8009 68.252 39.0677 68.2574 40.4689 66.8626C41.117 66.2178 41.4936 65.3494 41.5219 64.4356C43.4052 64.3832 44.9196 62.8688 44.9719 60.9855C46.8552 60.9332 48.3696 59.4188 48.4219 57.5355C49.9134 57.5022 51.2216 56.5309 51.6844 55.1125L57.5 56.0866V57.4125C57.5 58.0476 58.0149 58.5625 58.65 58.5625H67.85C68.4851 58.5625 69 58.0476 69 57.4125V25.2125C69 24.5774 68.4851 24.0625 67.85 24.0625ZM9.2 27.5125V56.2625H2.3V26.3625H9.2V27.5125ZM16.7405 55.469C16.3595 56.0723 15.5614 56.2526 14.958 55.8715C14.3547 55.4904 14.1745 54.6923 14.5555 54.089L18.0216 48.584C18.258 48.208 18.6713 47.9802 19.1153 47.9814C19.3595 47.9798 19.599 48.0485 19.8053 48.1792C20.407 48.5591 20.588 49.3542 20.2101 49.9571L16.7405 55.469ZM20.869 58.068C20.4898 58.6713 19.6933 58.8532 19.09 58.474C18.4867 58.0947 18.3048 57.2982 18.684 56.6949L22.1501 51.1899C22.5294 50.5865 23.3259 50.4047 23.9292 50.7839C24.5325 51.1631 24.7144 51.9596 24.3351 52.563L20.869 58.068ZM24.9964 60.6682C24.6172 61.2715 23.8207 61.4533 23.2173 61.0741C22.614 60.6949 22.4322 59.8984 22.8114 59.2951L26.2775 53.79C26.6567 53.1867 27.4532 53.0048 28.0565 53.3841C28.6599 53.7633 28.8417 54.5598 28.4625 55.1631L24.9964 60.6682ZM32.5921 57.7575L29.126 63.2626C28.745 63.8659 27.9469 64.0461 27.3435 63.6651C26.7402 63.284 26.56 62.4859 26.941 61.8826L30.4072 56.3787C30.5883 56.0874 30.8779 55.8806 31.2122 55.8037C31.3066 55.7831 31.403 55.7727 31.4997 55.7726C32.2109 55.7726 32.7876 56.3492 32.7876 57.0606C32.7876 57.304 32.7186 57.5425 32.5887 57.7483L32.5921 57.7575ZM38.8573 65.2245L38.8598 65.222C38.8589 65.2229 38.8582 65.2236 38.8573 65.2245ZM38.8608 65.2209C38.3567 65.7224 37.5418 65.7221 37.0381 65.2199L33.0947 61.2765L34.5 59.0432L38.8573 63.4006C39.3606 63.9025 39.3621 64.7172 38.8608 65.2209ZM49.2144 54.872C49.2135 54.8729 49.2128 54.8736 49.2119 54.8745V54.8699C48.708 55.3725 47.892 55.3725 47.3881 54.8699L41.063 48.5449L39.4369 50.171L45.7619 56.496C46.2656 56.9997 46.2656 57.8162 45.7619 58.3199C45.2582 58.8236 44.4417 58.8236 43.938 58.3199L37.613 51.9949L35.9869 53.621L42.3119 59.946C42.8156 60.4497 42.8156 61.2662 42.3119 61.7699C41.8082 62.2736 40.9917 62.2736 40.488 61.7699L35.313 56.5949L35.0025 56.2855V56.2763C34.5785 54.39 32.73 53.184 30.8327 53.5554C30.3645 51.7312 28.5525 50.5907 26.7053 50.9576C26.2375 49.1314 24.4233 47.9898 22.5745 48.3586C22.0797 46.4462 20.1285 45.2971 18.2163 45.7918C17.3289 46.0213 16.5636 46.5828 16.0781 47.3602L12.6121 52.8654C12.4042 53.2041 12.2538 53.5748 12.167 53.9625H11.5V28.6625H24.8239L25.9739 29.8125L23.3369 32.4494C21.6177 34.1687 21.6177 36.9563 23.3369 38.6756C25.0562 40.3948 27.8438 40.3948 29.563 38.6756L32.2 36.0386L49.2119 53.0506C49.7156 53.5528 49.7167 54.3685 49.2144 54.872ZM57.5 53.7544L52.302 52.8884L50.8381 51.4245L33.0131 33.5995C32.564 33.1505 31.836 33.1505 31.3869 33.5995L27.9369 37.0494C27.1049 37.8441 25.7951 37.8441 24.9631 37.0494C24.1427 36.2279 24.1427 34.8971 24.9631 34.0756L30.3761 28.6625H57.5V53.7544ZM66.7 56.2625H59.8V26.3625H66.7V56.2625Z" fill="#E24E90"/>
<path d="M34.5008 5.6626C29.4198 5.6626 25.3008 9.78161 25.3008 14.8626C25.3065 19.9413 29.4221 24.0568 34.5008 24.0626C39.5818 24.0626 43.7008 19.9436 43.7008 14.8626C43.7008 9.78161 39.5818 5.6626 34.5008 5.6626ZM34.5008 18.3126C33.8657 18.3126 33.3508 17.7977 33.3508 17.1626H31.0508C31.0568 18.6194 31.9772 19.9154 33.3508 20.401V21.6591C29.5972 21.0277 27.066 17.4731 27.6974 13.7195C28.1845 10.8228 30.4541 8.55327 33.3508 8.0661V9.3242C31.5578 9.95569 30.6162 11.9212 31.2479 13.7142C31.7337 15.0936 33.0383 16.0155 34.5008 16.0126C35.1359 16.0126 35.6508 16.5275 35.6508 17.1626C35.6508 17.7977 35.1359 18.3126 34.5008 18.3126ZM35.6508 21.6591V20.401C37.4438 19.7695 38.3853 17.804 37.7537 16.011C37.2678 14.6316 35.9633 13.7097 34.5008 13.7126C33.8657 13.7126 33.3508 13.1977 33.3508 12.5626C33.3508 11.9275 33.8657 11.4126 34.5008 11.4126C35.1359 11.4126 35.6508 11.9275 35.6508 12.5626H37.9508C37.9447 11.1058 37.0243 9.80978 35.6508 9.3242V8.0661C39.4044 8.69745 41.9355 12.2521 41.3042 16.0057C40.817 18.9023 38.5475 21.1719 35.6508 21.6591Z" fill="#E24E90"/>
<path d="M45.207 4.04468L44.0156 6.00773C44.6501 6.39255 45.2611 6.81503 45.8453 7.27273L47.2655 5.46608C46.6083 4.95174 45.9209 4.47708 45.207 4.04468Z" fill="#E24E90"/>
<path d="M40.653 1.99292L39.9688 4.18942C40.6777 4.41022 41.3728 4.67328 42.0502 4.97717L42.9921 2.87957C42.2309 2.53701 41.4498 2.24103 40.653 1.99292Z" fill="#E24E90"/>
<path d="M52.2137 11.0515L50.2461 12.2418C50.6303 12.8756 50.9756 13.5324 51.2799 14.2083L53.3775 13.2641C53.0347 12.5037 52.6461 11.7648 52.2137 11.0515Z" fill="#E24E90"/>
<path d="M49.1378 7.12891L47.5117 8.75156C48.0374 9.27653 48.5316 9.83227 48.9918 10.4156L50.795 8.99766C50.2795 8.34288 49.7262 7.719 49.1378 7.12891Z" fill="#E24E90"/>
<path d="M54.2657 15.6045L52.0703 16.2864C52.2901 16.9943 52.4671 17.7147 52.6005 18.4438L54.8625 18.0333C54.7136 17.2122 54.5142 16.401 54.2657 15.6045Z" fill="#E24E90"/>
<path d="M35.7373 1.09937L35.6016 3.39936C36.3419 3.44378 37.0787 3.53248 37.8084 3.66501L38.2201 1.39607C37.3992 1.248 36.57 1.14882 35.7373 1.09937Z" fill="#E24E90"/>
<path d="M19.8525 7.13696C19.2631 7.72763 18.7096 8.35323 18.1953 9.01031L20.0123 10.4283C20.468 9.84608 20.958 9.29149 21.4797 8.76766L19.8525 7.13696Z" fill="#E24E90"/>
<path d="M16.7709 11.0676C16.3399 11.7825 15.9519 12.5225 15.6094 13.2837L17.707 14.2267C18.0129 13.5509 18.3592 12.8943 18.7443 12.2602L16.7709 11.0676Z" fill="#E24E90"/>
<path d="M14.7262 15.6274C14.4794 16.4254 14.2813 17.2377 14.1328 18.0597L16.3949 18.4691C16.5273 17.7388 16.7036 17.0172 16.9227 16.3082L14.7262 15.6274Z" fill="#E24E90"/>
<path d="M23.7738 4.05273C23.0609 4.48585 22.3747 4.96123 21.7188 5.47643L23.1413 7.28424C23.7245 6.82682 24.3343 6.40434 24.9675 6.01924L23.7738 4.05273Z" fill="#E24E90"/>
<path d="M33.2368 1.09473C32.4039 1.14518 31.5747 1.24581 30.7539 1.39603L31.1645 3.66268C31.8956 3.52913 32.634 3.43958 33.3759 3.39473L33.2368 1.09473Z" fill="#E24E90"/>
<path d="M28.3212 1.99976C27.5249 2.24902 26.7447 2.54629 25.9844 2.88986L26.9297 4.98516C27.6069 4.68012 28.3021 4.41619 29.0112 4.19511L28.3212 1.99976Z" fill="#E24E90"/>
</svg>
