<svg width="53" height="53" viewBox="0 0 53 53" fill="none" xmlns="http://www.w3.org/2000/svg">
<path d="M19.8118 37.189C11.08 37.6171 2.31138 23.9475 7.10363 15.8484C14.918 2.64167 31.7123 8.615 25.608 21.7779C22.6556 28.1443 28.5437 36.761 19.8118 37.189Z" stroke="#FF57C6" stroke-width="2"/>
<path d="M15.2846 18.2378C14.1151 9.45689 25.5638 10.3593 30.9989 10.3595C36.4341 10.3597 43.499 9.35952 45.4372 13.8994C46.9144 17.3595 46.1224 19.8379 36.43 25.6486C26.7376 31.4594 16.7464 29.2139 15.2846 18.2378Z" stroke="#10E6D9" stroke-width="2"/>
<path d="M46.0966 20.5663C56.5951 23.9773 48.7294 37.331 40.8851 39.8945C33.0408 42.4581 25.1803 39.8087 24.4945 31.1473C23.8088 22.4859 35.598 17.1552 46.0966 20.5663Z" stroke="#ED534B" stroke-width="2"/>
<path d="M42.4464 46.3951C37.8809 50.9634 32.6041 48.3296 30.5364 46.4416C26.6975 43.2189 19.7742 39.7816 20.3031 32.1899C20.9643 22.7002 30.0564 18.1874 37.4267 23.0049C44.797 27.8224 48.1534 40.6846 42.4464 46.3951Z" stroke="#9F72FF" stroke-width="2"/>
<path d="M37.4621 34.0978C39.2023 38.3343 37.263 44.2791 27.1412 48.405C16.5163 52.736 10.1867 46.5487 9.44185 39.7244C9.02964 35.9476 8.8142 32.2184 14.1177 29.3936C21.318 25.5587 35.7219 29.8613 37.4621 34.0978Z" stroke="#FFA800" stroke-width="2"/>
</svg>
