<svg width="60" height="61" viewBox="0 0 60 61" fill="none" xmlns="http://www.w3.org/2000/svg">
<path d="M30 0L32.8223 3.20037L36.2374 0.666498L38.3435 4.3935L42.2021 2.63686L43.5 6.7276L47.6336 5.82498L48.0665 10.1007L52.2943 10.0915L51.8435 14.3653L55.9808 15.25L54.6657 19.3351L58.5317 21.075L56.41 24.7928L59.8357 27.3119L57 30.5L59.8357 33.6881L56.41 36.2072L58.5317 39.925L54.6657 41.6649L55.9808 45.75L51.8435 46.6347L52.2943 50.9085L48.0665 50.8993L47.6336 55.175L43.5 54.2724L42.2021 58.3631L38.3435 56.6065L36.2374 60.3335L32.8223 57.7996L30 61L27.1777 57.7996L23.7626 60.3335L21.6565 56.6065L17.7979 58.3631L16.5 54.2724L12.3664 55.175L11.9335 50.8993L7.70566 50.9085L8.15654 46.6347L4.01924 45.75L5.33427 41.6649L1.4683 39.925L3.59001 36.2072L0.164343 33.6881L3 30.5L0.164343 27.3119L3.59001 24.7928L1.4683 21.075L5.33427 19.3351L4.01924 15.25L8.15654 14.3653L7.70566 10.0915L11.9335 10.1007L12.3664 5.82498L16.5 6.7276L17.7979 2.63686L21.6565 4.3935L23.7626 0.666498L27.1777 3.20037L30 0Z" fill="#FF579E"/>
</svg>
