<svg width="27" height="32" viewBox="0 0 27 32" fill="none" xmlns="http://www.w3.org/2000/svg">
<path d="M14.5 18.6489C14.5 18.0966 14.0523 17.6489 13.5 17.6489C12.9477 17.6489 12.5 18.0966 12.5 18.6489H14.5ZM12.5 21.6489C12.5 22.2012 12.9477 22.6489 13.5 22.6489C14.0523 22.6489 14.5 22.2012 14.5 21.6489H12.5ZM3.5 13.9968H23.5V11.9968H3.5V13.9968ZM25 15.5185V28.1272H27V15.5185H25ZM23.5 29.6489H3.5V31.6489H23.5V29.6489ZM2 28.1272V15.5185H0V28.1272H2ZM3.5 29.6489C2.67972 29.6489 2 28.9758 2 28.1272H0C0 30.064 1.55886 31.6489 3.5 31.6489V29.6489ZM25 28.1272C25 28.9758 24.3203 29.6489 23.5 29.6489V31.6489C25.4411 31.6489 27 30.064 27 28.1272H25ZM23.5 13.9968C24.3203 13.9968 25 14.6699 25 15.5185H27C27 13.5817 25.4411 11.9968 23.5 11.9968V13.9968ZM3.5 11.9968C1.55886 11.9968 0 13.5817 0 15.5185H2C2 14.6699 2.67972 13.9968 3.5 13.9968V11.9968ZM8.25 12.9968V7.32284H6.25V12.9968H8.25ZM18.75 7.32284V12.9968H20.75V7.32284H18.75ZM7.25 7.32284C8.25 7.32284 8.25 7.32336 8.25 7.32385C8.25 7.32399 8.25 7.32447 8.25 7.32474C8.25 7.32529 8.25 7.32576 8.24999 7.32614C8.24999 7.32691 8.24999 7.32735 8.24999 7.32747C8.24998 7.3277 8.24999 7.32664 8.25003 7.32433C8.25012 7.3197 8.25033 7.31008 8.25085 7.29581C8.2519 7.26724 8.25419 7.22024 8.25913 7.15748C8.26903 7.03159 8.28944 6.84445 8.33122 6.61686C8.41556 6.15745 8.58254 5.55775 8.90718 4.96832C9.2287 4.38455 9.70091 3.81681 10.4045 3.39099C11.1062 2.96629 12.0938 2.64893 13.5 2.64893V0.648926C11.7812 0.648926 10.425 1.0408 9.36895 1.67996C8.31472 2.318 7.61505 3.16874 7.15532 4.00345C6.69871 4.83249 6.47506 5.65127 6.36409 6.25572C6.30822 6.56006 6.2798 6.81619 6.26529 7.0006C6.25802 7.09298 6.2542 7.16788 6.2522 7.22243C6.2512 7.24971 6.25065 7.27196 6.25035 7.2888C6.2502 7.29722 6.25011 7.3043 6.25006 7.30998C6.25004 7.31283 6.25002 7.31532 6.25001 7.31747C6.25001 7.31854 6.25 7.31953 6.25 7.32042C6.25 7.32087 6.25 7.32147 6.25 7.3217C6.25 7.32228 6.25 7.32284 7.25 7.32284ZM13.5 2.64893C14.9062 2.64893 15.8938 2.96629 16.5955 3.39099C17.2991 3.81681 17.7713 4.38455 18.0928 4.96832C18.4175 5.55775 18.5844 6.15745 18.6688 6.61686C18.7106 6.84445 18.731 7.03159 18.7409 7.15748C18.7458 7.22024 18.7481 7.26724 18.7491 7.29581C18.7497 7.31008 18.7499 7.3197 18.75 7.32433C18.75 7.32664 18.75 7.3277 18.75 7.32747C18.75 7.32735 18.75 7.32691 18.75 7.32614C18.75 7.32576 18.75 7.32529 18.75 7.32474C18.75 7.32447 18.75 7.32399 18.75 7.32385C18.75 7.32336 18.75 7.32284 19.75 7.32284C20.75 7.32284 20.75 7.32228 20.75 7.3217C20.75 7.32147 20.75 7.32087 20.75 7.32042C20.75 7.31953 20.75 7.31854 20.75 7.31747C20.75 7.31532 20.75 7.31283 20.7499 7.30998C20.7499 7.3043 20.7498 7.29722 20.7497 7.2888C20.7494 7.27196 20.7488 7.24971 20.7478 7.22243C20.7458 7.16788 20.742 7.09298 20.7347 7.0006C20.7202 6.81619 20.6918 6.56006 20.6359 6.25572C20.5249 5.65127 20.3013 4.83249 19.8447 4.00345C19.385 3.16874 18.6853 2.318 17.6311 1.67996C16.575 1.0408 15.2188 0.648926 13.5 0.648926V2.64893ZM12.5 18.6489V21.6489H14.5V18.6489H12.5Z" fill="white"/>
</svg>
