<svg width="125" height="204" viewBox="0 0 125 204" fill="none" xmlns="http://www.w3.org/2000/svg">
<g opacity="0.5">
<path d="M77.6081 138.316H47.8081V122.049C47.8081 115.24 48.5626 110.196 50.0714 106.918C51.8318 103.387 55.6039 98.7215 61.3879 92.9211L80.6258 73.6285C84.6495 69.3412 86.6613 63.793 86.6613 56.9838C86.6613 50.4268 84.5237 45.0047 80.2486 40.7175C76.225 36.4302 70.8182 34.2866 64.0284 34.2866C57.2385 34.2866 51.5803 36.4302 47.0537 40.7175C42.5271 44.7525 40.0123 50.1746 39.5094 56.9838H7.44612C9.20646 41.3479 15.2419 29.1167 25.5524 20.29C36.1145 11.2111 49.317 6.67161 65.16 6.67161C81.003 6.67161 93.8283 11.085 103.636 19.9117C113.444 28.4862 118.347 40.3392 118.347 55.4707C118.347 65.8105 115.33 74.6372 109.294 81.9508C105.522 86.9946 100.744 92.1645 94.96 97.4606C88.9246 103.009 84.7752 107.17 82.5119 109.944C79.2427 114.483 77.6081 120.032 77.6081 126.589V138.316ZM42.9043 177.657C42.9043 172.361 44.9161 167.822 48.9398 164.039C52.9634 160.004 57.7414 157.987 63.2739 157.987C68.8064 157.987 73.5845 159.878 77.6081 163.661C81.6317 167.444 83.6435 171.983 83.6435 177.279C83.6435 182.827 81.6317 187.619 77.6081 191.654C73.836 195.437 69.1836 197.328 63.6511 197.328C58.1187 197.328 53.2149 195.437 48.9398 191.654C44.9161 187.619 42.9043 182.953 42.9043 177.657Z" fill="#422F55"/>
<path fill-rule="evenodd" clip-rule="evenodd" d="M84.2608 144.987H41.1554V122.049C41.1554 114.981 41.902 108.748 44.031 104.122L44.0745 104.027L44.121 103.934C46.3893 99.3847 50.8177 94.0861 56.6837 88.2036L75.8441 68.9886C78.4862 66.1396 80.0085 62.3366 80.0085 56.9838C80.0085 52.0372 78.464 48.3629 75.5444 45.435L75.4731 45.3635L75.4041 45.29C72.8377 42.5555 69.2978 40.9582 64.0283 40.9582C58.7692 40.9582 54.7963 42.5609 51.6216 45.5678L51.5485 45.637L51.4735 45.7039C48.404 48.4401 46.5363 52.1637 46.1439 57.4767L45.6875 63.6554H0L0.835379 56.2353C2.75282 39.204 9.43665 25.3165 21.2287 15.2195C33.1623 4.96413 47.9662 0 65.16 0C82.2763 0 96.7838 4.79773 108.044 14.9148C119.514 24.9615 125 38.7694 125 55.4707C125 67.1581 121.566 77.4844 114.522 86.079C110.466 91.483 105.422 96.9149 99.4507 102.383C93.5645 107.794 89.7657 111.626 87.7916 114.01C85.5449 117.203 84.2608 121.276 84.2608 126.589V144.987ZM82.5119 109.944C84.7752 107.17 88.9246 103.009 94.96 97.4606C100.744 92.1645 105.522 86.9946 109.294 81.9508C115.33 74.6372 118.347 65.8105 118.347 55.4707C118.347 40.3392 113.444 28.4862 103.636 19.9117C93.8283 11.085 81.003 6.67161 65.16 6.67161C49.317 6.67161 36.1145 11.2111 25.5524 20.29C16.7568 27.8198 11.0723 37.8272 8.49889 50.3122C8.05566 52.4626 7.70477 54.6865 7.44612 56.9838H39.5094C40.0123 50.1746 42.5271 44.7525 47.0537 40.7175C51.5803 36.4302 57.2385 34.2866 64.0284 34.2866C70.8182 34.2866 76.225 36.4302 80.2486 40.7175C84.5237 45.0047 86.6613 50.4268 86.6613 56.9838C86.6613 63.793 84.6495 69.3412 80.6258 73.6285L61.3879 92.9211C55.6039 98.7215 51.8318 103.387 50.0714 106.918C48.5626 110.196 47.8081 115.24 47.8081 122.049V138.316H77.6081V126.589C77.6081 120.032 79.2427 114.483 82.5119 109.944ZM44.3824 196.519L44.2356 196.372C39.0712 191.193 36.2516 184.869 36.2516 177.657C36.2516 170.463 39.0636 164.215 44.3113 159.246C49.5293 154.049 55.9569 151.315 63.2739 151.315C70.4907 151.315 76.8972 153.847 82.1581 158.794C87.4562 163.775 90.2962 170.049 90.2962 177.279C90.2962 184.652 87.5437 191.125 82.3122 196.372C77.2417 201.457 70.8749 204 63.6511 204C56.4442 204 49.988 201.479 44.5382 196.657L44.3824 196.519ZM48.9398 164.039C44.9161 167.822 42.9043 172.361 42.9043 177.657C42.9043 182.953 44.9161 187.619 48.9398 191.654C53.2149 195.437 58.1187 197.328 63.6511 197.328C69.1836 197.328 73.836 195.437 77.6081 191.654C81.6317 187.619 83.6435 182.827 83.6435 177.279C83.6435 171.983 81.6317 167.444 77.6081 163.661C73.5845 159.878 68.8064 157.987 63.2739 157.987C57.7414 157.987 52.9634 160.004 48.9398 164.039Z" fill="#422F55"/>
</g>
</svg>
